M48
;GenerationSoftware,Autodesk,EAGLE,9.6.2*%
;CreationDate,2022-02-02T20:06:28Z*%
FMAT,2
ICI,OFF
METRIC,TZ,000.000
T10C0.350
T9C0.400
T8C0.500
T7C0.550
T6C0.600
T5C0.800
T4C0.813
T3C1.000
T2C1.900
T1C2.090
%
G90
M71
T1
X12730Y14240
X20780Y12240
X15180Y12240
T2
X13830Y18490
X22730Y18490
X22730Y9890
T3
X38300Y22900
T4
X30320Y26500
X40480Y26500
X25120Y70760
X35280Y70760
X25170Y73060
X35330Y73060
X25320Y75360
X35480Y75360
T5
X32100Y62400
T6
X44000Y46000
T7
X49500Y61100
T8
X56780Y12210
X63500Y26400
X66200Y27300
X43700Y60000
X57050Y54050
X66400Y45200
X71900Y39800
X27650Y50300
X57550Y39850
X56000Y37550
X44051Y40407
X42350Y40100
X63000Y42600
X32600Y59300
X14530Y73760
X61820Y12210
X59280Y12210
T9
X12594Y76400
X14900Y59000
T10
X17800Y39500
X37400Y41900
X49800Y32600
X67600Y45250
X46700Y27550
X78650Y36300
X22500Y77400
X44100Y37500
X79500Y41400
X14600Y56000
X55500Y39100
X58300Y45900
X20050Y70650
X18300Y67450
X44650Y69600
X44850Y38600
X41000Y38500
X36200Y52400
X52200Y34300
X59107Y26100
X59350Y23100
X63100Y37200
X47200Y34800
X45450Y39300
X44200Y33900
X32700Y31500
X55400Y41200
X28400Y38000
X53900Y56750
X51000Y30200
X48700Y27700
X18900Y40800
M30