G04 EAGLE Gerber RS-274X export*
G75*
%MOMM*%
%FSLAX34Y34*%
%LPD*%
%INSilkscreen Top*%
%IPPOS*%
%AMOC8*
5,1,8,0,0,1.08239X$1,22.5*%
G01*
%ADD10C,0.100000*%
%ADD11C,0.025400*%
%ADD12C,0.152400*%
%ADD13R,0.508000X2.032000*%
%ADD14R,1.905000X0.508000*%
%ADD15C,0.127000*%
%ADD16C,0.000000*%
%ADD17C,0.050800*%
%ADD18C,0.100000*%
%ADD19C,0.200000*%
%ADD20C,0.101600*%
%ADD21C,0.076200*%
%ADD22C,0.300000*%


D10*
X541000Y607000D02*
X569000Y607000D01*
X569000Y595000D01*
X541000Y595000D01*
X541000Y607000D01*
D11*
X558626Y592127D02*
X559125Y592127D01*
X558626Y592127D02*
X558583Y592129D01*
X558539Y592135D01*
X558497Y592144D01*
X558455Y592157D01*
X558415Y592174D01*
X558377Y592194D01*
X558340Y592217D01*
X558305Y592244D01*
X558273Y592273D01*
X558244Y592305D01*
X558217Y592340D01*
X558194Y592377D01*
X558174Y592415D01*
X558157Y592455D01*
X558144Y592497D01*
X558135Y592539D01*
X558129Y592583D01*
X558127Y592626D01*
X558127Y593874D01*
X558129Y593917D01*
X558135Y593961D01*
X558144Y594003D01*
X558157Y594045D01*
X558174Y594085D01*
X558194Y594123D01*
X558217Y594160D01*
X558244Y594195D01*
X558273Y594227D01*
X558305Y594256D01*
X558340Y594283D01*
X558376Y594306D01*
X558415Y594326D01*
X558455Y594343D01*
X558497Y594356D01*
X558539Y594365D01*
X558582Y594371D01*
X558626Y594373D01*
X559125Y594373D01*
X560009Y593874D02*
X560633Y594373D01*
X560633Y592127D01*
X560009Y592127D02*
X561257Y592127D01*
X562259Y593250D02*
X562261Y593334D01*
X562267Y593418D01*
X562276Y593501D01*
X562289Y593584D01*
X562306Y593666D01*
X562327Y593748D01*
X562352Y593828D01*
X562380Y593907D01*
X562411Y593985D01*
X562446Y594061D01*
X562461Y594099D01*
X562479Y594136D01*
X562501Y594170D01*
X562525Y594203D01*
X562552Y594234D01*
X562582Y594262D01*
X562614Y594287D01*
X562649Y594309D01*
X562685Y594328D01*
X562723Y594344D01*
X562762Y594357D01*
X562802Y594366D01*
X562842Y594371D01*
X562883Y594373D01*
X562924Y594371D01*
X562964Y594366D01*
X563004Y594357D01*
X563043Y594344D01*
X563081Y594328D01*
X563117Y594309D01*
X563152Y594287D01*
X563184Y594262D01*
X563214Y594234D01*
X563241Y594203D01*
X563265Y594170D01*
X563287Y594136D01*
X563305Y594099D01*
X563320Y594061D01*
X563355Y593985D01*
X563386Y593907D01*
X563414Y593828D01*
X563439Y593748D01*
X563460Y593666D01*
X563477Y593584D01*
X563490Y593501D01*
X563499Y593418D01*
X563505Y593334D01*
X563507Y593250D01*
X562259Y593250D02*
X562261Y593166D01*
X562267Y593082D01*
X562276Y592999D01*
X562289Y592916D01*
X562306Y592834D01*
X562327Y592752D01*
X562352Y592672D01*
X562380Y592593D01*
X562411Y592515D01*
X562446Y592439D01*
X562461Y592401D01*
X562479Y592364D01*
X562501Y592330D01*
X562525Y592297D01*
X562552Y592266D01*
X562582Y592238D01*
X562614Y592213D01*
X562649Y592191D01*
X562685Y592172D01*
X562723Y592156D01*
X562762Y592143D01*
X562802Y592134D01*
X562842Y592129D01*
X562883Y592127D01*
X563320Y592439D02*
X563355Y592515D01*
X563386Y592593D01*
X563414Y592672D01*
X563439Y592752D01*
X563460Y592834D01*
X563477Y592916D01*
X563490Y592999D01*
X563499Y593082D01*
X563505Y593166D01*
X563507Y593250D01*
X563320Y592439D02*
X563305Y592401D01*
X563287Y592364D01*
X563265Y592330D01*
X563241Y592297D01*
X563214Y592266D01*
X563184Y592238D01*
X563152Y592213D01*
X563117Y592191D01*
X563081Y592172D01*
X563043Y592156D01*
X563004Y592143D01*
X562964Y592134D01*
X562924Y592129D01*
X562883Y592127D01*
X562384Y592626D02*
X563382Y593874D01*
D10*
X568500Y623500D02*
X540500Y623500D01*
X568500Y623500D02*
X568500Y611500D01*
X540500Y611500D01*
X540500Y623500D01*
D11*
X558126Y608627D02*
X558625Y608627D01*
X558126Y608627D02*
X558083Y608629D01*
X558039Y608635D01*
X557997Y608644D01*
X557955Y608657D01*
X557915Y608674D01*
X557877Y608694D01*
X557840Y608717D01*
X557805Y608744D01*
X557773Y608773D01*
X557744Y608805D01*
X557717Y608840D01*
X557694Y608877D01*
X557674Y608915D01*
X557657Y608955D01*
X557644Y608997D01*
X557635Y609039D01*
X557629Y609083D01*
X557627Y609126D01*
X557627Y610374D01*
X557629Y610417D01*
X557635Y610461D01*
X557644Y610503D01*
X557657Y610545D01*
X557674Y610585D01*
X557694Y610623D01*
X557717Y610660D01*
X557744Y610695D01*
X557773Y610727D01*
X557805Y610756D01*
X557840Y610783D01*
X557876Y610806D01*
X557915Y610826D01*
X557955Y610843D01*
X557997Y610856D01*
X558039Y610865D01*
X558082Y610871D01*
X558126Y610873D01*
X558625Y610873D01*
X559509Y610374D02*
X560133Y610873D01*
X560133Y608627D01*
X559509Y608627D02*
X560757Y608627D01*
X561759Y610374D02*
X562383Y610873D01*
X562383Y608627D01*
X561759Y608627D02*
X563007Y608627D01*
D10*
X421000Y690000D02*
X421000Y718000D01*
X421000Y690000D02*
X409000Y690000D01*
X409000Y718000D01*
X421000Y718000D01*
D11*
X408373Y696491D02*
X408373Y695992D01*
X408371Y695949D01*
X408365Y695905D01*
X408356Y695863D01*
X408343Y695821D01*
X408326Y695781D01*
X408306Y695743D01*
X408283Y695706D01*
X408256Y695671D01*
X408227Y695639D01*
X408195Y695610D01*
X408160Y695583D01*
X408124Y695560D01*
X408085Y695540D01*
X408045Y695523D01*
X408003Y695510D01*
X407961Y695501D01*
X407918Y695495D01*
X407874Y695493D01*
X406626Y695493D01*
X406583Y695495D01*
X406539Y695501D01*
X406497Y695510D01*
X406455Y695523D01*
X406415Y695540D01*
X406377Y695560D01*
X406340Y695583D01*
X406305Y695610D01*
X406273Y695639D01*
X406244Y695671D01*
X406217Y695706D01*
X406194Y695742D01*
X406174Y695781D01*
X406157Y695821D01*
X406144Y695863D01*
X406135Y695905D01*
X406129Y695948D01*
X406127Y695992D01*
X406127Y696491D01*
X406626Y697375D02*
X406127Y697999D01*
X408373Y697999D01*
X408373Y697375D02*
X408373Y698623D01*
X406127Y700312D02*
X406129Y700358D01*
X406135Y700405D01*
X406144Y700450D01*
X406157Y700494D01*
X406174Y700538D01*
X406195Y700579D01*
X406219Y700619D01*
X406246Y700657D01*
X406276Y700693D01*
X406308Y700725D01*
X406344Y700755D01*
X406382Y700782D01*
X406422Y700806D01*
X406463Y700827D01*
X406507Y700844D01*
X406551Y700857D01*
X406596Y700866D01*
X406643Y700872D01*
X406689Y700874D01*
X406127Y700312D02*
X406129Y700262D01*
X406134Y700212D01*
X406143Y700162D01*
X406155Y700113D01*
X406171Y700065D01*
X406189Y700019D01*
X406212Y699973D01*
X406237Y699930D01*
X406265Y699888D01*
X406296Y699848D01*
X406330Y699811D01*
X406366Y699776D01*
X406405Y699744D01*
X406445Y699714D01*
X406488Y699687D01*
X406533Y699664D01*
X406579Y699643D01*
X406626Y699626D01*
X407126Y700686D02*
X407094Y700717D01*
X407060Y700745D01*
X407024Y700771D01*
X406986Y700795D01*
X406947Y700815D01*
X406906Y700833D01*
X406864Y700847D01*
X406821Y700858D01*
X406777Y700866D01*
X406733Y700871D01*
X406689Y700873D01*
X407125Y700686D02*
X408373Y699625D01*
X408373Y700873D01*
D10*
X166900Y397000D02*
X166900Y369000D01*
X154900Y369000D01*
X154900Y397000D01*
X166900Y397000D01*
D11*
X154273Y377741D02*
X154273Y377242D01*
X154271Y377199D01*
X154265Y377155D01*
X154256Y377113D01*
X154243Y377071D01*
X154226Y377031D01*
X154206Y376993D01*
X154183Y376956D01*
X154156Y376921D01*
X154127Y376889D01*
X154095Y376860D01*
X154060Y376833D01*
X154024Y376810D01*
X153985Y376790D01*
X153945Y376773D01*
X153903Y376760D01*
X153861Y376751D01*
X153818Y376745D01*
X153774Y376743D01*
X152526Y376743D01*
X152483Y376745D01*
X152439Y376751D01*
X152397Y376760D01*
X152355Y376773D01*
X152315Y376790D01*
X152277Y376810D01*
X152240Y376833D01*
X152205Y376860D01*
X152173Y376889D01*
X152144Y376921D01*
X152117Y376956D01*
X152094Y376992D01*
X152074Y377031D01*
X152057Y377071D01*
X152044Y377113D01*
X152035Y377155D01*
X152029Y377198D01*
X152027Y377242D01*
X152027Y377741D01*
X153025Y378625D02*
X153025Y379374D01*
X153027Y379417D01*
X153033Y379461D01*
X153042Y379503D01*
X153055Y379545D01*
X153072Y379585D01*
X153092Y379624D01*
X153115Y379660D01*
X153142Y379695D01*
X153171Y379727D01*
X153203Y379756D01*
X153238Y379783D01*
X153275Y379806D01*
X153313Y379826D01*
X153353Y379843D01*
X153395Y379856D01*
X153437Y379865D01*
X153481Y379871D01*
X153524Y379873D01*
X153649Y379873D01*
X153698Y379871D01*
X153747Y379865D01*
X153795Y379856D01*
X153842Y379842D01*
X153888Y379826D01*
X153932Y379805D01*
X153975Y379781D01*
X154016Y379754D01*
X154054Y379723D01*
X154090Y379690D01*
X154123Y379654D01*
X154154Y379616D01*
X154181Y379575D01*
X154205Y379532D01*
X154226Y379488D01*
X154242Y379442D01*
X154256Y379395D01*
X154265Y379347D01*
X154271Y379298D01*
X154273Y379249D01*
X154271Y379200D01*
X154265Y379151D01*
X154256Y379103D01*
X154242Y379056D01*
X154226Y379010D01*
X154205Y378966D01*
X154181Y378923D01*
X154154Y378882D01*
X154123Y378844D01*
X154090Y378808D01*
X154054Y378775D01*
X154016Y378744D01*
X153975Y378717D01*
X153932Y378693D01*
X153888Y378672D01*
X153842Y378656D01*
X153795Y378642D01*
X153747Y378633D01*
X153698Y378627D01*
X153649Y378625D01*
X153025Y378625D01*
X153025Y378626D02*
X152962Y378628D01*
X152900Y378634D01*
X152838Y378644D01*
X152777Y378657D01*
X152717Y378675D01*
X152658Y378696D01*
X152600Y378721D01*
X152544Y378749D01*
X152490Y378781D01*
X152438Y378817D01*
X152389Y378855D01*
X152342Y378896D01*
X152298Y378941D01*
X152256Y378988D01*
X152218Y379037D01*
X152182Y379089D01*
X152150Y379143D01*
X152122Y379199D01*
X152097Y379257D01*
X152076Y379316D01*
X152058Y379376D01*
X152045Y379437D01*
X152035Y379499D01*
X152029Y379561D01*
X152027Y379624D01*
D10*
X531100Y520900D02*
X531100Y548900D01*
X543100Y548900D01*
X543100Y520900D01*
X531100Y520900D01*
D11*
X545973Y538526D02*
X545973Y539025D01*
X545973Y538526D02*
X545971Y538483D01*
X545965Y538439D01*
X545956Y538397D01*
X545943Y538355D01*
X545926Y538315D01*
X545906Y538277D01*
X545883Y538240D01*
X545856Y538205D01*
X545827Y538173D01*
X545795Y538144D01*
X545760Y538117D01*
X545724Y538094D01*
X545685Y538074D01*
X545645Y538057D01*
X545603Y538044D01*
X545561Y538035D01*
X545518Y538029D01*
X545474Y538027D01*
X544226Y538027D01*
X544183Y538029D01*
X544139Y538035D01*
X544097Y538044D01*
X544055Y538057D01*
X544015Y538074D01*
X543977Y538094D01*
X543940Y538117D01*
X543905Y538144D01*
X543873Y538173D01*
X543844Y538205D01*
X543817Y538240D01*
X543794Y538276D01*
X543774Y538315D01*
X543757Y538355D01*
X543744Y538397D01*
X543735Y538439D01*
X543729Y538482D01*
X543727Y538526D01*
X543727Y539025D01*
X543727Y539909D02*
X543977Y539909D01*
X543727Y539909D02*
X543727Y541157D01*
X545973Y540533D01*
D10*
X670400Y127700D02*
X670400Y99700D01*
X658400Y99700D01*
X658400Y127700D01*
X670400Y127700D01*
D11*
X657773Y108441D02*
X657773Y107942D01*
X657771Y107899D01*
X657765Y107855D01*
X657756Y107813D01*
X657743Y107771D01*
X657726Y107731D01*
X657706Y107693D01*
X657683Y107656D01*
X657656Y107621D01*
X657627Y107589D01*
X657595Y107560D01*
X657560Y107533D01*
X657524Y107510D01*
X657485Y107490D01*
X657445Y107473D01*
X657403Y107460D01*
X657361Y107451D01*
X657318Y107445D01*
X657274Y107443D01*
X656026Y107443D01*
X655983Y107445D01*
X655939Y107451D01*
X655897Y107460D01*
X655855Y107473D01*
X655815Y107490D01*
X655777Y107510D01*
X655740Y107533D01*
X655705Y107560D01*
X655673Y107589D01*
X655644Y107621D01*
X655617Y107656D01*
X655594Y107692D01*
X655574Y107731D01*
X655557Y107771D01*
X655544Y107813D01*
X655535Y107855D01*
X655529Y107898D01*
X655527Y107942D01*
X655527Y108441D01*
X657149Y109325D02*
X657100Y109327D01*
X657051Y109333D01*
X657003Y109342D01*
X656956Y109356D01*
X656910Y109372D01*
X656866Y109393D01*
X656823Y109417D01*
X656782Y109444D01*
X656744Y109475D01*
X656708Y109508D01*
X656675Y109544D01*
X656644Y109582D01*
X656617Y109623D01*
X656593Y109666D01*
X656572Y109710D01*
X656556Y109756D01*
X656542Y109803D01*
X656533Y109851D01*
X656527Y109900D01*
X656525Y109949D01*
X656527Y109998D01*
X656533Y110047D01*
X656542Y110095D01*
X656556Y110142D01*
X656572Y110188D01*
X656593Y110232D01*
X656617Y110275D01*
X656644Y110316D01*
X656675Y110354D01*
X656708Y110390D01*
X656744Y110423D01*
X656782Y110454D01*
X656823Y110481D01*
X656866Y110505D01*
X656910Y110526D01*
X656956Y110542D01*
X657003Y110556D01*
X657051Y110565D01*
X657100Y110571D01*
X657149Y110573D01*
X657198Y110571D01*
X657247Y110565D01*
X657295Y110556D01*
X657342Y110542D01*
X657388Y110526D01*
X657432Y110505D01*
X657475Y110481D01*
X657516Y110454D01*
X657554Y110423D01*
X657590Y110390D01*
X657623Y110354D01*
X657654Y110316D01*
X657681Y110275D01*
X657705Y110232D01*
X657726Y110188D01*
X657742Y110142D01*
X657756Y110095D01*
X657765Y110047D01*
X657771Y109998D01*
X657773Y109949D01*
X657771Y109900D01*
X657765Y109851D01*
X657756Y109803D01*
X657742Y109756D01*
X657726Y109710D01*
X657705Y109666D01*
X657681Y109623D01*
X657654Y109582D01*
X657623Y109544D01*
X657590Y109508D01*
X657554Y109475D01*
X657516Y109444D01*
X657475Y109417D01*
X657432Y109393D01*
X657388Y109372D01*
X657342Y109356D01*
X657295Y109342D01*
X657247Y109333D01*
X657198Y109327D01*
X657149Y109325D01*
X656026Y109450D02*
X655983Y109452D01*
X655939Y109458D01*
X655897Y109467D01*
X655855Y109480D01*
X655815Y109497D01*
X655777Y109517D01*
X655740Y109540D01*
X655705Y109567D01*
X655673Y109596D01*
X655644Y109628D01*
X655617Y109663D01*
X655594Y109700D01*
X655574Y109738D01*
X655557Y109778D01*
X655544Y109820D01*
X655535Y109862D01*
X655529Y109906D01*
X655527Y109949D01*
X655529Y109992D01*
X655535Y110036D01*
X655544Y110078D01*
X655557Y110120D01*
X655574Y110160D01*
X655594Y110199D01*
X655617Y110235D01*
X655644Y110270D01*
X655673Y110302D01*
X655705Y110331D01*
X655740Y110358D01*
X655777Y110381D01*
X655815Y110401D01*
X655855Y110418D01*
X655897Y110431D01*
X655939Y110440D01*
X655983Y110446D01*
X656026Y110448D01*
X656069Y110446D01*
X656113Y110440D01*
X656155Y110431D01*
X656197Y110418D01*
X656237Y110401D01*
X656276Y110381D01*
X656312Y110358D01*
X656347Y110331D01*
X656379Y110302D01*
X656408Y110270D01*
X656435Y110235D01*
X656458Y110199D01*
X656478Y110160D01*
X656495Y110120D01*
X656508Y110078D01*
X656517Y110036D01*
X656523Y109992D01*
X656525Y109949D01*
X656523Y109906D01*
X656517Y109862D01*
X656508Y109820D01*
X656495Y109778D01*
X656478Y109738D01*
X656458Y109700D01*
X656435Y109663D01*
X656408Y109628D01*
X656379Y109596D01*
X656347Y109567D01*
X656312Y109540D01*
X656276Y109517D01*
X656237Y109497D01*
X656197Y109480D01*
X656155Y109467D01*
X656113Y109458D01*
X656069Y109452D01*
X656026Y109450D01*
D12*
X354000Y265000D02*
X347650Y265000D01*
X364160Y271350D02*
X364160Y258650D01*
X354000Y265000D01*
X369240Y265000D01*
X364160Y271350D02*
X354000Y265000D01*
X354000Y271350D01*
X354000Y265000D02*
X354000Y258650D01*
X374320Y275160D02*
X374420Y275158D01*
X374519Y275152D01*
X374619Y275142D01*
X374717Y275129D01*
X374816Y275111D01*
X374913Y275090D01*
X375009Y275065D01*
X375105Y275036D01*
X375199Y275003D01*
X375292Y274967D01*
X375383Y274927D01*
X375473Y274883D01*
X375561Y274836D01*
X375647Y274786D01*
X375731Y274732D01*
X375813Y274675D01*
X375892Y274615D01*
X375970Y274551D01*
X376044Y274485D01*
X376116Y274416D01*
X376185Y274344D01*
X376251Y274270D01*
X376315Y274192D01*
X376375Y274113D01*
X376432Y274031D01*
X376486Y273947D01*
X376536Y273861D01*
X376583Y273773D01*
X376627Y273683D01*
X376667Y273592D01*
X376703Y273499D01*
X376736Y273405D01*
X376765Y273309D01*
X376790Y273213D01*
X376811Y273116D01*
X376829Y273017D01*
X376842Y272919D01*
X376852Y272819D01*
X376858Y272720D01*
X376860Y272620D01*
X333680Y275160D02*
X333580Y275158D01*
X333481Y275152D01*
X333381Y275142D01*
X333283Y275129D01*
X333184Y275111D01*
X333087Y275090D01*
X332991Y275065D01*
X332895Y275036D01*
X332801Y275003D01*
X332708Y274967D01*
X332617Y274927D01*
X332527Y274883D01*
X332439Y274836D01*
X332353Y274786D01*
X332269Y274732D01*
X332187Y274675D01*
X332108Y274615D01*
X332030Y274551D01*
X331956Y274485D01*
X331884Y274416D01*
X331815Y274344D01*
X331749Y274270D01*
X331685Y274192D01*
X331625Y274113D01*
X331568Y274031D01*
X331514Y273947D01*
X331464Y273861D01*
X331417Y273773D01*
X331373Y273683D01*
X331333Y273592D01*
X331297Y273499D01*
X331264Y273405D01*
X331235Y273309D01*
X331210Y273213D01*
X331189Y273116D01*
X331171Y273017D01*
X331158Y272919D01*
X331148Y272819D01*
X331142Y272720D01*
X331140Y272620D01*
X331140Y257380D02*
X331142Y257280D01*
X331148Y257181D01*
X331158Y257081D01*
X331171Y256983D01*
X331189Y256884D01*
X331210Y256787D01*
X331235Y256691D01*
X331264Y256595D01*
X331297Y256501D01*
X331333Y256408D01*
X331373Y256317D01*
X331417Y256227D01*
X331464Y256139D01*
X331514Y256053D01*
X331568Y255969D01*
X331625Y255887D01*
X331685Y255808D01*
X331749Y255730D01*
X331815Y255656D01*
X331884Y255584D01*
X331956Y255515D01*
X332030Y255449D01*
X332108Y255385D01*
X332187Y255325D01*
X332269Y255268D01*
X332353Y255214D01*
X332439Y255164D01*
X332527Y255117D01*
X332617Y255073D01*
X332708Y255033D01*
X332801Y254997D01*
X332895Y254964D01*
X332991Y254935D01*
X333087Y254910D01*
X333184Y254889D01*
X333283Y254871D01*
X333381Y254858D01*
X333481Y254848D01*
X333580Y254842D01*
X333680Y254840D01*
X374320Y254840D02*
X374420Y254842D01*
X374519Y254848D01*
X374619Y254858D01*
X374717Y254871D01*
X374816Y254889D01*
X374913Y254910D01*
X375009Y254935D01*
X375105Y254964D01*
X375199Y254997D01*
X375292Y255033D01*
X375383Y255073D01*
X375473Y255117D01*
X375561Y255164D01*
X375647Y255214D01*
X375731Y255268D01*
X375813Y255325D01*
X375892Y255385D01*
X375970Y255449D01*
X376044Y255515D01*
X376116Y255584D01*
X376185Y255656D01*
X376251Y255730D01*
X376315Y255808D01*
X376375Y255887D01*
X376432Y255969D01*
X376486Y256053D01*
X376536Y256139D01*
X376583Y256227D01*
X376627Y256317D01*
X376667Y256408D01*
X376703Y256501D01*
X376736Y256595D01*
X376765Y256691D01*
X376790Y256787D01*
X376811Y256884D01*
X376829Y256983D01*
X376842Y257081D01*
X376852Y257181D01*
X376858Y257280D01*
X376860Y257380D01*
X376860Y272620D01*
X331140Y272620D02*
X331140Y257380D01*
X333680Y275160D02*
X374320Y275160D01*
X374320Y254840D02*
X333680Y254840D01*
D13*
X337490Y265000D03*
D14*
X386385Y265000D03*
X321615Y265000D03*
D15*
X333045Y278335D02*
X333045Y289765D01*
X336220Y289765D01*
X336331Y289763D01*
X336441Y289757D01*
X336552Y289748D01*
X336662Y289734D01*
X336771Y289717D01*
X336880Y289696D01*
X336988Y289671D01*
X337095Y289642D01*
X337201Y289610D01*
X337306Y289574D01*
X337409Y289534D01*
X337511Y289491D01*
X337612Y289444D01*
X337711Y289393D01*
X337808Y289340D01*
X337902Y289283D01*
X337995Y289222D01*
X338086Y289159D01*
X338175Y289092D01*
X338261Y289022D01*
X338344Y288949D01*
X338426Y288874D01*
X338504Y288796D01*
X338579Y288714D01*
X338652Y288631D01*
X338722Y288545D01*
X338789Y288456D01*
X338852Y288365D01*
X338913Y288272D01*
X338970Y288178D01*
X339023Y288081D01*
X339074Y287982D01*
X339121Y287881D01*
X339164Y287779D01*
X339204Y287676D01*
X339240Y287571D01*
X339272Y287465D01*
X339301Y287358D01*
X339326Y287250D01*
X339347Y287141D01*
X339364Y287032D01*
X339378Y286922D01*
X339387Y286811D01*
X339393Y286701D01*
X339395Y286590D01*
X339395Y281510D01*
X339393Y281399D01*
X339387Y281289D01*
X339378Y281178D01*
X339364Y281068D01*
X339347Y280959D01*
X339326Y280850D01*
X339301Y280742D01*
X339272Y280635D01*
X339240Y280529D01*
X339204Y280424D01*
X339164Y280321D01*
X339121Y280219D01*
X339074Y280118D01*
X339023Y280019D01*
X338970Y279922D01*
X338913Y279828D01*
X338852Y279735D01*
X338789Y279644D01*
X338722Y279555D01*
X338652Y279469D01*
X338579Y279386D01*
X338504Y279304D01*
X338426Y279226D01*
X338344Y279151D01*
X338261Y279078D01*
X338175Y279008D01*
X338086Y278941D01*
X337995Y278878D01*
X337902Y278817D01*
X337808Y278760D01*
X337711Y278707D01*
X337612Y278656D01*
X337511Y278609D01*
X337409Y278566D01*
X337306Y278526D01*
X337201Y278490D01*
X337095Y278458D01*
X336988Y278429D01*
X336880Y278404D01*
X336771Y278383D01*
X336662Y278366D01*
X336552Y278352D01*
X336441Y278343D01*
X336331Y278337D01*
X336220Y278335D01*
X333045Y278335D01*
X344856Y287225D02*
X348031Y289765D01*
X348031Y278335D01*
X344856Y278335D02*
X351206Y278335D01*
D12*
X302000Y707600D02*
X295650Y707600D01*
X312160Y713950D02*
X312160Y701250D01*
X302000Y707600D01*
X317240Y707600D01*
X312160Y713950D02*
X302000Y707600D01*
X302000Y713950D01*
X302000Y707600D02*
X302000Y701250D01*
X322320Y717760D02*
X322420Y717758D01*
X322519Y717752D01*
X322619Y717742D01*
X322717Y717729D01*
X322816Y717711D01*
X322913Y717690D01*
X323009Y717665D01*
X323105Y717636D01*
X323199Y717603D01*
X323292Y717567D01*
X323383Y717527D01*
X323473Y717483D01*
X323561Y717436D01*
X323647Y717386D01*
X323731Y717332D01*
X323813Y717275D01*
X323892Y717215D01*
X323970Y717151D01*
X324044Y717085D01*
X324116Y717016D01*
X324185Y716944D01*
X324251Y716870D01*
X324315Y716792D01*
X324375Y716713D01*
X324432Y716631D01*
X324486Y716547D01*
X324536Y716461D01*
X324583Y716373D01*
X324627Y716283D01*
X324667Y716192D01*
X324703Y716099D01*
X324736Y716005D01*
X324765Y715909D01*
X324790Y715813D01*
X324811Y715716D01*
X324829Y715617D01*
X324842Y715519D01*
X324852Y715419D01*
X324858Y715320D01*
X324860Y715220D01*
X281680Y717760D02*
X281580Y717758D01*
X281481Y717752D01*
X281381Y717742D01*
X281283Y717729D01*
X281184Y717711D01*
X281087Y717690D01*
X280991Y717665D01*
X280895Y717636D01*
X280801Y717603D01*
X280708Y717567D01*
X280617Y717527D01*
X280527Y717483D01*
X280439Y717436D01*
X280353Y717386D01*
X280269Y717332D01*
X280187Y717275D01*
X280108Y717215D01*
X280030Y717151D01*
X279956Y717085D01*
X279884Y717016D01*
X279815Y716944D01*
X279749Y716870D01*
X279685Y716792D01*
X279625Y716713D01*
X279568Y716631D01*
X279514Y716547D01*
X279464Y716461D01*
X279417Y716373D01*
X279373Y716283D01*
X279333Y716192D01*
X279297Y716099D01*
X279264Y716005D01*
X279235Y715909D01*
X279210Y715813D01*
X279189Y715716D01*
X279171Y715617D01*
X279158Y715519D01*
X279148Y715419D01*
X279142Y715320D01*
X279140Y715220D01*
X279140Y699980D02*
X279142Y699880D01*
X279148Y699781D01*
X279158Y699681D01*
X279171Y699583D01*
X279189Y699484D01*
X279210Y699387D01*
X279235Y699291D01*
X279264Y699195D01*
X279297Y699101D01*
X279333Y699008D01*
X279373Y698917D01*
X279417Y698827D01*
X279464Y698739D01*
X279514Y698653D01*
X279568Y698569D01*
X279625Y698487D01*
X279685Y698408D01*
X279749Y698330D01*
X279815Y698256D01*
X279884Y698184D01*
X279956Y698115D01*
X280030Y698049D01*
X280108Y697985D01*
X280187Y697925D01*
X280269Y697868D01*
X280353Y697814D01*
X280439Y697764D01*
X280527Y697717D01*
X280617Y697673D01*
X280708Y697633D01*
X280801Y697597D01*
X280895Y697564D01*
X280991Y697535D01*
X281087Y697510D01*
X281184Y697489D01*
X281283Y697471D01*
X281381Y697458D01*
X281481Y697448D01*
X281580Y697442D01*
X281680Y697440D01*
X322320Y697440D02*
X322420Y697442D01*
X322519Y697448D01*
X322619Y697458D01*
X322717Y697471D01*
X322816Y697489D01*
X322913Y697510D01*
X323009Y697535D01*
X323105Y697564D01*
X323199Y697597D01*
X323292Y697633D01*
X323383Y697673D01*
X323473Y697717D01*
X323561Y697764D01*
X323647Y697814D01*
X323731Y697868D01*
X323813Y697925D01*
X323892Y697985D01*
X323970Y698049D01*
X324044Y698115D01*
X324116Y698184D01*
X324185Y698256D01*
X324251Y698330D01*
X324315Y698408D01*
X324375Y698487D01*
X324432Y698569D01*
X324486Y698653D01*
X324536Y698739D01*
X324583Y698827D01*
X324627Y698917D01*
X324667Y699008D01*
X324703Y699101D01*
X324736Y699195D01*
X324765Y699291D01*
X324790Y699387D01*
X324811Y699484D01*
X324829Y699583D01*
X324842Y699681D01*
X324852Y699781D01*
X324858Y699880D01*
X324860Y699980D01*
X324860Y715220D01*
X279140Y715220D02*
X279140Y699980D01*
X281680Y717760D02*
X322320Y717760D01*
X322320Y697440D02*
X281680Y697440D01*
D13*
X285490Y707600D03*
D14*
X334385Y707600D03*
X269615Y707600D03*
D15*
X283045Y695365D02*
X283045Y683935D01*
X283045Y695365D02*
X286220Y695365D01*
X286331Y695363D01*
X286441Y695357D01*
X286552Y695348D01*
X286662Y695334D01*
X286771Y695317D01*
X286880Y695296D01*
X286988Y695271D01*
X287095Y695242D01*
X287201Y695210D01*
X287306Y695174D01*
X287409Y695134D01*
X287511Y695091D01*
X287612Y695044D01*
X287711Y694993D01*
X287808Y694940D01*
X287902Y694883D01*
X287995Y694822D01*
X288086Y694759D01*
X288175Y694692D01*
X288261Y694622D01*
X288344Y694549D01*
X288426Y694474D01*
X288504Y694396D01*
X288579Y694314D01*
X288652Y694231D01*
X288722Y694145D01*
X288789Y694056D01*
X288852Y693965D01*
X288913Y693872D01*
X288970Y693778D01*
X289023Y693681D01*
X289074Y693582D01*
X289121Y693481D01*
X289164Y693379D01*
X289204Y693276D01*
X289240Y693171D01*
X289272Y693065D01*
X289301Y692958D01*
X289326Y692850D01*
X289347Y692741D01*
X289364Y692632D01*
X289378Y692522D01*
X289387Y692411D01*
X289393Y692301D01*
X289395Y692190D01*
X289395Y687110D01*
X289393Y686999D01*
X289387Y686889D01*
X289378Y686778D01*
X289364Y686668D01*
X289347Y686559D01*
X289326Y686450D01*
X289301Y686342D01*
X289272Y686235D01*
X289240Y686129D01*
X289204Y686024D01*
X289164Y685921D01*
X289121Y685819D01*
X289074Y685718D01*
X289023Y685619D01*
X288970Y685523D01*
X288913Y685428D01*
X288852Y685335D01*
X288789Y685244D01*
X288722Y685155D01*
X288652Y685069D01*
X288579Y684986D01*
X288504Y684904D01*
X288426Y684826D01*
X288344Y684751D01*
X288261Y684678D01*
X288175Y684608D01*
X288086Y684541D01*
X287995Y684478D01*
X287902Y684417D01*
X287808Y684360D01*
X287711Y684307D01*
X287612Y684256D01*
X287511Y684209D01*
X287409Y684166D01*
X287306Y684126D01*
X287201Y684090D01*
X287095Y684058D01*
X286988Y684029D01*
X286880Y684004D01*
X286771Y683983D01*
X286662Y683966D01*
X286552Y683952D01*
X286441Y683943D01*
X286331Y683937D01*
X286220Y683935D01*
X283045Y683935D01*
X298349Y695366D02*
X298453Y695364D01*
X298558Y695358D01*
X298662Y695349D01*
X298765Y695336D01*
X298868Y695318D01*
X298970Y695298D01*
X299072Y695273D01*
X299172Y695245D01*
X299272Y695213D01*
X299370Y695177D01*
X299467Y695138D01*
X299562Y695096D01*
X299656Y695050D01*
X299748Y695000D01*
X299838Y694948D01*
X299926Y694892D01*
X300012Y694832D01*
X300096Y694770D01*
X300177Y694705D01*
X300256Y694637D01*
X300333Y694565D01*
X300406Y694492D01*
X300478Y694415D01*
X300546Y694336D01*
X300611Y694255D01*
X300673Y694171D01*
X300733Y694085D01*
X300789Y693997D01*
X300841Y693907D01*
X300891Y693815D01*
X300937Y693721D01*
X300979Y693626D01*
X301018Y693529D01*
X301054Y693431D01*
X301086Y693331D01*
X301114Y693231D01*
X301139Y693129D01*
X301159Y693027D01*
X301177Y692924D01*
X301190Y692821D01*
X301199Y692717D01*
X301205Y692612D01*
X301207Y692508D01*
X298349Y695365D02*
X298231Y695363D01*
X298112Y695357D01*
X297994Y695348D01*
X297877Y695335D01*
X297760Y695317D01*
X297643Y695297D01*
X297527Y695272D01*
X297412Y695244D01*
X297299Y695211D01*
X297186Y695176D01*
X297074Y695136D01*
X296964Y695094D01*
X296855Y695047D01*
X296747Y694997D01*
X296642Y694944D01*
X296538Y694887D01*
X296436Y694827D01*
X296336Y694764D01*
X296238Y694697D01*
X296142Y694628D01*
X296049Y694555D01*
X295958Y694479D01*
X295869Y694401D01*
X295783Y694319D01*
X295700Y694235D01*
X295619Y694149D01*
X295542Y694059D01*
X295467Y693968D01*
X295395Y693874D01*
X295326Y693777D01*
X295261Y693679D01*
X295198Y693578D01*
X295139Y693475D01*
X295083Y693371D01*
X295031Y693265D01*
X294982Y693157D01*
X294937Y693048D01*
X294895Y692937D01*
X294857Y692825D01*
X300254Y690286D02*
X300330Y690361D01*
X300405Y690440D01*
X300476Y690521D01*
X300545Y690605D01*
X300610Y690691D01*
X300672Y690779D01*
X300732Y690869D01*
X300788Y690961D01*
X300841Y691056D01*
X300890Y691152D01*
X300936Y691250D01*
X300979Y691349D01*
X301018Y691450D01*
X301053Y691552D01*
X301085Y691655D01*
X301113Y691759D01*
X301138Y691864D01*
X301159Y691971D01*
X301176Y692077D01*
X301189Y692184D01*
X301198Y692292D01*
X301204Y692400D01*
X301206Y692508D01*
X300254Y690285D02*
X294856Y683935D01*
X301206Y683935D01*
D12*
X302500Y730600D02*
X296150Y730600D01*
X312660Y736950D02*
X312660Y724250D01*
X302500Y730600D01*
X317740Y730600D01*
X312660Y736950D02*
X302500Y730600D01*
X302500Y736950D01*
X302500Y730600D02*
X302500Y724250D01*
X322820Y740760D02*
X322920Y740758D01*
X323019Y740752D01*
X323119Y740742D01*
X323217Y740729D01*
X323316Y740711D01*
X323413Y740690D01*
X323509Y740665D01*
X323605Y740636D01*
X323699Y740603D01*
X323792Y740567D01*
X323883Y740527D01*
X323973Y740483D01*
X324061Y740436D01*
X324147Y740386D01*
X324231Y740332D01*
X324313Y740275D01*
X324392Y740215D01*
X324470Y740151D01*
X324544Y740085D01*
X324616Y740016D01*
X324685Y739944D01*
X324751Y739870D01*
X324815Y739792D01*
X324875Y739713D01*
X324932Y739631D01*
X324986Y739547D01*
X325036Y739461D01*
X325083Y739373D01*
X325127Y739283D01*
X325167Y739192D01*
X325203Y739099D01*
X325236Y739005D01*
X325265Y738909D01*
X325290Y738813D01*
X325311Y738716D01*
X325329Y738617D01*
X325342Y738519D01*
X325352Y738419D01*
X325358Y738320D01*
X325360Y738220D01*
X282180Y740760D02*
X282080Y740758D01*
X281981Y740752D01*
X281881Y740742D01*
X281783Y740729D01*
X281684Y740711D01*
X281587Y740690D01*
X281491Y740665D01*
X281395Y740636D01*
X281301Y740603D01*
X281208Y740567D01*
X281117Y740527D01*
X281027Y740483D01*
X280939Y740436D01*
X280853Y740386D01*
X280769Y740332D01*
X280687Y740275D01*
X280608Y740215D01*
X280530Y740151D01*
X280456Y740085D01*
X280384Y740016D01*
X280315Y739944D01*
X280249Y739870D01*
X280185Y739792D01*
X280125Y739713D01*
X280068Y739631D01*
X280014Y739547D01*
X279964Y739461D01*
X279917Y739373D01*
X279873Y739283D01*
X279833Y739192D01*
X279797Y739099D01*
X279764Y739005D01*
X279735Y738909D01*
X279710Y738813D01*
X279689Y738716D01*
X279671Y738617D01*
X279658Y738519D01*
X279648Y738419D01*
X279642Y738320D01*
X279640Y738220D01*
X279640Y722980D02*
X279642Y722880D01*
X279648Y722781D01*
X279658Y722681D01*
X279671Y722583D01*
X279689Y722484D01*
X279710Y722387D01*
X279735Y722291D01*
X279764Y722195D01*
X279797Y722101D01*
X279833Y722008D01*
X279873Y721917D01*
X279917Y721827D01*
X279964Y721739D01*
X280014Y721653D01*
X280068Y721569D01*
X280125Y721487D01*
X280185Y721408D01*
X280249Y721330D01*
X280315Y721256D01*
X280384Y721184D01*
X280456Y721115D01*
X280530Y721049D01*
X280608Y720985D01*
X280687Y720925D01*
X280769Y720868D01*
X280853Y720814D01*
X280939Y720764D01*
X281027Y720717D01*
X281117Y720673D01*
X281208Y720633D01*
X281301Y720597D01*
X281395Y720564D01*
X281491Y720535D01*
X281587Y720510D01*
X281684Y720489D01*
X281783Y720471D01*
X281881Y720458D01*
X281981Y720448D01*
X282080Y720442D01*
X282180Y720440D01*
X322820Y720440D02*
X322920Y720442D01*
X323019Y720448D01*
X323119Y720458D01*
X323217Y720471D01*
X323316Y720489D01*
X323413Y720510D01*
X323509Y720535D01*
X323605Y720564D01*
X323699Y720597D01*
X323792Y720633D01*
X323883Y720673D01*
X323973Y720717D01*
X324061Y720764D01*
X324147Y720814D01*
X324231Y720868D01*
X324313Y720925D01*
X324392Y720985D01*
X324470Y721049D01*
X324544Y721115D01*
X324616Y721184D01*
X324685Y721256D01*
X324751Y721330D01*
X324815Y721408D01*
X324875Y721487D01*
X324932Y721569D01*
X324986Y721653D01*
X325036Y721739D01*
X325083Y721827D01*
X325127Y721917D01*
X325167Y722008D01*
X325203Y722101D01*
X325236Y722195D01*
X325265Y722291D01*
X325290Y722387D01*
X325311Y722484D01*
X325329Y722583D01*
X325342Y722681D01*
X325352Y722781D01*
X325358Y722880D01*
X325360Y722980D01*
X325360Y738220D01*
X279640Y738220D02*
X279640Y722980D01*
X282180Y740760D02*
X322820Y740760D01*
X322820Y720440D02*
X282180Y720440D01*
D13*
X285990Y730600D03*
D14*
X334885Y730600D03*
X270115Y730600D03*
D15*
X309545Y732935D02*
X309545Y744365D01*
X312720Y744365D01*
X312831Y744363D01*
X312941Y744357D01*
X313052Y744348D01*
X313162Y744334D01*
X313271Y744317D01*
X313380Y744296D01*
X313488Y744271D01*
X313595Y744242D01*
X313701Y744210D01*
X313806Y744174D01*
X313909Y744134D01*
X314011Y744091D01*
X314112Y744044D01*
X314211Y743993D01*
X314308Y743940D01*
X314402Y743883D01*
X314495Y743822D01*
X314586Y743759D01*
X314675Y743692D01*
X314761Y743622D01*
X314844Y743549D01*
X314926Y743474D01*
X315004Y743396D01*
X315079Y743314D01*
X315152Y743231D01*
X315222Y743145D01*
X315289Y743056D01*
X315352Y742965D01*
X315413Y742872D01*
X315470Y742778D01*
X315523Y742681D01*
X315574Y742582D01*
X315621Y742481D01*
X315664Y742379D01*
X315704Y742276D01*
X315740Y742171D01*
X315772Y742065D01*
X315801Y741958D01*
X315826Y741850D01*
X315847Y741741D01*
X315864Y741632D01*
X315878Y741522D01*
X315887Y741411D01*
X315893Y741301D01*
X315895Y741190D01*
X315895Y736110D01*
X315893Y735999D01*
X315887Y735889D01*
X315878Y735778D01*
X315864Y735668D01*
X315847Y735559D01*
X315826Y735450D01*
X315801Y735342D01*
X315772Y735235D01*
X315740Y735129D01*
X315704Y735024D01*
X315664Y734921D01*
X315621Y734819D01*
X315574Y734718D01*
X315523Y734619D01*
X315470Y734523D01*
X315413Y734428D01*
X315352Y734335D01*
X315289Y734244D01*
X315222Y734155D01*
X315152Y734069D01*
X315079Y733986D01*
X315004Y733904D01*
X314926Y733826D01*
X314844Y733751D01*
X314761Y733678D01*
X314675Y733608D01*
X314586Y733541D01*
X314495Y733478D01*
X314402Y733417D01*
X314308Y733360D01*
X314211Y733307D01*
X314112Y733256D01*
X314011Y733209D01*
X313909Y733166D01*
X313806Y733126D01*
X313701Y733090D01*
X313595Y733058D01*
X313488Y733029D01*
X313380Y733004D01*
X313271Y732983D01*
X313162Y732966D01*
X313052Y732952D01*
X312941Y732943D01*
X312831Y732937D01*
X312720Y732935D01*
X309545Y732935D01*
X321356Y732935D02*
X324531Y732935D01*
X324642Y732937D01*
X324752Y732943D01*
X324863Y732952D01*
X324973Y732966D01*
X325082Y732983D01*
X325191Y733004D01*
X325299Y733029D01*
X325406Y733058D01*
X325512Y733090D01*
X325617Y733126D01*
X325720Y733166D01*
X325822Y733209D01*
X325923Y733256D01*
X326022Y733307D01*
X326119Y733360D01*
X326213Y733417D01*
X326306Y733478D01*
X326397Y733541D01*
X326486Y733608D01*
X326572Y733678D01*
X326655Y733751D01*
X326737Y733826D01*
X326815Y733904D01*
X326890Y733986D01*
X326963Y734069D01*
X327033Y734155D01*
X327100Y734244D01*
X327163Y734335D01*
X327224Y734428D01*
X327281Y734523D01*
X327334Y734619D01*
X327385Y734718D01*
X327432Y734819D01*
X327475Y734921D01*
X327515Y735024D01*
X327551Y735129D01*
X327583Y735235D01*
X327612Y735342D01*
X327637Y735450D01*
X327658Y735559D01*
X327675Y735668D01*
X327689Y735778D01*
X327698Y735889D01*
X327704Y735999D01*
X327706Y736110D01*
X327704Y736221D01*
X327698Y736331D01*
X327689Y736442D01*
X327675Y736552D01*
X327658Y736661D01*
X327637Y736770D01*
X327612Y736878D01*
X327583Y736985D01*
X327551Y737091D01*
X327515Y737196D01*
X327475Y737299D01*
X327432Y737401D01*
X327385Y737502D01*
X327334Y737601D01*
X327281Y737697D01*
X327224Y737792D01*
X327163Y737885D01*
X327100Y737976D01*
X327033Y738065D01*
X326963Y738151D01*
X326890Y738234D01*
X326815Y738316D01*
X326737Y738394D01*
X326655Y738469D01*
X326572Y738542D01*
X326486Y738612D01*
X326397Y738679D01*
X326306Y738742D01*
X326213Y738803D01*
X326119Y738860D01*
X326022Y738913D01*
X325923Y738964D01*
X325822Y739011D01*
X325720Y739054D01*
X325617Y739094D01*
X325512Y739130D01*
X325406Y739162D01*
X325299Y739191D01*
X325191Y739216D01*
X325082Y739237D01*
X324973Y739254D01*
X324863Y739268D01*
X324752Y739277D01*
X324642Y739283D01*
X324531Y739285D01*
X325166Y744365D02*
X321356Y744365D01*
X325166Y744365D02*
X325266Y744363D01*
X325365Y744357D01*
X325465Y744347D01*
X325563Y744334D01*
X325662Y744316D01*
X325759Y744295D01*
X325855Y744270D01*
X325951Y744241D01*
X326045Y744208D01*
X326138Y744172D01*
X326229Y744132D01*
X326319Y744088D01*
X326407Y744041D01*
X326493Y743991D01*
X326577Y743937D01*
X326659Y743880D01*
X326738Y743820D01*
X326816Y743756D01*
X326890Y743690D01*
X326962Y743621D01*
X327031Y743549D01*
X327097Y743475D01*
X327161Y743397D01*
X327221Y743318D01*
X327278Y743236D01*
X327332Y743152D01*
X327382Y743066D01*
X327429Y742978D01*
X327473Y742888D01*
X327513Y742797D01*
X327549Y742704D01*
X327582Y742610D01*
X327611Y742514D01*
X327636Y742418D01*
X327657Y742321D01*
X327675Y742222D01*
X327688Y742124D01*
X327698Y742024D01*
X327704Y741925D01*
X327706Y741825D01*
X327704Y741725D01*
X327698Y741626D01*
X327688Y741526D01*
X327675Y741428D01*
X327657Y741329D01*
X327636Y741232D01*
X327611Y741136D01*
X327582Y741040D01*
X327549Y740946D01*
X327513Y740853D01*
X327473Y740762D01*
X327429Y740672D01*
X327382Y740584D01*
X327332Y740498D01*
X327278Y740414D01*
X327221Y740332D01*
X327161Y740253D01*
X327097Y740175D01*
X327031Y740101D01*
X326962Y740029D01*
X326890Y739960D01*
X326816Y739894D01*
X326738Y739830D01*
X326659Y739770D01*
X326577Y739713D01*
X326493Y739659D01*
X326407Y739609D01*
X326319Y739562D01*
X326229Y739518D01*
X326138Y739478D01*
X326045Y739442D01*
X325951Y739409D01*
X325855Y739380D01*
X325759Y739355D01*
X325662Y739334D01*
X325563Y739316D01*
X325465Y739303D01*
X325365Y739293D01*
X325266Y739287D01*
X325166Y739285D01*
X322626Y739285D01*
D12*
X304000Y753600D02*
X297650Y753600D01*
X314160Y759950D02*
X314160Y747250D01*
X304000Y753600D01*
X319240Y753600D01*
X314160Y759950D02*
X304000Y753600D01*
X304000Y759950D01*
X304000Y753600D02*
X304000Y747250D01*
X324320Y763760D02*
X324420Y763758D01*
X324519Y763752D01*
X324619Y763742D01*
X324717Y763729D01*
X324816Y763711D01*
X324913Y763690D01*
X325009Y763665D01*
X325105Y763636D01*
X325199Y763603D01*
X325292Y763567D01*
X325383Y763527D01*
X325473Y763483D01*
X325561Y763436D01*
X325647Y763386D01*
X325731Y763332D01*
X325813Y763275D01*
X325892Y763215D01*
X325970Y763151D01*
X326044Y763085D01*
X326116Y763016D01*
X326185Y762944D01*
X326251Y762870D01*
X326315Y762792D01*
X326375Y762713D01*
X326432Y762631D01*
X326486Y762547D01*
X326536Y762461D01*
X326583Y762373D01*
X326627Y762283D01*
X326667Y762192D01*
X326703Y762099D01*
X326736Y762005D01*
X326765Y761909D01*
X326790Y761813D01*
X326811Y761716D01*
X326829Y761617D01*
X326842Y761519D01*
X326852Y761419D01*
X326858Y761320D01*
X326860Y761220D01*
X283680Y763760D02*
X283580Y763758D01*
X283481Y763752D01*
X283381Y763742D01*
X283283Y763729D01*
X283184Y763711D01*
X283087Y763690D01*
X282991Y763665D01*
X282895Y763636D01*
X282801Y763603D01*
X282708Y763567D01*
X282617Y763527D01*
X282527Y763483D01*
X282439Y763436D01*
X282353Y763386D01*
X282269Y763332D01*
X282187Y763275D01*
X282108Y763215D01*
X282030Y763151D01*
X281956Y763085D01*
X281884Y763016D01*
X281815Y762944D01*
X281749Y762870D01*
X281685Y762792D01*
X281625Y762713D01*
X281568Y762631D01*
X281514Y762547D01*
X281464Y762461D01*
X281417Y762373D01*
X281373Y762283D01*
X281333Y762192D01*
X281297Y762099D01*
X281264Y762005D01*
X281235Y761909D01*
X281210Y761813D01*
X281189Y761716D01*
X281171Y761617D01*
X281158Y761519D01*
X281148Y761419D01*
X281142Y761320D01*
X281140Y761220D01*
X281140Y745980D02*
X281142Y745880D01*
X281148Y745781D01*
X281158Y745681D01*
X281171Y745583D01*
X281189Y745484D01*
X281210Y745387D01*
X281235Y745291D01*
X281264Y745195D01*
X281297Y745101D01*
X281333Y745008D01*
X281373Y744917D01*
X281417Y744827D01*
X281464Y744739D01*
X281514Y744653D01*
X281568Y744569D01*
X281625Y744487D01*
X281685Y744408D01*
X281749Y744330D01*
X281815Y744256D01*
X281884Y744184D01*
X281956Y744115D01*
X282030Y744049D01*
X282108Y743985D01*
X282187Y743925D01*
X282269Y743868D01*
X282353Y743814D01*
X282439Y743764D01*
X282527Y743717D01*
X282617Y743673D01*
X282708Y743633D01*
X282801Y743597D01*
X282895Y743564D01*
X282991Y743535D01*
X283087Y743510D01*
X283184Y743489D01*
X283283Y743471D01*
X283381Y743458D01*
X283481Y743448D01*
X283580Y743442D01*
X283680Y743440D01*
X324320Y743440D02*
X324420Y743442D01*
X324519Y743448D01*
X324619Y743458D01*
X324717Y743471D01*
X324816Y743489D01*
X324913Y743510D01*
X325009Y743535D01*
X325105Y743564D01*
X325199Y743597D01*
X325292Y743633D01*
X325383Y743673D01*
X325473Y743717D01*
X325561Y743764D01*
X325647Y743814D01*
X325731Y743868D01*
X325813Y743925D01*
X325892Y743985D01*
X325970Y744049D01*
X326044Y744115D01*
X326116Y744184D01*
X326185Y744256D01*
X326251Y744330D01*
X326315Y744408D01*
X326375Y744487D01*
X326432Y744569D01*
X326486Y744653D01*
X326536Y744739D01*
X326583Y744827D01*
X326627Y744917D01*
X326667Y745008D01*
X326703Y745101D01*
X326736Y745195D01*
X326765Y745291D01*
X326790Y745387D01*
X326811Y745484D01*
X326829Y745583D01*
X326842Y745681D01*
X326852Y745781D01*
X326858Y745880D01*
X326860Y745980D01*
X326860Y761220D01*
X281140Y761220D02*
X281140Y745980D01*
X283680Y763760D02*
X324320Y763760D01*
X324320Y743440D02*
X283680Y743440D01*
D13*
X287490Y753600D03*
D14*
X336385Y753600D03*
X271615Y753600D03*
D15*
X283045Y766935D02*
X283045Y778365D01*
X286220Y778365D01*
X286331Y778363D01*
X286441Y778357D01*
X286552Y778348D01*
X286662Y778334D01*
X286771Y778317D01*
X286880Y778296D01*
X286988Y778271D01*
X287095Y778242D01*
X287201Y778210D01*
X287306Y778174D01*
X287409Y778134D01*
X287511Y778091D01*
X287612Y778044D01*
X287711Y777993D01*
X287808Y777940D01*
X287902Y777883D01*
X287995Y777822D01*
X288086Y777759D01*
X288175Y777692D01*
X288261Y777622D01*
X288344Y777549D01*
X288426Y777474D01*
X288504Y777396D01*
X288579Y777314D01*
X288652Y777231D01*
X288722Y777145D01*
X288789Y777056D01*
X288852Y776965D01*
X288913Y776872D01*
X288970Y776778D01*
X289023Y776681D01*
X289074Y776582D01*
X289121Y776481D01*
X289164Y776379D01*
X289204Y776276D01*
X289240Y776171D01*
X289272Y776065D01*
X289301Y775958D01*
X289326Y775850D01*
X289347Y775741D01*
X289364Y775632D01*
X289378Y775522D01*
X289387Y775411D01*
X289393Y775301D01*
X289395Y775190D01*
X289395Y770110D01*
X289393Y769999D01*
X289387Y769889D01*
X289378Y769778D01*
X289364Y769668D01*
X289347Y769559D01*
X289326Y769450D01*
X289301Y769342D01*
X289272Y769235D01*
X289240Y769129D01*
X289204Y769024D01*
X289164Y768921D01*
X289121Y768819D01*
X289074Y768718D01*
X289023Y768619D01*
X288970Y768523D01*
X288913Y768428D01*
X288852Y768335D01*
X288789Y768244D01*
X288722Y768155D01*
X288652Y768069D01*
X288579Y767986D01*
X288504Y767904D01*
X288426Y767826D01*
X288344Y767751D01*
X288261Y767678D01*
X288175Y767608D01*
X288086Y767541D01*
X287995Y767478D01*
X287902Y767417D01*
X287808Y767360D01*
X287711Y767307D01*
X287612Y767256D01*
X287511Y767209D01*
X287409Y767166D01*
X287306Y767126D01*
X287201Y767090D01*
X287095Y767058D01*
X286988Y767029D01*
X286880Y767004D01*
X286771Y766983D01*
X286662Y766966D01*
X286552Y766952D01*
X286441Y766943D01*
X286331Y766937D01*
X286220Y766935D01*
X283045Y766935D01*
X294856Y769475D02*
X297396Y778365D01*
X294856Y769475D02*
X301206Y769475D01*
X299301Y772015D02*
X299301Y766935D01*
D10*
X543800Y560500D02*
X543800Y556500D01*
X541800Y556500D01*
X541800Y560500D01*
X543800Y560500D01*
D16*
X541300Y558795D02*
X540300Y558795D01*
X540300Y559240D01*
X540744Y559240D02*
X540744Y558795D01*
X540744Y559581D02*
X540744Y559859D01*
X540746Y559891D01*
X540751Y559923D01*
X540761Y559954D01*
X540774Y559984D01*
X540790Y560012D01*
X540809Y560038D01*
X540831Y560061D01*
X540856Y560082D01*
X540883Y560100D01*
X540912Y560114D01*
X540942Y560125D01*
X540974Y560133D01*
X541006Y560137D01*
X541038Y560137D01*
X541070Y560133D01*
X541102Y560125D01*
X541132Y560114D01*
X541161Y560100D01*
X541188Y560082D01*
X541213Y560061D01*
X541235Y560038D01*
X541254Y560012D01*
X541270Y559984D01*
X541283Y559954D01*
X541293Y559923D01*
X541298Y559891D01*
X541300Y559859D01*
X541300Y559581D01*
X540300Y559581D01*
X540300Y559859D01*
X540302Y559888D01*
X540308Y559916D01*
X540317Y559944D01*
X540330Y559970D01*
X540346Y559994D01*
X540365Y560016D01*
X540387Y560035D01*
X540411Y560051D01*
X540437Y560064D01*
X540465Y560073D01*
X540493Y560079D01*
X540522Y560081D01*
X540551Y560079D01*
X540579Y560073D01*
X540607Y560064D01*
X540633Y560051D01*
X540657Y560035D01*
X540679Y560016D01*
X540698Y559994D01*
X540714Y559970D01*
X540727Y559944D01*
X540736Y559916D01*
X540742Y559888D01*
X540744Y559859D01*
X540300Y560750D02*
X540302Y560780D01*
X540307Y560810D01*
X540316Y560839D01*
X540329Y560866D01*
X540344Y560892D01*
X540363Y560916D01*
X540384Y560937D01*
X540408Y560956D01*
X540434Y560971D01*
X540461Y560984D01*
X540490Y560993D01*
X540520Y560998D01*
X540550Y561000D01*
X540300Y560750D02*
X540302Y560716D01*
X540307Y560683D01*
X540316Y560651D01*
X540328Y560619D01*
X540343Y560589D01*
X540361Y560561D01*
X540383Y560535D01*
X540406Y560511D01*
X540433Y560490D01*
X540461Y560472D01*
X540491Y560457D01*
X540522Y560445D01*
X540745Y560917D02*
X540722Y560938D01*
X540697Y560956D01*
X540670Y560972D01*
X540641Y560984D01*
X540612Y560993D01*
X540581Y560998D01*
X540550Y561000D01*
X540744Y560917D02*
X541300Y560444D01*
X541300Y561000D01*
D15*
X146800Y477700D02*
X146800Y377700D01*
X128800Y377700D01*
X128800Y477700D01*
X146800Y477700D01*
D17*
X126548Y415817D02*
X123054Y415817D01*
X126548Y415817D02*
X126608Y415815D01*
X126668Y415810D01*
X126728Y415801D01*
X126787Y415788D01*
X126845Y415772D01*
X126902Y415752D01*
X126958Y415729D01*
X127012Y415703D01*
X127064Y415673D01*
X127115Y415640D01*
X127163Y415605D01*
X127210Y415566D01*
X127254Y415525D01*
X127295Y415481D01*
X127334Y415434D01*
X127369Y415386D01*
X127402Y415335D01*
X127432Y415283D01*
X127458Y415229D01*
X127481Y415173D01*
X127501Y415116D01*
X127517Y415058D01*
X127530Y414999D01*
X127539Y414939D01*
X127544Y414879D01*
X127546Y414819D01*
X127546Y414320D01*
X123054Y419323D02*
X123056Y419388D01*
X123062Y419453D01*
X123071Y419518D01*
X123084Y419582D01*
X123101Y419645D01*
X123122Y419707D01*
X123146Y419768D01*
X123173Y419827D01*
X123204Y419885D01*
X123239Y419940D01*
X123276Y419994D01*
X123317Y420045D01*
X123360Y420094D01*
X123406Y420140D01*
X123455Y420183D01*
X123506Y420224D01*
X123560Y420261D01*
X123616Y420296D01*
X123673Y420327D01*
X123732Y420354D01*
X123793Y420378D01*
X123855Y420399D01*
X123918Y420416D01*
X123982Y420429D01*
X124047Y420438D01*
X124112Y420444D01*
X124177Y420446D01*
X123054Y419323D02*
X123056Y419250D01*
X123061Y419178D01*
X123070Y419106D01*
X123083Y419035D01*
X123099Y418964D01*
X123119Y418894D01*
X123143Y418825D01*
X123169Y418758D01*
X123199Y418692D01*
X123233Y418627D01*
X123269Y418565D01*
X123309Y418504D01*
X123352Y418445D01*
X123397Y418389D01*
X123446Y418335D01*
X123497Y418283D01*
X123550Y418234D01*
X123606Y418188D01*
X123664Y418144D01*
X123725Y418104D01*
X123787Y418067D01*
X123851Y418033D01*
X123917Y418002D01*
X123984Y417974D01*
X124052Y417950D01*
X125050Y420072D02*
X125004Y420118D01*
X124956Y420161D01*
X124905Y420202D01*
X124852Y420240D01*
X124797Y420275D01*
X124740Y420306D01*
X124682Y420335D01*
X124622Y420361D01*
X124561Y420383D01*
X124499Y420402D01*
X124435Y420418D01*
X124371Y420430D01*
X124307Y420439D01*
X124242Y420444D01*
X124177Y420446D01*
X125050Y420072D02*
X127546Y417950D01*
X127546Y420446D01*
D15*
X698500Y123800D02*
X798500Y123800D01*
X798500Y105800D01*
X698500Y105800D01*
X698500Y123800D01*
D17*
X757251Y104546D02*
X757251Y101052D01*
X757249Y100989D01*
X757243Y100927D01*
X757233Y100865D01*
X757220Y100804D01*
X757202Y100744D01*
X757181Y100685D01*
X757156Y100627D01*
X757128Y100571D01*
X757096Y100517D01*
X757060Y100465D01*
X757022Y100416D01*
X756981Y100369D01*
X756936Y100325D01*
X756889Y100283D01*
X756840Y100245D01*
X756788Y100209D01*
X756734Y100177D01*
X756678Y100149D01*
X756620Y100124D01*
X756561Y100103D01*
X756501Y100085D01*
X756440Y100072D01*
X756378Y100062D01*
X756316Y100056D01*
X756253Y100054D01*
X755754Y100054D01*
X759385Y100054D02*
X760633Y100054D01*
X760702Y100056D01*
X760770Y100062D01*
X760838Y100071D01*
X760906Y100084D01*
X760973Y100101D01*
X761038Y100122D01*
X761103Y100146D01*
X761166Y100173D01*
X761227Y100204D01*
X761287Y100239D01*
X761344Y100276D01*
X761400Y100317D01*
X761453Y100361D01*
X761503Y100407D01*
X761551Y100457D01*
X761596Y100509D01*
X761639Y100563D01*
X761678Y100619D01*
X761714Y100678D01*
X761747Y100738D01*
X761776Y100801D01*
X761802Y100864D01*
X761824Y100929D01*
X761843Y100996D01*
X761858Y101063D01*
X761869Y101131D01*
X761877Y101199D01*
X761881Y101268D01*
X761881Y101336D01*
X761877Y101405D01*
X761869Y101473D01*
X761858Y101541D01*
X761843Y101608D01*
X761824Y101675D01*
X761802Y101740D01*
X761776Y101803D01*
X761747Y101866D01*
X761714Y101926D01*
X761678Y101985D01*
X761639Y102041D01*
X761596Y102095D01*
X761551Y102147D01*
X761503Y102197D01*
X761453Y102243D01*
X761400Y102287D01*
X761344Y102328D01*
X761287Y102365D01*
X761227Y102400D01*
X761166Y102431D01*
X761103Y102458D01*
X761038Y102482D01*
X760973Y102503D01*
X760906Y102520D01*
X760838Y102533D01*
X760770Y102542D01*
X760702Y102548D01*
X760633Y102550D01*
X760882Y104546D02*
X759385Y104546D01*
X760882Y104546D02*
X760943Y104544D01*
X761005Y104538D01*
X761065Y104529D01*
X761125Y104516D01*
X761185Y104499D01*
X761243Y104479D01*
X761299Y104455D01*
X761354Y104427D01*
X761407Y104397D01*
X761459Y104363D01*
X761508Y104326D01*
X761554Y104286D01*
X761598Y104243D01*
X761640Y104197D01*
X761678Y104149D01*
X761714Y104099D01*
X761746Y104047D01*
X761775Y103993D01*
X761801Y103937D01*
X761823Y103880D01*
X761842Y103821D01*
X761857Y103762D01*
X761868Y103701D01*
X761876Y103640D01*
X761880Y103579D01*
X761880Y103517D01*
X761876Y103456D01*
X761868Y103395D01*
X761857Y103334D01*
X761842Y103275D01*
X761823Y103216D01*
X761801Y103159D01*
X761775Y103103D01*
X761746Y103049D01*
X761714Y102997D01*
X761678Y102947D01*
X761640Y102899D01*
X761598Y102853D01*
X761554Y102810D01*
X761508Y102770D01*
X761459Y102733D01*
X761407Y102699D01*
X761354Y102669D01*
X761299Y102641D01*
X761243Y102617D01*
X761185Y102597D01*
X761125Y102580D01*
X761065Y102567D01*
X761005Y102558D01*
X760943Y102552D01*
X760882Y102550D01*
X759884Y102550D01*
D15*
X400800Y126800D02*
X300800Y126800D01*
X400800Y126800D02*
X400800Y108800D01*
X300800Y108800D01*
X300800Y126800D01*
D17*
X359551Y107546D02*
X359551Y104052D01*
X359549Y103989D01*
X359543Y103927D01*
X359533Y103865D01*
X359520Y103804D01*
X359502Y103744D01*
X359481Y103685D01*
X359456Y103627D01*
X359428Y103571D01*
X359396Y103517D01*
X359360Y103465D01*
X359322Y103416D01*
X359281Y103369D01*
X359236Y103325D01*
X359189Y103283D01*
X359140Y103245D01*
X359088Y103209D01*
X359034Y103177D01*
X358978Y103149D01*
X358920Y103124D01*
X358861Y103103D01*
X358801Y103085D01*
X358740Y103072D01*
X358678Y103062D01*
X358616Y103056D01*
X358553Y103054D01*
X358054Y103054D01*
X361685Y104052D02*
X362683Y107546D01*
X361685Y104052D02*
X364181Y104052D01*
X363432Y105050D02*
X363432Y103054D01*
D18*
X127300Y82400D03*
D10*
X127344Y82402D01*
X127387Y82408D01*
X127429Y82417D01*
X127471Y82430D01*
X127511Y82447D01*
X127550Y82467D01*
X127587Y82490D01*
X127621Y82517D01*
X127654Y82546D01*
X127683Y82579D01*
X127710Y82613D01*
X127733Y82650D01*
X127753Y82689D01*
X127770Y82729D01*
X127783Y82771D01*
X127792Y82813D01*
X127798Y82856D01*
X127800Y82900D01*
X127798Y82944D01*
X127792Y82987D01*
X127783Y83029D01*
X127770Y83071D01*
X127753Y83111D01*
X127733Y83150D01*
X127710Y83187D01*
X127683Y83221D01*
X127654Y83254D01*
X127621Y83283D01*
X127587Y83310D01*
X127550Y83333D01*
X127511Y83353D01*
X127471Y83370D01*
X127429Y83383D01*
X127387Y83392D01*
X127344Y83398D01*
X127300Y83400D01*
D18*
X127300Y83400D03*
D10*
X127256Y83398D01*
X127213Y83392D01*
X127171Y83383D01*
X127129Y83370D01*
X127089Y83353D01*
X127050Y83333D01*
X127013Y83310D01*
X126979Y83283D01*
X126946Y83254D01*
X126917Y83221D01*
X126890Y83187D01*
X126867Y83150D01*
X126847Y83111D01*
X126830Y83071D01*
X126817Y83029D01*
X126808Y82987D01*
X126802Y82944D01*
X126800Y82900D01*
X126802Y82856D01*
X126808Y82813D01*
X126817Y82771D01*
X126830Y82729D01*
X126847Y82689D01*
X126867Y82650D01*
X126890Y82613D01*
X126917Y82579D01*
X126946Y82546D01*
X126979Y82517D01*
X127013Y82490D01*
X127050Y82467D01*
X127089Y82447D01*
X127129Y82430D01*
X127171Y82417D01*
X127213Y82408D01*
X127256Y82402D01*
X127300Y82400D01*
D19*
X121300Y188400D02*
X112300Y188400D01*
X112300Y157400D01*
X112300Y90400D02*
X211300Y90400D01*
X112300Y90400D02*
X112300Y127400D01*
X154300Y188400D02*
X211300Y188400D01*
X244300Y188400D02*
X259300Y188400D01*
X259300Y90400D01*
X241300Y90400D01*
X112300Y163900D02*
X75300Y163900D01*
X75300Y103900D01*
X112300Y103900D01*
D20*
X163365Y138654D02*
X163365Y147742D01*
X163365Y138654D02*
X163363Y138555D01*
X163357Y138455D01*
X163348Y138356D01*
X163335Y138258D01*
X163318Y138160D01*
X163297Y138062D01*
X163272Y137966D01*
X163244Y137871D01*
X163212Y137777D01*
X163177Y137684D01*
X163138Y137592D01*
X163095Y137502D01*
X163050Y137414D01*
X163000Y137327D01*
X162948Y137243D01*
X162892Y137160D01*
X162834Y137080D01*
X162772Y137002D01*
X162707Y136927D01*
X162639Y136854D01*
X162569Y136784D01*
X162496Y136716D01*
X162421Y136651D01*
X162343Y136589D01*
X162263Y136531D01*
X162180Y136475D01*
X162096Y136423D01*
X162009Y136373D01*
X161921Y136328D01*
X161831Y136285D01*
X161739Y136246D01*
X161646Y136211D01*
X161552Y136179D01*
X161457Y136151D01*
X161361Y136126D01*
X161263Y136105D01*
X161165Y136088D01*
X161067Y136075D01*
X160968Y136066D01*
X160868Y136060D01*
X160769Y136058D01*
X159470Y136058D01*
X168638Y136058D02*
X172533Y136058D01*
X172632Y136060D01*
X172732Y136066D01*
X172831Y136075D01*
X172929Y136088D01*
X173027Y136105D01*
X173125Y136126D01*
X173221Y136151D01*
X173316Y136179D01*
X173410Y136211D01*
X173503Y136246D01*
X173595Y136285D01*
X173685Y136328D01*
X173773Y136373D01*
X173860Y136423D01*
X173944Y136475D01*
X174027Y136531D01*
X174107Y136589D01*
X174185Y136651D01*
X174260Y136716D01*
X174333Y136784D01*
X174403Y136854D01*
X174471Y136927D01*
X174536Y137002D01*
X174598Y137080D01*
X174656Y137160D01*
X174712Y137243D01*
X174764Y137327D01*
X174814Y137414D01*
X174859Y137502D01*
X174902Y137592D01*
X174941Y137684D01*
X174976Y137777D01*
X175008Y137871D01*
X175036Y137966D01*
X175061Y138062D01*
X175082Y138160D01*
X175099Y138258D01*
X175112Y138356D01*
X175121Y138455D01*
X175127Y138555D01*
X175129Y138654D01*
X175130Y138654D02*
X175130Y139953D01*
X175129Y139953D02*
X175127Y140052D01*
X175121Y140152D01*
X175112Y140251D01*
X175099Y140349D01*
X175082Y140447D01*
X175061Y140545D01*
X175036Y140641D01*
X175008Y140736D01*
X174976Y140830D01*
X174941Y140923D01*
X174902Y141015D01*
X174859Y141105D01*
X174814Y141193D01*
X174764Y141280D01*
X174712Y141364D01*
X174656Y141447D01*
X174598Y141527D01*
X174536Y141605D01*
X174471Y141680D01*
X174403Y141753D01*
X174333Y141823D01*
X174260Y141891D01*
X174185Y141956D01*
X174107Y142018D01*
X174027Y142076D01*
X173944Y142132D01*
X173860Y142184D01*
X173773Y142234D01*
X173685Y142279D01*
X173595Y142322D01*
X173503Y142361D01*
X173410Y142396D01*
X173316Y142428D01*
X173221Y142456D01*
X173125Y142481D01*
X173027Y142502D01*
X172929Y142519D01*
X172831Y142532D01*
X172732Y142541D01*
X172632Y142547D01*
X172533Y142549D01*
X168638Y142549D01*
X168638Y147742D01*
X175130Y147742D01*
D21*
X265355Y772434D02*
X265355Y779619D01*
X265355Y772434D02*
X265353Y772344D01*
X265347Y772255D01*
X265337Y772166D01*
X265324Y772078D01*
X265306Y771990D01*
X265285Y771903D01*
X265260Y771817D01*
X265231Y771732D01*
X265199Y771648D01*
X265163Y771566D01*
X265123Y771486D01*
X265080Y771408D01*
X265033Y771331D01*
X264984Y771256D01*
X264931Y771184D01*
X264875Y771114D01*
X264816Y771047D01*
X264754Y770982D01*
X264689Y770920D01*
X264622Y770861D01*
X264552Y770805D01*
X264480Y770752D01*
X264405Y770703D01*
X264329Y770656D01*
X264250Y770613D01*
X264170Y770573D01*
X264088Y770537D01*
X264004Y770505D01*
X263919Y770476D01*
X263833Y770451D01*
X263746Y770430D01*
X263658Y770412D01*
X263570Y770399D01*
X263481Y770389D01*
X263392Y770383D01*
X263302Y770381D01*
X262275Y770381D01*
X269487Y775513D02*
X272566Y775513D01*
X272656Y775511D01*
X272745Y775505D01*
X272834Y775495D01*
X272922Y775482D01*
X273010Y775464D01*
X273097Y775443D01*
X273183Y775418D01*
X273268Y775389D01*
X273352Y775357D01*
X273434Y775321D01*
X273514Y775281D01*
X273593Y775238D01*
X273669Y775191D01*
X273744Y775142D01*
X273816Y775089D01*
X273886Y775033D01*
X273953Y774974D01*
X274018Y774912D01*
X274080Y774847D01*
X274139Y774780D01*
X274195Y774710D01*
X274248Y774638D01*
X274297Y774563D01*
X274344Y774487D01*
X274387Y774408D01*
X274427Y774328D01*
X274463Y774246D01*
X274495Y774162D01*
X274524Y774077D01*
X274549Y773991D01*
X274570Y773904D01*
X274588Y773816D01*
X274601Y773728D01*
X274611Y773639D01*
X274617Y773550D01*
X274619Y773460D01*
X274619Y772947D01*
X274617Y772848D01*
X274611Y772748D01*
X274602Y772649D01*
X274588Y772551D01*
X274571Y772453D01*
X274550Y772355D01*
X274525Y772259D01*
X274496Y772164D01*
X274464Y772069D01*
X274428Y771977D01*
X274389Y771885D01*
X274346Y771795D01*
X274300Y771707D01*
X274250Y771621D01*
X274197Y771537D01*
X274141Y771455D01*
X274081Y771375D01*
X274019Y771298D01*
X273953Y771223D01*
X273885Y771150D01*
X273814Y771081D01*
X273740Y771014D01*
X273664Y770950D01*
X273585Y770889D01*
X273504Y770831D01*
X273421Y770776D01*
X273336Y770725D01*
X273249Y770677D01*
X273160Y770632D01*
X273069Y770591D01*
X272977Y770553D01*
X272884Y770519D01*
X272789Y770489D01*
X272693Y770462D01*
X272596Y770439D01*
X272499Y770420D01*
X272400Y770405D01*
X272301Y770393D01*
X272202Y770385D01*
X272103Y770381D01*
X272003Y770381D01*
X271904Y770385D01*
X271805Y770393D01*
X271706Y770405D01*
X271607Y770420D01*
X271510Y770439D01*
X271413Y770462D01*
X271317Y770489D01*
X271222Y770519D01*
X271129Y770553D01*
X271037Y770591D01*
X270946Y770632D01*
X270857Y770677D01*
X270770Y770725D01*
X270685Y770776D01*
X270602Y770831D01*
X270521Y770889D01*
X270442Y770950D01*
X270366Y771014D01*
X270292Y771081D01*
X270221Y771150D01*
X270153Y771223D01*
X270087Y771298D01*
X270025Y771375D01*
X269965Y771455D01*
X269909Y771537D01*
X269856Y771621D01*
X269806Y771707D01*
X269760Y771795D01*
X269717Y771885D01*
X269678Y771977D01*
X269642Y772069D01*
X269610Y772164D01*
X269581Y772259D01*
X269556Y772355D01*
X269535Y772453D01*
X269518Y772551D01*
X269504Y772649D01*
X269495Y772748D01*
X269489Y772848D01*
X269487Y772947D01*
X269487Y775513D01*
X269489Y775639D01*
X269495Y775766D01*
X269505Y775892D01*
X269518Y776018D01*
X269536Y776143D01*
X269557Y776267D01*
X269582Y776391D01*
X269611Y776515D01*
X269644Y776637D01*
X269680Y776758D01*
X269720Y776878D01*
X269764Y776996D01*
X269812Y777113D01*
X269863Y777229D01*
X269917Y777343D01*
X269976Y777456D01*
X270037Y777566D01*
X270102Y777675D01*
X270170Y777781D01*
X270242Y777885D01*
X270316Y777987D01*
X270394Y778087D01*
X270475Y778184D01*
X270559Y778279D01*
X270645Y778371D01*
X270735Y778461D01*
X270827Y778547D01*
X270922Y778631D01*
X271019Y778712D01*
X271119Y778790D01*
X271221Y778864D01*
X271325Y778936D01*
X271431Y779004D01*
X271540Y779069D01*
X271650Y779130D01*
X271763Y779189D01*
X271877Y779243D01*
X271993Y779294D01*
X272110Y779342D01*
X272228Y779386D01*
X272348Y779426D01*
X272469Y779462D01*
X272591Y779495D01*
X272715Y779524D01*
X272838Y779549D01*
X272963Y779570D01*
X273088Y779588D01*
X273214Y779601D01*
X273340Y779611D01*
X273467Y779617D01*
X273593Y779619D01*
D15*
X716300Y529100D02*
X716300Y516100D01*
X684900Y516100D02*
X684900Y529100D01*
D19*
X712600Y545100D02*
X712602Y545163D01*
X712608Y545225D01*
X712618Y545287D01*
X712631Y545349D01*
X712649Y545409D01*
X712670Y545468D01*
X712695Y545526D01*
X712724Y545582D01*
X712756Y545636D01*
X712791Y545688D01*
X712829Y545737D01*
X712871Y545785D01*
X712915Y545829D01*
X712963Y545871D01*
X713012Y545909D01*
X713064Y545944D01*
X713118Y545976D01*
X713174Y546005D01*
X713232Y546030D01*
X713291Y546051D01*
X713351Y546069D01*
X713413Y546082D01*
X713475Y546092D01*
X713537Y546098D01*
X713600Y546100D01*
X713663Y546098D01*
X713725Y546092D01*
X713787Y546082D01*
X713849Y546069D01*
X713909Y546051D01*
X713968Y546030D01*
X714026Y546005D01*
X714082Y545976D01*
X714136Y545944D01*
X714188Y545909D01*
X714237Y545871D01*
X714285Y545829D01*
X714329Y545785D01*
X714371Y545737D01*
X714409Y545688D01*
X714444Y545636D01*
X714476Y545582D01*
X714505Y545526D01*
X714530Y545468D01*
X714551Y545409D01*
X714569Y545349D01*
X714582Y545287D01*
X714592Y545225D01*
X714598Y545163D01*
X714600Y545100D01*
X714598Y545037D01*
X714592Y544975D01*
X714582Y544913D01*
X714569Y544851D01*
X714551Y544791D01*
X714530Y544732D01*
X714505Y544674D01*
X714476Y544618D01*
X714444Y544564D01*
X714409Y544512D01*
X714371Y544463D01*
X714329Y544415D01*
X714285Y544371D01*
X714237Y544329D01*
X714188Y544291D01*
X714136Y544256D01*
X714082Y544224D01*
X714026Y544195D01*
X713968Y544170D01*
X713909Y544149D01*
X713849Y544131D01*
X713787Y544118D01*
X713725Y544108D01*
X713663Y544102D01*
X713600Y544100D01*
X713537Y544102D01*
X713475Y544108D01*
X713413Y544118D01*
X713351Y544131D01*
X713291Y544149D01*
X713232Y544170D01*
X713174Y544195D01*
X713118Y544224D01*
X713064Y544256D01*
X713012Y544291D01*
X712963Y544329D01*
X712915Y544371D01*
X712871Y544415D01*
X712829Y544463D01*
X712791Y544512D01*
X712756Y544564D01*
X712724Y544618D01*
X712695Y544674D01*
X712670Y544732D01*
X712649Y544791D01*
X712631Y544851D01*
X712618Y544913D01*
X712608Y544975D01*
X712602Y545037D01*
X712600Y545100D01*
D15*
X716300Y516100D02*
X706800Y516100D01*
X694400Y516100D02*
X684900Y516100D01*
D21*
X723027Y531031D02*
X726301Y531031D01*
X723027Y531031D02*
X722938Y531033D01*
X722849Y531039D01*
X722760Y531049D01*
X722672Y531062D01*
X722584Y531079D01*
X722497Y531101D01*
X722412Y531126D01*
X722327Y531154D01*
X722244Y531187D01*
X722162Y531223D01*
X722082Y531262D01*
X722004Y531305D01*
X721928Y531351D01*
X721853Y531401D01*
X721781Y531454D01*
X721712Y531510D01*
X721645Y531569D01*
X721580Y531630D01*
X721519Y531695D01*
X721460Y531762D01*
X721404Y531831D01*
X721351Y531903D01*
X721301Y531978D01*
X721255Y532054D01*
X721212Y532132D01*
X721173Y532212D01*
X721137Y532294D01*
X721104Y532377D01*
X721076Y532462D01*
X721051Y532547D01*
X721029Y532634D01*
X721012Y532722D01*
X720999Y532810D01*
X720989Y532899D01*
X720983Y532988D01*
X720981Y533077D01*
X720983Y533166D01*
X720989Y533255D01*
X720999Y533344D01*
X721012Y533432D01*
X721029Y533520D01*
X721051Y533607D01*
X721076Y533692D01*
X721104Y533777D01*
X721137Y533860D01*
X721173Y533942D01*
X721212Y534022D01*
X721255Y534100D01*
X721301Y534176D01*
X721351Y534251D01*
X721404Y534323D01*
X721460Y534392D01*
X721519Y534459D01*
X721580Y534524D01*
X721645Y534585D01*
X721712Y534644D01*
X721781Y534700D01*
X721853Y534753D01*
X721928Y534803D01*
X722004Y534849D01*
X722082Y534892D01*
X722162Y534931D01*
X722244Y534967D01*
X722327Y535000D01*
X722412Y535028D01*
X722497Y535053D01*
X722584Y535075D01*
X722672Y535092D01*
X722760Y535105D01*
X722849Y535115D01*
X722938Y535121D01*
X723027Y535123D01*
X723027Y535124D02*
X726301Y535124D01*
X726301Y535123D02*
X726390Y535121D01*
X726479Y535115D01*
X726568Y535105D01*
X726656Y535092D01*
X726744Y535075D01*
X726831Y535053D01*
X726916Y535028D01*
X727001Y535000D01*
X727084Y534967D01*
X727166Y534931D01*
X727246Y534892D01*
X727324Y534849D01*
X727400Y534803D01*
X727475Y534753D01*
X727547Y534700D01*
X727616Y534644D01*
X727683Y534585D01*
X727748Y534524D01*
X727809Y534459D01*
X727868Y534392D01*
X727924Y534323D01*
X727977Y534251D01*
X728027Y534176D01*
X728073Y534100D01*
X728116Y534022D01*
X728155Y533942D01*
X728191Y533860D01*
X728224Y533777D01*
X728252Y533692D01*
X728277Y533607D01*
X728299Y533520D01*
X728316Y533432D01*
X728329Y533344D01*
X728339Y533255D01*
X728345Y533166D01*
X728347Y533077D01*
X728345Y532988D01*
X728339Y532899D01*
X728329Y532810D01*
X728316Y532722D01*
X728299Y532634D01*
X728277Y532547D01*
X728252Y532462D01*
X728224Y532377D01*
X728191Y532294D01*
X728155Y532212D01*
X728116Y532132D01*
X728073Y532054D01*
X728027Y531978D01*
X727977Y531903D01*
X727924Y531831D01*
X727868Y531762D01*
X727809Y531695D01*
X727748Y531630D01*
X727683Y531569D01*
X727616Y531510D01*
X727547Y531454D01*
X727475Y531401D01*
X727400Y531351D01*
X727324Y531305D01*
X727246Y531262D01*
X727166Y531223D01*
X727084Y531187D01*
X727001Y531154D01*
X726916Y531126D01*
X726831Y531101D01*
X726744Y531079D01*
X726656Y531062D01*
X726568Y531049D01*
X726479Y531039D01*
X726390Y531033D01*
X726301Y531031D01*
X726710Y534305D02*
X728347Y535942D01*
X722618Y538127D02*
X720981Y540173D01*
X728347Y540173D01*
X728347Y538127D02*
X728347Y542219D01*
D15*
X795300Y469900D02*
X795300Y456900D01*
X763900Y456900D02*
X763900Y469900D01*
D19*
X791600Y485900D02*
X791602Y485963D01*
X791608Y486025D01*
X791618Y486087D01*
X791631Y486149D01*
X791649Y486209D01*
X791670Y486268D01*
X791695Y486326D01*
X791724Y486382D01*
X791756Y486436D01*
X791791Y486488D01*
X791829Y486537D01*
X791871Y486585D01*
X791915Y486629D01*
X791963Y486671D01*
X792012Y486709D01*
X792064Y486744D01*
X792118Y486776D01*
X792174Y486805D01*
X792232Y486830D01*
X792291Y486851D01*
X792351Y486869D01*
X792413Y486882D01*
X792475Y486892D01*
X792537Y486898D01*
X792600Y486900D01*
X792663Y486898D01*
X792725Y486892D01*
X792787Y486882D01*
X792849Y486869D01*
X792909Y486851D01*
X792968Y486830D01*
X793026Y486805D01*
X793082Y486776D01*
X793136Y486744D01*
X793188Y486709D01*
X793237Y486671D01*
X793285Y486629D01*
X793329Y486585D01*
X793371Y486537D01*
X793409Y486488D01*
X793444Y486436D01*
X793476Y486382D01*
X793505Y486326D01*
X793530Y486268D01*
X793551Y486209D01*
X793569Y486149D01*
X793582Y486087D01*
X793592Y486025D01*
X793598Y485963D01*
X793600Y485900D01*
X793598Y485837D01*
X793592Y485775D01*
X793582Y485713D01*
X793569Y485651D01*
X793551Y485591D01*
X793530Y485532D01*
X793505Y485474D01*
X793476Y485418D01*
X793444Y485364D01*
X793409Y485312D01*
X793371Y485263D01*
X793329Y485215D01*
X793285Y485171D01*
X793237Y485129D01*
X793188Y485091D01*
X793136Y485056D01*
X793082Y485024D01*
X793026Y484995D01*
X792968Y484970D01*
X792909Y484949D01*
X792849Y484931D01*
X792787Y484918D01*
X792725Y484908D01*
X792663Y484902D01*
X792600Y484900D01*
X792537Y484902D01*
X792475Y484908D01*
X792413Y484918D01*
X792351Y484931D01*
X792291Y484949D01*
X792232Y484970D01*
X792174Y484995D01*
X792118Y485024D01*
X792064Y485056D01*
X792012Y485091D01*
X791963Y485129D01*
X791915Y485171D01*
X791871Y485215D01*
X791829Y485263D01*
X791791Y485312D01*
X791756Y485364D01*
X791724Y485418D01*
X791695Y485474D01*
X791670Y485532D01*
X791649Y485591D01*
X791631Y485651D01*
X791618Y485713D01*
X791608Y485775D01*
X791602Y485837D01*
X791600Y485900D01*
D15*
X795300Y456900D02*
X785800Y456900D01*
X773400Y456900D02*
X763900Y456900D01*
D21*
X802027Y471831D02*
X805301Y471831D01*
X802027Y471831D02*
X801938Y471833D01*
X801849Y471839D01*
X801760Y471849D01*
X801672Y471862D01*
X801584Y471879D01*
X801497Y471901D01*
X801412Y471926D01*
X801327Y471954D01*
X801244Y471987D01*
X801162Y472023D01*
X801082Y472062D01*
X801004Y472105D01*
X800928Y472151D01*
X800853Y472201D01*
X800781Y472254D01*
X800712Y472310D01*
X800645Y472369D01*
X800580Y472430D01*
X800519Y472495D01*
X800460Y472562D01*
X800404Y472631D01*
X800351Y472703D01*
X800301Y472778D01*
X800255Y472854D01*
X800212Y472932D01*
X800173Y473012D01*
X800137Y473094D01*
X800104Y473177D01*
X800076Y473262D01*
X800051Y473347D01*
X800029Y473434D01*
X800012Y473522D01*
X799999Y473610D01*
X799989Y473699D01*
X799983Y473788D01*
X799981Y473877D01*
X799983Y473966D01*
X799989Y474055D01*
X799999Y474144D01*
X800012Y474232D01*
X800029Y474320D01*
X800051Y474407D01*
X800076Y474492D01*
X800104Y474577D01*
X800137Y474660D01*
X800173Y474742D01*
X800212Y474822D01*
X800255Y474900D01*
X800301Y474976D01*
X800351Y475051D01*
X800404Y475123D01*
X800460Y475192D01*
X800519Y475259D01*
X800580Y475324D01*
X800645Y475385D01*
X800712Y475444D01*
X800781Y475500D01*
X800853Y475553D01*
X800928Y475603D01*
X801004Y475649D01*
X801082Y475692D01*
X801162Y475731D01*
X801244Y475767D01*
X801327Y475800D01*
X801412Y475828D01*
X801497Y475853D01*
X801584Y475875D01*
X801672Y475892D01*
X801760Y475905D01*
X801849Y475915D01*
X801938Y475921D01*
X802027Y475923D01*
X802027Y475924D02*
X805301Y475924D01*
X805301Y475923D02*
X805390Y475921D01*
X805479Y475915D01*
X805568Y475905D01*
X805656Y475892D01*
X805744Y475875D01*
X805831Y475853D01*
X805916Y475828D01*
X806001Y475800D01*
X806084Y475767D01*
X806166Y475731D01*
X806246Y475692D01*
X806324Y475649D01*
X806400Y475603D01*
X806475Y475553D01*
X806547Y475500D01*
X806616Y475444D01*
X806683Y475385D01*
X806748Y475324D01*
X806809Y475259D01*
X806868Y475192D01*
X806924Y475123D01*
X806977Y475051D01*
X807027Y474976D01*
X807073Y474900D01*
X807116Y474822D01*
X807155Y474742D01*
X807191Y474660D01*
X807224Y474577D01*
X807252Y474492D01*
X807277Y474407D01*
X807299Y474320D01*
X807316Y474232D01*
X807329Y474144D01*
X807339Y474055D01*
X807345Y473966D01*
X807347Y473877D01*
X807345Y473788D01*
X807339Y473699D01*
X807329Y473610D01*
X807316Y473522D01*
X807299Y473434D01*
X807277Y473347D01*
X807252Y473262D01*
X807224Y473177D01*
X807191Y473094D01*
X807155Y473012D01*
X807116Y472932D01*
X807073Y472854D01*
X807027Y472778D01*
X806977Y472703D01*
X806924Y472631D01*
X806868Y472562D01*
X806809Y472495D01*
X806748Y472430D01*
X806683Y472369D01*
X806616Y472310D01*
X806547Y472254D01*
X806475Y472201D01*
X806400Y472151D01*
X806324Y472105D01*
X806246Y472062D01*
X806166Y472023D01*
X806084Y471987D01*
X806001Y471954D01*
X805916Y471926D01*
X805831Y471901D01*
X805744Y471879D01*
X805656Y471862D01*
X805568Y471849D01*
X805479Y471839D01*
X805390Y471833D01*
X805301Y471831D01*
X805710Y475105D02*
X807347Y476742D01*
X801823Y483020D02*
X801738Y483018D01*
X801653Y483012D01*
X801569Y483002D01*
X801485Y482989D01*
X801401Y482971D01*
X801319Y482950D01*
X801238Y482925D01*
X801158Y482896D01*
X801079Y482863D01*
X801002Y482827D01*
X800927Y482787D01*
X800853Y482744D01*
X800782Y482698D01*
X800713Y482648D01*
X800646Y482595D01*
X800582Y482539D01*
X800521Y482480D01*
X800462Y482419D01*
X800406Y482355D01*
X800353Y482288D01*
X800303Y482219D01*
X800257Y482148D01*
X800214Y482074D01*
X800174Y481999D01*
X800138Y481922D01*
X800105Y481843D01*
X800076Y481763D01*
X800051Y481682D01*
X800030Y481600D01*
X800012Y481516D01*
X799999Y481432D01*
X799989Y481348D01*
X799983Y481263D01*
X799981Y481178D01*
X799983Y481082D01*
X799989Y480986D01*
X799999Y480891D01*
X800012Y480796D01*
X800030Y480701D01*
X800051Y480608D01*
X800076Y480515D01*
X800105Y480424D01*
X800137Y480333D01*
X800173Y480244D01*
X800213Y480157D01*
X800256Y480071D01*
X800302Y479987D01*
X800352Y479905D01*
X800406Y479825D01*
X800462Y479748D01*
X800522Y479673D01*
X800584Y479600D01*
X800650Y479530D01*
X800718Y479462D01*
X800789Y479397D01*
X800862Y479336D01*
X800938Y479277D01*
X801017Y479221D01*
X801097Y479169D01*
X801180Y479120D01*
X801264Y479074D01*
X801350Y479032D01*
X801438Y478994D01*
X801527Y478959D01*
X801618Y478927D01*
X803255Y482405D02*
X803196Y482465D01*
X803134Y482522D01*
X803070Y482577D01*
X803003Y482628D01*
X802934Y482677D01*
X802864Y482723D01*
X802791Y482766D01*
X802717Y482806D01*
X802641Y482842D01*
X802563Y482875D01*
X802484Y482905D01*
X802404Y482932D01*
X802323Y482955D01*
X802241Y482974D01*
X802159Y482990D01*
X802075Y483003D01*
X801991Y483012D01*
X801907Y483017D01*
X801823Y483019D01*
X803255Y482405D02*
X807347Y478927D01*
X807347Y483019D01*
D15*
X782300Y416200D02*
X782300Y403200D01*
X750900Y403200D02*
X750900Y416200D01*
D19*
X778600Y432200D02*
X778602Y432263D01*
X778608Y432325D01*
X778618Y432387D01*
X778631Y432449D01*
X778649Y432509D01*
X778670Y432568D01*
X778695Y432626D01*
X778724Y432682D01*
X778756Y432736D01*
X778791Y432788D01*
X778829Y432837D01*
X778871Y432885D01*
X778915Y432929D01*
X778963Y432971D01*
X779012Y433009D01*
X779064Y433044D01*
X779118Y433076D01*
X779174Y433105D01*
X779232Y433130D01*
X779291Y433151D01*
X779351Y433169D01*
X779413Y433182D01*
X779475Y433192D01*
X779537Y433198D01*
X779600Y433200D01*
X779663Y433198D01*
X779725Y433192D01*
X779787Y433182D01*
X779849Y433169D01*
X779909Y433151D01*
X779968Y433130D01*
X780026Y433105D01*
X780082Y433076D01*
X780136Y433044D01*
X780188Y433009D01*
X780237Y432971D01*
X780285Y432929D01*
X780329Y432885D01*
X780371Y432837D01*
X780409Y432788D01*
X780444Y432736D01*
X780476Y432682D01*
X780505Y432626D01*
X780530Y432568D01*
X780551Y432509D01*
X780569Y432449D01*
X780582Y432387D01*
X780592Y432325D01*
X780598Y432263D01*
X780600Y432200D01*
X780598Y432137D01*
X780592Y432075D01*
X780582Y432013D01*
X780569Y431951D01*
X780551Y431891D01*
X780530Y431832D01*
X780505Y431774D01*
X780476Y431718D01*
X780444Y431664D01*
X780409Y431612D01*
X780371Y431563D01*
X780329Y431515D01*
X780285Y431471D01*
X780237Y431429D01*
X780188Y431391D01*
X780136Y431356D01*
X780082Y431324D01*
X780026Y431295D01*
X779968Y431270D01*
X779909Y431249D01*
X779849Y431231D01*
X779787Y431218D01*
X779725Y431208D01*
X779663Y431202D01*
X779600Y431200D01*
X779537Y431202D01*
X779475Y431208D01*
X779413Y431218D01*
X779351Y431231D01*
X779291Y431249D01*
X779232Y431270D01*
X779174Y431295D01*
X779118Y431324D01*
X779064Y431356D01*
X779012Y431391D01*
X778963Y431429D01*
X778915Y431471D01*
X778871Y431515D01*
X778829Y431563D01*
X778791Y431612D01*
X778756Y431664D01*
X778724Y431718D01*
X778695Y431774D01*
X778670Y431832D01*
X778649Y431891D01*
X778631Y431951D01*
X778618Y432013D01*
X778608Y432075D01*
X778602Y432137D01*
X778600Y432200D01*
D15*
X782300Y403200D02*
X772800Y403200D01*
X760400Y403200D02*
X750900Y403200D01*
D21*
X789027Y418131D02*
X792301Y418131D01*
X789027Y418131D02*
X788938Y418133D01*
X788849Y418139D01*
X788760Y418149D01*
X788672Y418162D01*
X788584Y418179D01*
X788497Y418201D01*
X788412Y418226D01*
X788327Y418254D01*
X788244Y418287D01*
X788162Y418323D01*
X788082Y418362D01*
X788004Y418405D01*
X787928Y418451D01*
X787853Y418501D01*
X787781Y418554D01*
X787712Y418610D01*
X787645Y418669D01*
X787580Y418730D01*
X787519Y418795D01*
X787460Y418862D01*
X787404Y418931D01*
X787351Y419003D01*
X787301Y419078D01*
X787255Y419154D01*
X787212Y419232D01*
X787173Y419312D01*
X787137Y419394D01*
X787104Y419477D01*
X787076Y419562D01*
X787051Y419647D01*
X787029Y419734D01*
X787012Y419822D01*
X786999Y419910D01*
X786989Y419999D01*
X786983Y420088D01*
X786981Y420177D01*
X786983Y420266D01*
X786989Y420355D01*
X786999Y420444D01*
X787012Y420532D01*
X787029Y420620D01*
X787051Y420707D01*
X787076Y420792D01*
X787104Y420877D01*
X787137Y420960D01*
X787173Y421042D01*
X787212Y421122D01*
X787255Y421200D01*
X787301Y421276D01*
X787351Y421351D01*
X787404Y421423D01*
X787460Y421492D01*
X787519Y421559D01*
X787580Y421624D01*
X787645Y421685D01*
X787712Y421744D01*
X787781Y421800D01*
X787853Y421853D01*
X787928Y421903D01*
X788004Y421949D01*
X788082Y421992D01*
X788162Y422031D01*
X788244Y422067D01*
X788327Y422100D01*
X788412Y422128D01*
X788497Y422153D01*
X788584Y422175D01*
X788672Y422192D01*
X788760Y422205D01*
X788849Y422215D01*
X788938Y422221D01*
X789027Y422223D01*
X789027Y422224D02*
X792301Y422224D01*
X792301Y422223D02*
X792390Y422221D01*
X792479Y422215D01*
X792568Y422205D01*
X792656Y422192D01*
X792744Y422175D01*
X792831Y422153D01*
X792916Y422128D01*
X793001Y422100D01*
X793084Y422067D01*
X793166Y422031D01*
X793246Y421992D01*
X793324Y421949D01*
X793400Y421903D01*
X793475Y421853D01*
X793547Y421800D01*
X793616Y421744D01*
X793683Y421685D01*
X793748Y421624D01*
X793809Y421559D01*
X793868Y421492D01*
X793924Y421423D01*
X793977Y421351D01*
X794027Y421276D01*
X794073Y421200D01*
X794116Y421122D01*
X794155Y421042D01*
X794191Y420960D01*
X794224Y420877D01*
X794252Y420792D01*
X794277Y420707D01*
X794299Y420620D01*
X794316Y420532D01*
X794329Y420444D01*
X794339Y420355D01*
X794345Y420266D01*
X794347Y420177D01*
X794345Y420088D01*
X794339Y419999D01*
X794329Y419910D01*
X794316Y419822D01*
X794299Y419734D01*
X794277Y419647D01*
X794252Y419562D01*
X794224Y419477D01*
X794191Y419394D01*
X794155Y419312D01*
X794116Y419232D01*
X794073Y419154D01*
X794027Y419078D01*
X793977Y419003D01*
X793924Y418931D01*
X793868Y418862D01*
X793809Y418795D01*
X793748Y418730D01*
X793683Y418669D01*
X793616Y418610D01*
X793547Y418554D01*
X793475Y418501D01*
X793400Y418451D01*
X793324Y418405D01*
X793246Y418362D01*
X793166Y418323D01*
X793084Y418287D01*
X793001Y418254D01*
X792916Y418226D01*
X792831Y418201D01*
X792744Y418179D01*
X792656Y418162D01*
X792568Y418149D01*
X792479Y418139D01*
X792390Y418133D01*
X792301Y418131D01*
X792710Y421405D02*
X794347Y423042D01*
X794347Y425227D02*
X794347Y427273D01*
X794345Y427362D01*
X794339Y427451D01*
X794329Y427540D01*
X794316Y427628D01*
X794299Y427716D01*
X794277Y427803D01*
X794252Y427888D01*
X794224Y427973D01*
X794191Y428056D01*
X794155Y428138D01*
X794116Y428218D01*
X794073Y428296D01*
X794027Y428372D01*
X793977Y428447D01*
X793924Y428519D01*
X793868Y428588D01*
X793809Y428655D01*
X793748Y428720D01*
X793683Y428781D01*
X793616Y428840D01*
X793547Y428896D01*
X793475Y428949D01*
X793400Y428999D01*
X793324Y429045D01*
X793246Y429088D01*
X793166Y429127D01*
X793084Y429163D01*
X793001Y429196D01*
X792916Y429224D01*
X792831Y429249D01*
X792744Y429271D01*
X792656Y429288D01*
X792568Y429301D01*
X792479Y429311D01*
X792390Y429317D01*
X792301Y429319D01*
X792212Y429317D01*
X792123Y429311D01*
X792034Y429301D01*
X791946Y429288D01*
X791858Y429271D01*
X791771Y429249D01*
X791686Y429224D01*
X791601Y429196D01*
X791518Y429163D01*
X791436Y429127D01*
X791356Y429088D01*
X791278Y429045D01*
X791202Y428999D01*
X791127Y428949D01*
X791055Y428896D01*
X790986Y428840D01*
X790919Y428781D01*
X790854Y428720D01*
X790793Y428655D01*
X790734Y428588D01*
X790678Y428519D01*
X790625Y428447D01*
X790575Y428372D01*
X790529Y428296D01*
X790486Y428218D01*
X790447Y428138D01*
X790411Y428056D01*
X790378Y427973D01*
X790350Y427888D01*
X790325Y427803D01*
X790303Y427716D01*
X790286Y427628D01*
X790273Y427540D01*
X790263Y427451D01*
X790257Y427362D01*
X790255Y427273D01*
X786981Y427682D02*
X786981Y425227D01*
X786981Y427682D02*
X786983Y427761D01*
X786989Y427840D01*
X786998Y427919D01*
X787011Y427997D01*
X787029Y428074D01*
X787049Y428150D01*
X787074Y428225D01*
X787102Y428299D01*
X787133Y428372D01*
X787169Y428443D01*
X787207Y428512D01*
X787249Y428579D01*
X787294Y428644D01*
X787342Y428707D01*
X787393Y428768D01*
X787447Y428825D01*
X787503Y428881D01*
X787562Y428933D01*
X787624Y428983D01*
X787688Y429029D01*
X787754Y429073D01*
X787822Y429113D01*
X787892Y429149D01*
X787964Y429183D01*
X788038Y429213D01*
X788112Y429239D01*
X788188Y429262D01*
X788265Y429280D01*
X788342Y429296D01*
X788421Y429307D01*
X788499Y429315D01*
X788578Y429319D01*
X788658Y429319D01*
X788737Y429315D01*
X788815Y429307D01*
X788894Y429296D01*
X788971Y429280D01*
X789048Y429262D01*
X789124Y429239D01*
X789198Y429213D01*
X789272Y429183D01*
X789344Y429149D01*
X789414Y429113D01*
X789482Y429073D01*
X789548Y429029D01*
X789612Y428983D01*
X789674Y428933D01*
X789733Y428881D01*
X789789Y428825D01*
X789843Y428768D01*
X789894Y428707D01*
X789942Y428644D01*
X789987Y428579D01*
X790029Y428512D01*
X790067Y428443D01*
X790103Y428372D01*
X790134Y428299D01*
X790162Y428225D01*
X790187Y428150D01*
X790207Y428074D01*
X790225Y427997D01*
X790238Y427919D01*
X790247Y427840D01*
X790253Y427761D01*
X790255Y427682D01*
X790255Y426045D01*
D15*
X257000Y250200D02*
X244000Y250200D01*
X244000Y281600D02*
X257000Y281600D01*
D19*
X272000Y252900D02*
X272002Y252963D01*
X272008Y253025D01*
X272018Y253087D01*
X272031Y253149D01*
X272049Y253209D01*
X272070Y253268D01*
X272095Y253326D01*
X272124Y253382D01*
X272156Y253436D01*
X272191Y253488D01*
X272229Y253537D01*
X272271Y253585D01*
X272315Y253629D01*
X272363Y253671D01*
X272412Y253709D01*
X272464Y253744D01*
X272518Y253776D01*
X272574Y253805D01*
X272632Y253830D01*
X272691Y253851D01*
X272751Y253869D01*
X272813Y253882D01*
X272875Y253892D01*
X272937Y253898D01*
X273000Y253900D01*
X273063Y253898D01*
X273125Y253892D01*
X273187Y253882D01*
X273249Y253869D01*
X273309Y253851D01*
X273368Y253830D01*
X273426Y253805D01*
X273482Y253776D01*
X273536Y253744D01*
X273588Y253709D01*
X273637Y253671D01*
X273685Y253629D01*
X273729Y253585D01*
X273771Y253537D01*
X273809Y253488D01*
X273844Y253436D01*
X273876Y253382D01*
X273905Y253326D01*
X273930Y253268D01*
X273951Y253209D01*
X273969Y253149D01*
X273982Y253087D01*
X273992Y253025D01*
X273998Y252963D01*
X274000Y252900D01*
X273998Y252837D01*
X273992Y252775D01*
X273982Y252713D01*
X273969Y252651D01*
X273951Y252591D01*
X273930Y252532D01*
X273905Y252474D01*
X273876Y252418D01*
X273844Y252364D01*
X273809Y252312D01*
X273771Y252263D01*
X273729Y252215D01*
X273685Y252171D01*
X273637Y252129D01*
X273588Y252091D01*
X273536Y252056D01*
X273482Y252024D01*
X273426Y251995D01*
X273368Y251970D01*
X273309Y251949D01*
X273249Y251931D01*
X273187Y251918D01*
X273125Y251908D01*
X273063Y251902D01*
X273000Y251900D01*
X272937Y251902D01*
X272875Y251908D01*
X272813Y251918D01*
X272751Y251931D01*
X272691Y251949D01*
X272632Y251970D01*
X272574Y251995D01*
X272518Y252024D01*
X272464Y252056D01*
X272412Y252091D01*
X272363Y252129D01*
X272315Y252171D01*
X272271Y252215D01*
X272229Y252263D01*
X272191Y252312D01*
X272156Y252364D01*
X272124Y252418D01*
X272095Y252474D01*
X272070Y252532D01*
X272049Y252591D01*
X272031Y252651D01*
X272018Y252713D01*
X272008Y252775D01*
X272002Y252837D01*
X272000Y252900D01*
D15*
X244000Y250200D02*
X244000Y259700D01*
X244000Y272100D02*
X244000Y281600D01*
D21*
X258931Y243473D02*
X258931Y240199D01*
X258931Y243473D02*
X258933Y243562D01*
X258939Y243651D01*
X258949Y243740D01*
X258962Y243828D01*
X258979Y243916D01*
X259001Y244003D01*
X259026Y244088D01*
X259054Y244173D01*
X259087Y244256D01*
X259123Y244338D01*
X259162Y244418D01*
X259205Y244496D01*
X259251Y244572D01*
X259301Y244647D01*
X259354Y244719D01*
X259410Y244788D01*
X259469Y244855D01*
X259530Y244920D01*
X259595Y244981D01*
X259662Y245040D01*
X259731Y245096D01*
X259803Y245149D01*
X259878Y245199D01*
X259954Y245245D01*
X260032Y245288D01*
X260112Y245327D01*
X260194Y245363D01*
X260277Y245396D01*
X260362Y245424D01*
X260447Y245449D01*
X260534Y245471D01*
X260622Y245488D01*
X260710Y245501D01*
X260799Y245511D01*
X260888Y245517D01*
X260977Y245519D01*
X261066Y245517D01*
X261155Y245511D01*
X261244Y245501D01*
X261332Y245488D01*
X261420Y245471D01*
X261507Y245449D01*
X261592Y245424D01*
X261677Y245396D01*
X261760Y245363D01*
X261842Y245327D01*
X261922Y245288D01*
X262000Y245245D01*
X262076Y245199D01*
X262151Y245149D01*
X262223Y245096D01*
X262292Y245040D01*
X262359Y244981D01*
X262424Y244920D01*
X262485Y244855D01*
X262544Y244788D01*
X262600Y244719D01*
X262653Y244647D01*
X262703Y244572D01*
X262749Y244496D01*
X262792Y244418D01*
X262831Y244338D01*
X262867Y244256D01*
X262900Y244173D01*
X262928Y244088D01*
X262953Y244003D01*
X262975Y243916D01*
X262992Y243828D01*
X263005Y243740D01*
X263015Y243651D01*
X263021Y243562D01*
X263023Y243473D01*
X263024Y243473D02*
X263024Y240199D01*
X263023Y240199D02*
X263021Y240110D01*
X263015Y240021D01*
X263005Y239932D01*
X262992Y239844D01*
X262975Y239756D01*
X262953Y239669D01*
X262928Y239584D01*
X262900Y239499D01*
X262867Y239416D01*
X262831Y239334D01*
X262792Y239254D01*
X262749Y239176D01*
X262703Y239100D01*
X262653Y239025D01*
X262600Y238953D01*
X262544Y238884D01*
X262485Y238817D01*
X262424Y238752D01*
X262359Y238691D01*
X262292Y238632D01*
X262223Y238576D01*
X262151Y238523D01*
X262076Y238473D01*
X262000Y238427D01*
X261922Y238384D01*
X261842Y238345D01*
X261760Y238309D01*
X261677Y238276D01*
X261592Y238248D01*
X261507Y238223D01*
X261420Y238201D01*
X261332Y238184D01*
X261244Y238171D01*
X261155Y238161D01*
X261066Y238155D01*
X260977Y238153D01*
X260888Y238155D01*
X260799Y238161D01*
X260710Y238171D01*
X260622Y238184D01*
X260534Y238201D01*
X260447Y238223D01*
X260362Y238248D01*
X260277Y238276D01*
X260194Y238309D01*
X260112Y238345D01*
X260032Y238384D01*
X259954Y238427D01*
X259878Y238473D01*
X259803Y238523D01*
X259731Y238576D01*
X259662Y238632D01*
X259595Y238691D01*
X259530Y238752D01*
X259469Y238817D01*
X259410Y238884D01*
X259354Y238953D01*
X259301Y239025D01*
X259251Y239100D01*
X259205Y239176D01*
X259162Y239254D01*
X259123Y239334D01*
X259087Y239416D01*
X259054Y239499D01*
X259026Y239584D01*
X259001Y239669D01*
X258979Y239756D01*
X258962Y239844D01*
X258949Y239932D01*
X258939Y240021D01*
X258933Y240110D01*
X258931Y240199D01*
X262205Y239790D02*
X263842Y238153D01*
X266027Y239790D02*
X267664Y245519D01*
X266027Y239790D02*
X270119Y239790D01*
X268891Y241427D02*
X268891Y238153D01*
D10*
X605500Y505000D02*
X605500Y533000D01*
X617500Y533000D01*
X617500Y505000D01*
X605500Y505000D01*
D11*
X618127Y522127D02*
X620373Y522127D01*
X618127Y522127D02*
X618127Y522751D01*
X618129Y522800D01*
X618135Y522849D01*
X618144Y522897D01*
X618158Y522944D01*
X618174Y522990D01*
X618195Y523034D01*
X618219Y523077D01*
X618246Y523118D01*
X618277Y523156D01*
X618310Y523192D01*
X618346Y523225D01*
X618384Y523256D01*
X618425Y523283D01*
X618468Y523307D01*
X618512Y523328D01*
X618558Y523344D01*
X618605Y523358D01*
X618653Y523367D01*
X618702Y523373D01*
X618751Y523375D01*
X618800Y523373D01*
X618849Y523367D01*
X618897Y523358D01*
X618944Y523344D01*
X618990Y523328D01*
X619034Y523307D01*
X619077Y523283D01*
X619118Y523256D01*
X619156Y523225D01*
X619192Y523192D01*
X619225Y523156D01*
X619256Y523118D01*
X619283Y523077D01*
X619307Y523034D01*
X619328Y522990D01*
X619344Y522944D01*
X619358Y522897D01*
X619367Y522849D01*
X619373Y522800D01*
X619375Y522751D01*
X619375Y522127D01*
X619375Y522876D02*
X620373Y523375D01*
X618626Y524361D02*
X618127Y524984D01*
X620373Y524984D01*
X620373Y524361D02*
X620373Y525608D01*
X619250Y526610D02*
X619166Y526612D01*
X619082Y526618D01*
X618999Y526627D01*
X618916Y526640D01*
X618834Y526657D01*
X618752Y526678D01*
X618672Y526703D01*
X618593Y526731D01*
X618515Y526762D01*
X618439Y526797D01*
X618401Y526812D01*
X618364Y526830D01*
X618330Y526852D01*
X618297Y526876D01*
X618266Y526903D01*
X618238Y526933D01*
X618213Y526965D01*
X618191Y527000D01*
X618172Y527036D01*
X618156Y527074D01*
X618143Y527113D01*
X618134Y527153D01*
X618129Y527193D01*
X618127Y527234D01*
X618129Y527275D01*
X618134Y527315D01*
X618143Y527355D01*
X618156Y527394D01*
X618172Y527432D01*
X618191Y527468D01*
X618213Y527503D01*
X618238Y527535D01*
X618266Y527565D01*
X618297Y527592D01*
X618330Y527616D01*
X618365Y527638D01*
X618401Y527656D01*
X618439Y527671D01*
X618515Y527706D01*
X618593Y527737D01*
X618672Y527765D01*
X618752Y527790D01*
X618834Y527811D01*
X618916Y527828D01*
X618999Y527841D01*
X619082Y527850D01*
X619166Y527856D01*
X619250Y527858D01*
X619250Y526611D02*
X619334Y526613D01*
X619418Y526619D01*
X619501Y526628D01*
X619584Y526641D01*
X619666Y526658D01*
X619748Y526679D01*
X619828Y526704D01*
X619907Y526732D01*
X619985Y526763D01*
X620061Y526798D01*
X620061Y526797D02*
X620099Y526812D01*
X620136Y526830D01*
X620170Y526852D01*
X620203Y526876D01*
X620234Y526903D01*
X620262Y526933D01*
X620287Y526965D01*
X620309Y527000D01*
X620328Y527036D01*
X620344Y527074D01*
X620357Y527113D01*
X620366Y527153D01*
X620371Y527193D01*
X620373Y527234D01*
X620061Y527671D02*
X619985Y527706D01*
X619907Y527737D01*
X619828Y527765D01*
X619748Y527790D01*
X619666Y527811D01*
X619584Y527828D01*
X619501Y527841D01*
X619418Y527850D01*
X619334Y527856D01*
X619250Y527858D01*
X620061Y527671D02*
X620099Y527656D01*
X620136Y527638D01*
X620170Y527616D01*
X620203Y527592D01*
X620234Y527565D01*
X620262Y527535D01*
X620287Y527503D01*
X620309Y527468D01*
X620328Y527432D01*
X620344Y527394D01*
X620357Y527355D01*
X620366Y527315D01*
X620371Y527275D01*
X620373Y527234D01*
X619874Y526735D02*
X618626Y527734D01*
D10*
X438000Y689000D02*
X438000Y717000D01*
X438000Y689000D02*
X426000Y689000D01*
X426000Y717000D01*
X438000Y717000D01*
X408000Y308000D02*
X380000Y308000D01*
X380000Y320000D01*
X408000Y320000D01*
X408000Y308000D01*
D11*
X385142Y320627D02*
X385142Y322873D01*
X385766Y322873D01*
X385815Y322871D01*
X385864Y322865D01*
X385912Y322856D01*
X385959Y322842D01*
X386005Y322826D01*
X386049Y322805D01*
X386092Y322781D01*
X386133Y322754D01*
X386171Y322723D01*
X386207Y322690D01*
X386240Y322654D01*
X386271Y322616D01*
X386298Y322575D01*
X386322Y322532D01*
X386343Y322488D01*
X386359Y322442D01*
X386373Y322395D01*
X386382Y322347D01*
X386388Y322298D01*
X386390Y322249D01*
X386388Y322200D01*
X386382Y322151D01*
X386373Y322103D01*
X386359Y322056D01*
X386343Y322010D01*
X386322Y321966D01*
X386298Y321923D01*
X386271Y321882D01*
X386240Y321844D01*
X386207Y321808D01*
X386171Y321775D01*
X386133Y321744D01*
X386092Y321717D01*
X386049Y321693D01*
X386005Y321672D01*
X385959Y321656D01*
X385912Y321642D01*
X385864Y321633D01*
X385815Y321627D01*
X385766Y321625D01*
X385142Y321625D01*
X385890Y321625D02*
X386389Y320627D01*
X387375Y322374D02*
X387999Y322873D01*
X387999Y320627D01*
X387375Y320627D02*
X388623Y320627D01*
X390874Y322312D02*
X390872Y322358D01*
X390866Y322405D01*
X390857Y322450D01*
X390844Y322494D01*
X390827Y322538D01*
X390806Y322579D01*
X390782Y322619D01*
X390755Y322657D01*
X390725Y322693D01*
X390693Y322725D01*
X390657Y322755D01*
X390619Y322782D01*
X390579Y322806D01*
X390538Y322827D01*
X390494Y322844D01*
X390450Y322857D01*
X390405Y322866D01*
X390358Y322872D01*
X390312Y322874D01*
X390312Y322873D02*
X390262Y322871D01*
X390212Y322866D01*
X390162Y322857D01*
X390113Y322845D01*
X390065Y322829D01*
X390019Y322811D01*
X389973Y322788D01*
X389930Y322763D01*
X389888Y322735D01*
X389848Y322704D01*
X389811Y322670D01*
X389776Y322634D01*
X389744Y322595D01*
X389714Y322555D01*
X389687Y322512D01*
X389664Y322467D01*
X389643Y322421D01*
X389626Y322374D01*
X390686Y321875D02*
X390717Y321907D01*
X390745Y321941D01*
X390771Y321977D01*
X390795Y322015D01*
X390815Y322054D01*
X390833Y322095D01*
X390847Y322137D01*
X390858Y322180D01*
X390866Y322224D01*
X390871Y322268D01*
X390873Y322312D01*
X390686Y321875D02*
X389625Y320627D01*
X390873Y320627D01*
D10*
X705500Y413500D02*
X705500Y441500D01*
X705500Y413500D02*
X693500Y413500D01*
X693500Y441500D01*
X705500Y441500D01*
D11*
X692873Y418642D02*
X690627Y418642D01*
X690627Y419266D01*
X690629Y419315D01*
X690635Y419364D01*
X690644Y419412D01*
X690658Y419459D01*
X690674Y419505D01*
X690695Y419549D01*
X690719Y419592D01*
X690746Y419633D01*
X690777Y419671D01*
X690810Y419707D01*
X690846Y419740D01*
X690884Y419771D01*
X690925Y419798D01*
X690968Y419822D01*
X691012Y419843D01*
X691058Y419859D01*
X691105Y419873D01*
X691153Y419882D01*
X691202Y419888D01*
X691251Y419890D01*
X691300Y419888D01*
X691349Y419882D01*
X691397Y419873D01*
X691444Y419859D01*
X691490Y419843D01*
X691534Y419822D01*
X691577Y419798D01*
X691618Y419771D01*
X691656Y419740D01*
X691692Y419707D01*
X691725Y419671D01*
X691756Y419633D01*
X691783Y419592D01*
X691807Y419549D01*
X691828Y419505D01*
X691844Y419459D01*
X691858Y419412D01*
X691867Y419364D01*
X691873Y419315D01*
X691875Y419266D01*
X691875Y418642D01*
X691875Y419390D02*
X692873Y419889D01*
X691126Y420875D02*
X690627Y421499D01*
X692873Y421499D01*
X692873Y420875D02*
X692873Y422123D01*
X692873Y423125D02*
X692873Y423749D01*
X692871Y423798D01*
X692865Y423847D01*
X692856Y423895D01*
X692842Y423942D01*
X692826Y423988D01*
X692805Y424032D01*
X692781Y424075D01*
X692754Y424116D01*
X692723Y424154D01*
X692690Y424190D01*
X692654Y424223D01*
X692616Y424254D01*
X692575Y424281D01*
X692532Y424305D01*
X692488Y424326D01*
X692442Y424342D01*
X692395Y424356D01*
X692347Y424365D01*
X692298Y424371D01*
X692249Y424373D01*
X692200Y424371D01*
X692151Y424365D01*
X692103Y424356D01*
X692056Y424342D01*
X692010Y424326D01*
X691966Y424305D01*
X691923Y424281D01*
X691882Y424254D01*
X691844Y424223D01*
X691808Y424190D01*
X691775Y424154D01*
X691744Y424116D01*
X691717Y424075D01*
X691693Y424032D01*
X691672Y423988D01*
X691656Y423942D01*
X691642Y423895D01*
X691633Y423847D01*
X691627Y423798D01*
X691625Y423749D01*
X690627Y423874D02*
X690627Y423125D01*
X690627Y423874D02*
X690629Y423917D01*
X690635Y423961D01*
X690644Y424003D01*
X690657Y424045D01*
X690674Y424085D01*
X690694Y424124D01*
X690717Y424160D01*
X690744Y424195D01*
X690773Y424227D01*
X690805Y424256D01*
X690840Y424283D01*
X690877Y424306D01*
X690915Y424326D01*
X690955Y424343D01*
X690997Y424356D01*
X691039Y424365D01*
X691083Y424371D01*
X691126Y424373D01*
X691169Y424371D01*
X691213Y424365D01*
X691255Y424356D01*
X691297Y424343D01*
X691337Y424326D01*
X691376Y424306D01*
X691412Y424283D01*
X691447Y424256D01*
X691479Y424227D01*
X691508Y424195D01*
X691535Y424160D01*
X691558Y424124D01*
X691578Y424085D01*
X691595Y424045D01*
X691608Y424003D01*
X691617Y423961D01*
X691623Y423917D01*
X691625Y423874D01*
X691625Y423375D01*
D10*
X758000Y380000D02*
X758000Y352000D01*
X758000Y380000D02*
X770000Y380000D01*
X770000Y352000D01*
X758000Y352000D01*
D11*
X770627Y369127D02*
X772873Y369127D01*
X770627Y369127D02*
X770627Y369751D01*
X770629Y369800D01*
X770635Y369849D01*
X770644Y369897D01*
X770658Y369944D01*
X770674Y369990D01*
X770695Y370034D01*
X770719Y370077D01*
X770746Y370118D01*
X770777Y370156D01*
X770810Y370192D01*
X770846Y370225D01*
X770884Y370256D01*
X770925Y370283D01*
X770968Y370307D01*
X771012Y370328D01*
X771058Y370344D01*
X771105Y370358D01*
X771153Y370367D01*
X771202Y370373D01*
X771251Y370375D01*
X771300Y370373D01*
X771349Y370367D01*
X771397Y370358D01*
X771444Y370344D01*
X771490Y370328D01*
X771534Y370307D01*
X771577Y370283D01*
X771618Y370256D01*
X771656Y370225D01*
X771692Y370192D01*
X771725Y370156D01*
X771756Y370118D01*
X771783Y370077D01*
X771807Y370034D01*
X771828Y369990D01*
X771844Y369944D01*
X771858Y369897D01*
X771867Y369849D01*
X771873Y369800D01*
X771875Y369751D01*
X771875Y369127D01*
X771875Y369876D02*
X772873Y370375D01*
X771126Y371361D02*
X770627Y371984D01*
X772873Y371984D01*
X772873Y371361D02*
X772873Y372608D01*
X772374Y373611D02*
X770627Y374110D01*
X772374Y373611D02*
X772374Y374858D01*
X771875Y374484D02*
X772873Y374484D01*
D10*
X670300Y551400D02*
X642300Y551400D01*
X670300Y551400D02*
X670300Y539400D01*
X642300Y539400D01*
X642300Y551400D01*
D11*
X659427Y538773D02*
X659427Y536527D01*
X659427Y538773D02*
X660051Y538773D01*
X660100Y538771D01*
X660149Y538765D01*
X660197Y538756D01*
X660244Y538742D01*
X660290Y538726D01*
X660334Y538705D01*
X660377Y538681D01*
X660418Y538654D01*
X660456Y538623D01*
X660492Y538590D01*
X660525Y538554D01*
X660556Y538516D01*
X660583Y538475D01*
X660607Y538432D01*
X660628Y538388D01*
X660644Y538342D01*
X660658Y538295D01*
X660667Y538247D01*
X660673Y538198D01*
X660675Y538149D01*
X660673Y538100D01*
X660667Y538051D01*
X660658Y538003D01*
X660644Y537956D01*
X660628Y537910D01*
X660607Y537866D01*
X660583Y537823D01*
X660556Y537782D01*
X660525Y537744D01*
X660492Y537708D01*
X660456Y537675D01*
X660418Y537644D01*
X660377Y537617D01*
X660334Y537593D01*
X660290Y537572D01*
X660244Y537556D01*
X660197Y537542D01*
X660149Y537533D01*
X660100Y537527D01*
X660051Y537525D01*
X659427Y537525D01*
X660176Y537525D02*
X660675Y536527D01*
X662160Y537525D02*
X662908Y537525D01*
X662160Y537525D02*
X662117Y537527D01*
X662073Y537533D01*
X662031Y537542D01*
X661989Y537555D01*
X661949Y537572D01*
X661911Y537592D01*
X661874Y537615D01*
X661839Y537642D01*
X661807Y537671D01*
X661778Y537703D01*
X661751Y537738D01*
X661728Y537775D01*
X661708Y537813D01*
X661691Y537853D01*
X661678Y537895D01*
X661669Y537937D01*
X661663Y537981D01*
X661661Y538024D01*
X661661Y538149D01*
X661660Y538149D02*
X661662Y538198D01*
X661668Y538247D01*
X661677Y538295D01*
X661691Y538342D01*
X661707Y538388D01*
X661728Y538432D01*
X661752Y538475D01*
X661779Y538516D01*
X661810Y538554D01*
X661843Y538590D01*
X661879Y538623D01*
X661917Y538654D01*
X661958Y538681D01*
X662001Y538705D01*
X662045Y538726D01*
X662091Y538742D01*
X662138Y538756D01*
X662186Y538765D01*
X662235Y538771D01*
X662284Y538773D01*
X662333Y538771D01*
X662382Y538765D01*
X662430Y538756D01*
X662477Y538742D01*
X662523Y538726D01*
X662567Y538705D01*
X662610Y538681D01*
X662651Y538654D01*
X662689Y538623D01*
X662725Y538590D01*
X662758Y538554D01*
X662789Y538516D01*
X662816Y538475D01*
X662840Y538432D01*
X662861Y538388D01*
X662877Y538342D01*
X662891Y538295D01*
X662900Y538247D01*
X662906Y538198D01*
X662908Y538149D01*
X662908Y537525D01*
X662906Y537462D01*
X662900Y537400D01*
X662890Y537338D01*
X662877Y537277D01*
X662859Y537217D01*
X662838Y537158D01*
X662813Y537100D01*
X662785Y537044D01*
X662753Y536990D01*
X662717Y536938D01*
X662679Y536889D01*
X662638Y536842D01*
X662593Y536798D01*
X662546Y536756D01*
X662497Y536718D01*
X662445Y536682D01*
X662391Y536650D01*
X662335Y536622D01*
X662277Y536597D01*
X662218Y536576D01*
X662158Y536558D01*
X662097Y536545D01*
X662035Y536535D01*
X661973Y536529D01*
X661910Y536527D01*
D15*
X387000Y681600D02*
X387000Y732400D01*
X401000Y732500D01*
X401000Y681500D01*
X387200Y681500D01*
D11*
X385873Y721776D02*
X385871Y721819D01*
X385865Y721863D01*
X385856Y721905D01*
X385843Y721947D01*
X385826Y721987D01*
X385806Y722026D01*
X385783Y722062D01*
X385756Y722097D01*
X385727Y722129D01*
X385695Y722158D01*
X385660Y722185D01*
X385624Y722208D01*
X385585Y722228D01*
X385545Y722245D01*
X385503Y722258D01*
X385461Y722267D01*
X385417Y722273D01*
X385374Y722275D01*
X385873Y721776D02*
X385871Y721712D01*
X385865Y721648D01*
X385856Y721585D01*
X385842Y721522D01*
X385825Y721461D01*
X385804Y721400D01*
X385779Y721341D01*
X385751Y721284D01*
X385719Y721228D01*
X385685Y721174D01*
X385646Y721123D01*
X385605Y721074D01*
X385561Y721028D01*
X384126Y721090D02*
X384083Y721092D01*
X384039Y721098D01*
X383997Y721107D01*
X383955Y721120D01*
X383915Y721137D01*
X383877Y721157D01*
X383840Y721180D01*
X383805Y721207D01*
X383773Y721236D01*
X383744Y721268D01*
X383717Y721303D01*
X383694Y721340D01*
X383674Y721378D01*
X383657Y721418D01*
X383644Y721460D01*
X383635Y721502D01*
X383629Y721546D01*
X383627Y721589D01*
X383629Y721649D01*
X383635Y721709D01*
X383644Y721769D01*
X383658Y721827D01*
X383675Y721885D01*
X383696Y721942D01*
X383720Y721997D01*
X383748Y722050D01*
X383780Y722101D01*
X383814Y722151D01*
X384563Y721339D02*
X384539Y721302D01*
X384512Y721267D01*
X384482Y721235D01*
X384450Y721206D01*
X384415Y721179D01*
X384378Y721156D01*
X384339Y721136D01*
X384298Y721119D01*
X384256Y721106D01*
X384213Y721097D01*
X384170Y721091D01*
X384126Y721089D01*
X384937Y722025D02*
X384961Y722062D01*
X384988Y722097D01*
X385018Y722129D01*
X385050Y722158D01*
X385085Y722185D01*
X385122Y722208D01*
X385161Y722228D01*
X385202Y722245D01*
X385244Y722258D01*
X385287Y722267D01*
X385330Y722273D01*
X385374Y722275D01*
X384937Y722025D02*
X384563Y721339D01*
X385374Y723710D02*
X383627Y723710D01*
X385374Y723710D02*
X385417Y723708D01*
X385461Y723702D01*
X385503Y723693D01*
X385545Y723680D01*
X385585Y723663D01*
X385624Y723643D01*
X385660Y723620D01*
X385695Y723593D01*
X385727Y723564D01*
X385756Y723532D01*
X385783Y723497D01*
X385806Y723460D01*
X385826Y723422D01*
X385843Y723382D01*
X385856Y723340D01*
X385865Y723298D01*
X385871Y723254D01*
X385873Y723211D01*
X385873Y722961D01*
X383627Y725463D02*
X383629Y725509D01*
X383635Y725556D01*
X383644Y725601D01*
X383657Y725645D01*
X383674Y725689D01*
X383695Y725730D01*
X383719Y725770D01*
X383746Y725808D01*
X383776Y725844D01*
X383808Y725876D01*
X383844Y725906D01*
X383882Y725933D01*
X383922Y725957D01*
X383963Y725978D01*
X384007Y725995D01*
X384051Y726008D01*
X384096Y726017D01*
X384143Y726023D01*
X384189Y726025D01*
X383627Y725463D02*
X383629Y725413D01*
X383634Y725363D01*
X383643Y725313D01*
X383655Y725264D01*
X383671Y725216D01*
X383689Y725170D01*
X383712Y725124D01*
X383737Y725081D01*
X383765Y725039D01*
X383796Y724999D01*
X383830Y724962D01*
X383866Y724927D01*
X383905Y724895D01*
X383945Y724865D01*
X383988Y724838D01*
X384033Y724815D01*
X384079Y724794D01*
X384126Y724777D01*
X384626Y725838D02*
X384594Y725869D01*
X384560Y725897D01*
X384524Y725923D01*
X384486Y725947D01*
X384447Y725967D01*
X384406Y725985D01*
X384364Y725999D01*
X384321Y726010D01*
X384277Y726018D01*
X384233Y726023D01*
X384189Y726025D01*
X384625Y725838D02*
X385873Y724777D01*
X385873Y726025D01*
D22*
X260110Y320920D02*
X260112Y320983D01*
X260118Y321045D01*
X260128Y321107D01*
X260141Y321169D01*
X260159Y321229D01*
X260180Y321288D01*
X260205Y321346D01*
X260234Y321402D01*
X260266Y321456D01*
X260301Y321508D01*
X260339Y321557D01*
X260381Y321605D01*
X260425Y321649D01*
X260473Y321691D01*
X260522Y321729D01*
X260574Y321764D01*
X260628Y321796D01*
X260684Y321825D01*
X260742Y321850D01*
X260801Y321871D01*
X260861Y321889D01*
X260923Y321902D01*
X260985Y321912D01*
X261047Y321918D01*
X261110Y321920D01*
X261173Y321918D01*
X261235Y321912D01*
X261297Y321902D01*
X261359Y321889D01*
X261419Y321871D01*
X261478Y321850D01*
X261536Y321825D01*
X261592Y321796D01*
X261646Y321764D01*
X261698Y321729D01*
X261747Y321691D01*
X261795Y321649D01*
X261839Y321605D01*
X261881Y321557D01*
X261919Y321508D01*
X261954Y321456D01*
X261986Y321402D01*
X262015Y321346D01*
X262040Y321288D01*
X262061Y321229D01*
X262079Y321169D01*
X262092Y321107D01*
X262102Y321045D01*
X262108Y320983D01*
X262110Y320920D01*
X262108Y320857D01*
X262102Y320795D01*
X262092Y320733D01*
X262079Y320671D01*
X262061Y320611D01*
X262040Y320552D01*
X262015Y320494D01*
X261986Y320438D01*
X261954Y320384D01*
X261919Y320332D01*
X261881Y320283D01*
X261839Y320235D01*
X261795Y320191D01*
X261747Y320149D01*
X261698Y320111D01*
X261646Y320076D01*
X261592Y320044D01*
X261536Y320015D01*
X261478Y319990D01*
X261419Y319969D01*
X261359Y319951D01*
X261297Y319938D01*
X261235Y319928D01*
X261173Y319922D01*
X261110Y319920D01*
X261047Y319922D01*
X260985Y319928D01*
X260923Y319938D01*
X260861Y319951D01*
X260801Y319969D01*
X260742Y319990D01*
X260684Y320015D01*
X260628Y320044D01*
X260574Y320076D01*
X260522Y320111D01*
X260473Y320149D01*
X260425Y320191D01*
X260381Y320235D01*
X260339Y320283D01*
X260301Y320332D01*
X260266Y320384D01*
X260234Y320438D01*
X260205Y320494D01*
X260180Y320552D01*
X260159Y320611D01*
X260141Y320671D01*
X260128Y320733D01*
X260118Y320795D01*
X260112Y320857D01*
X260110Y320920D01*
D15*
X278500Y326540D02*
X295500Y326540D01*
X295500Y295460D02*
X278500Y295460D01*
D17*
X273636Y330978D02*
X273636Y335052D01*
X273636Y330978D02*
X273638Y330900D01*
X273644Y330822D01*
X273654Y330744D01*
X273667Y330668D01*
X273684Y330591D01*
X273706Y330516D01*
X273731Y330442D01*
X273759Y330369D01*
X273791Y330298D01*
X273827Y330229D01*
X273866Y330161D01*
X273908Y330095D01*
X273954Y330032D01*
X274003Y329971D01*
X274054Y329912D01*
X274109Y329856D01*
X274166Y329803D01*
X274226Y329753D01*
X274288Y329706D01*
X274353Y329662D01*
X274420Y329621D01*
X274488Y329584D01*
X274559Y329550D01*
X274631Y329519D01*
X274704Y329493D01*
X274779Y329470D01*
X274854Y329450D01*
X274931Y329435D01*
X275008Y329423D01*
X275086Y329415D01*
X275164Y329411D01*
X275242Y329411D01*
X275320Y329415D01*
X275398Y329423D01*
X275475Y329435D01*
X275552Y329450D01*
X275627Y329470D01*
X275702Y329493D01*
X275775Y329519D01*
X275847Y329550D01*
X275918Y329584D01*
X275987Y329621D01*
X276053Y329662D01*
X276118Y329706D01*
X276180Y329753D01*
X276240Y329803D01*
X276297Y329856D01*
X276352Y329912D01*
X276403Y329971D01*
X276452Y330032D01*
X276498Y330095D01*
X276540Y330161D01*
X276579Y330229D01*
X276615Y330298D01*
X276647Y330369D01*
X276675Y330442D01*
X276700Y330516D01*
X276722Y330591D01*
X276739Y330668D01*
X276752Y330744D01*
X276762Y330822D01*
X276768Y330900D01*
X276770Y330978D01*
X276770Y335052D01*
X281079Y335052D02*
X281153Y335050D01*
X281226Y335044D01*
X281300Y335035D01*
X281372Y335021D01*
X281444Y335004D01*
X281515Y334983D01*
X281584Y334958D01*
X281652Y334930D01*
X281719Y334898D01*
X281784Y334863D01*
X281847Y334825D01*
X281908Y334783D01*
X281966Y334738D01*
X282022Y334690D01*
X282076Y334639D01*
X282127Y334585D01*
X282175Y334529D01*
X282220Y334471D01*
X282262Y334410D01*
X282300Y334347D01*
X282335Y334282D01*
X282367Y334215D01*
X282395Y334147D01*
X282420Y334078D01*
X282441Y334007D01*
X282458Y333935D01*
X282472Y333863D01*
X282481Y333789D01*
X282487Y333716D01*
X282489Y333642D01*
X281079Y335052D02*
X280995Y335050D01*
X280910Y335044D01*
X280827Y335034D01*
X280743Y335021D01*
X280661Y335003D01*
X280579Y334982D01*
X280499Y334957D01*
X280419Y334928D01*
X280341Y334895D01*
X280265Y334859D01*
X280191Y334819D01*
X280118Y334776D01*
X280048Y334730D01*
X279979Y334680D01*
X279914Y334627D01*
X279850Y334572D01*
X279790Y334513D01*
X279732Y334452D01*
X279677Y334388D01*
X279625Y334321D01*
X279576Y334252D01*
X279531Y334181D01*
X279488Y334108D01*
X279450Y334033D01*
X279415Y333956D01*
X279383Y333878D01*
X279355Y333798D01*
X282019Y332545D02*
X282073Y332599D01*
X282124Y332656D01*
X282173Y332716D01*
X282218Y332777D01*
X282260Y332841D01*
X282299Y332908D01*
X282335Y332976D01*
X282367Y333045D01*
X282395Y333116D01*
X282420Y333189D01*
X282441Y333263D01*
X282458Y333337D01*
X282472Y333413D01*
X282481Y333489D01*
X282487Y333565D01*
X282489Y333642D01*
X282019Y332545D02*
X279355Y329411D01*
X282489Y329411D01*
D15*
X543800Y97100D02*
X641800Y97100D01*
X543800Y97100D02*
X543800Y147100D01*
X641800Y147100D01*
X641800Y97100D01*
X638800Y91100D02*
X638802Y91163D01*
X638808Y91225D01*
X638818Y91287D01*
X638831Y91349D01*
X638849Y91409D01*
X638870Y91468D01*
X638895Y91526D01*
X638924Y91582D01*
X638956Y91636D01*
X638991Y91688D01*
X639029Y91737D01*
X639071Y91785D01*
X639115Y91829D01*
X639163Y91871D01*
X639212Y91909D01*
X639264Y91944D01*
X639318Y91976D01*
X639374Y92005D01*
X639432Y92030D01*
X639491Y92051D01*
X639551Y92069D01*
X639613Y92082D01*
X639675Y92092D01*
X639737Y92098D01*
X639800Y92100D01*
X639863Y92098D01*
X639925Y92092D01*
X639987Y92082D01*
X640049Y92069D01*
X640109Y92051D01*
X640168Y92030D01*
X640226Y92005D01*
X640282Y91976D01*
X640336Y91944D01*
X640388Y91909D01*
X640437Y91871D01*
X640485Y91829D01*
X640529Y91785D01*
X640571Y91737D01*
X640609Y91688D01*
X640644Y91636D01*
X640676Y91582D01*
X640705Y91526D01*
X640730Y91468D01*
X640751Y91409D01*
X640769Y91349D01*
X640782Y91287D01*
X640792Y91225D01*
X640798Y91163D01*
X640800Y91100D01*
X640798Y91037D01*
X640792Y90975D01*
X640782Y90913D01*
X640769Y90851D01*
X640751Y90791D01*
X640730Y90732D01*
X640705Y90674D01*
X640676Y90618D01*
X640644Y90564D01*
X640609Y90512D01*
X640571Y90463D01*
X640529Y90415D01*
X640485Y90371D01*
X640437Y90329D01*
X640388Y90291D01*
X640336Y90256D01*
X640282Y90224D01*
X640226Y90195D01*
X640168Y90170D01*
X640109Y90149D01*
X640049Y90131D01*
X639987Y90118D01*
X639925Y90108D01*
X639863Y90102D01*
X639800Y90100D01*
X639737Y90102D01*
X639675Y90108D01*
X639613Y90118D01*
X639551Y90131D01*
X639491Y90149D01*
X639432Y90170D01*
X639374Y90195D01*
X639318Y90224D01*
X639264Y90256D01*
X639212Y90291D01*
X639163Y90329D01*
X639115Y90371D01*
X639071Y90415D01*
X639029Y90463D01*
X638991Y90512D01*
X638956Y90564D01*
X638924Y90618D01*
X638895Y90674D01*
X638870Y90732D01*
X638849Y90791D01*
X638831Y90851D01*
X638818Y90913D01*
X638808Y90975D01*
X638802Y91037D01*
X638800Y91100D01*
D21*
X592260Y86481D02*
X589181Y95719D01*
X595340Y95719D02*
X592260Y86481D01*
X599051Y86481D02*
X599051Y95719D01*
X601617Y95719D01*
X601716Y95717D01*
X601816Y95711D01*
X601915Y95702D01*
X602013Y95688D01*
X602111Y95671D01*
X602209Y95650D01*
X602305Y95625D01*
X602400Y95596D01*
X602495Y95564D01*
X602587Y95528D01*
X602679Y95489D01*
X602769Y95446D01*
X602857Y95400D01*
X602943Y95350D01*
X603027Y95297D01*
X603109Y95241D01*
X603189Y95181D01*
X603266Y95119D01*
X603341Y95053D01*
X603414Y94985D01*
X603483Y94914D01*
X603550Y94840D01*
X603614Y94764D01*
X603675Y94685D01*
X603733Y94604D01*
X603788Y94521D01*
X603839Y94436D01*
X603887Y94349D01*
X603932Y94260D01*
X603973Y94169D01*
X604011Y94077D01*
X604045Y93984D01*
X604075Y93889D01*
X604102Y93793D01*
X604125Y93696D01*
X604144Y93599D01*
X604159Y93500D01*
X604171Y93401D01*
X604179Y93302D01*
X604183Y93203D01*
X604183Y93103D01*
X604179Y93004D01*
X604171Y92905D01*
X604159Y92806D01*
X604144Y92707D01*
X604125Y92610D01*
X604102Y92513D01*
X604075Y92417D01*
X604045Y92322D01*
X604011Y92229D01*
X603973Y92137D01*
X603932Y92046D01*
X603887Y91957D01*
X603839Y91870D01*
X603788Y91785D01*
X603733Y91702D01*
X603675Y91621D01*
X603614Y91542D01*
X603550Y91466D01*
X603483Y91392D01*
X603414Y91321D01*
X603341Y91253D01*
X603266Y91187D01*
X603189Y91125D01*
X603109Y91065D01*
X603027Y91009D01*
X602943Y90956D01*
X602857Y90906D01*
X602769Y90860D01*
X602679Y90817D01*
X602587Y90778D01*
X602495Y90742D01*
X602400Y90710D01*
X602305Y90681D01*
X602209Y90656D01*
X602111Y90635D01*
X602013Y90618D01*
X601915Y90604D01*
X601816Y90595D01*
X601716Y90589D01*
X601617Y90587D01*
X599051Y90587D01*
X602130Y90587D02*
X604183Y86481D01*
X607994Y93666D02*
X610560Y95719D01*
X610560Y86481D01*
X607994Y86481D02*
X613126Y86481D01*
M02*
