G04 EAGLE Gerber RS-274X export*
G75*
%MOMM*%
%FSLAX34Y34*%
%LPD*%
%INSoldermask Top*%
%IPPOS*%
%AMOC8*
5,1,8,0,0,1.08239X$1,22.5*%
G01*
%ADD10R,1.303200X1.303200*%
%ADD11R,0.453200X0.333200*%
%ADD12R,0.453200X0.353200*%
%ADD13R,0.363200X0.353200*%
%ADD14C,1.524000*%
%ADD15R,0.403200X0.403200*%
%ADD16R,2.743200X1.473200*%
%ADD17R,1.853200X3.633200*%
%ADD18R,1.473200X2.743200*%
%ADD19R,3.633200X1.853200*%
%ADD20R,3.309200X3.309200*%
%ADD21C,3.309200*%
%ADD22C,3.053200*%
%ADD23R,3.123200X1.473200*%
%ADD24R,1.028200X1.918200*%
%ADD25C,0.353406*%
%ADD26R,0.903200X0.903200*%
%ADD27C,0.509078*%
%ADD28R,1.211200X1.211200*%
%ADD29C,1.211200*%
%ADD30C,0.959600*%
%ADD31C,1.109600*%
%ADD32C,1.209600*%
%ADD33C,1.703200*%
%ADD34C,1.159600*%
%ADD35C,1.009600*%
%ADD36C,1.409600*%


D10*
X544000Y601000D03*
X566000Y601000D03*
X543500Y617500D03*
X565500Y617500D03*
X415000Y715000D03*
X415000Y693000D03*
X160900Y394000D03*
X160900Y372000D03*
X537100Y523900D03*
X537100Y545900D03*
X664400Y124700D03*
X664400Y102700D03*
D11*
X86700Y221700D03*
D12*
X86700Y216470D03*
D13*
X83100Y219300D03*
D14*
X296596Y265000D02*
X309804Y265000D01*
X398196Y265000D02*
X411404Y265000D01*
X257804Y707600D02*
X244596Y707600D01*
X346196Y707600D02*
X359404Y707600D01*
X258304Y730600D02*
X245096Y730600D01*
X346696Y730600D02*
X359904Y730600D01*
X259804Y753600D02*
X246596Y753600D01*
X348196Y753600D02*
X361404Y753600D01*
D15*
X542800Y561500D03*
X542800Y555500D03*
D16*
X160800Y442700D03*
X160800Y412700D03*
D17*
X128800Y479700D03*
X128800Y375700D03*
D18*
X733500Y137800D03*
X763500Y137800D03*
D19*
X696500Y105800D03*
X800500Y105800D03*
D18*
X335800Y140800D03*
X365800Y140800D03*
D19*
X298800Y108800D03*
X402800Y108800D03*
D20*
X127300Y142400D03*
D21*
X207800Y122400D03*
X151800Y122400D03*
D22*
X138300Y184900D03*
X227300Y184900D03*
X227300Y98900D03*
D23*
X144300Y572600D03*
X144300Y602600D03*
X144300Y632600D03*
X144300Y662600D03*
X144300Y692600D03*
X144300Y722600D03*
X144300Y752600D03*
X190300Y752600D03*
X190300Y722600D03*
X190300Y692600D03*
X190300Y662600D03*
X190300Y632600D03*
X191300Y602600D03*
X191300Y572600D03*
D24*
X246100Y552600D03*
X246100Y772600D03*
D25*
X707851Y538599D02*
X707851Y527801D01*
X707851Y538599D02*
X712349Y538599D01*
X712349Y527801D01*
X707851Y527801D01*
X707851Y531158D02*
X712349Y531158D01*
X712349Y534515D02*
X707851Y534515D01*
X707851Y537872D02*
X712349Y537872D01*
X698351Y517399D02*
X698351Y506601D01*
X698351Y517399D02*
X702849Y517399D01*
X702849Y506601D01*
X698351Y506601D01*
X698351Y509958D02*
X702849Y509958D01*
X702849Y513315D02*
X698351Y513315D01*
X698351Y516672D02*
X702849Y516672D01*
X688851Y527801D02*
X688851Y538599D01*
X693349Y538599D01*
X693349Y527801D01*
X688851Y527801D01*
X688851Y531158D02*
X693349Y531158D01*
X693349Y534515D02*
X688851Y534515D01*
X688851Y537872D02*
X693349Y537872D01*
X786851Y479399D02*
X786851Y468601D01*
X786851Y479399D02*
X791349Y479399D01*
X791349Y468601D01*
X786851Y468601D01*
X786851Y471958D02*
X791349Y471958D01*
X791349Y475315D02*
X786851Y475315D01*
X786851Y478672D02*
X791349Y478672D01*
X777351Y458199D02*
X777351Y447401D01*
X777351Y458199D02*
X781849Y458199D01*
X781849Y447401D01*
X777351Y447401D01*
X777351Y450758D02*
X781849Y450758D01*
X781849Y454115D02*
X777351Y454115D01*
X777351Y457472D02*
X781849Y457472D01*
X767851Y468601D02*
X767851Y479399D01*
X772349Y479399D01*
X772349Y468601D01*
X767851Y468601D01*
X767851Y471958D02*
X772349Y471958D01*
X772349Y475315D02*
X767851Y475315D01*
X767851Y478672D02*
X772349Y478672D01*
X773851Y425699D02*
X773851Y414901D01*
X773851Y425699D02*
X778349Y425699D01*
X778349Y414901D01*
X773851Y414901D01*
X773851Y418258D02*
X778349Y418258D01*
X778349Y421615D02*
X773851Y421615D01*
X773851Y424972D02*
X778349Y424972D01*
X764351Y404499D02*
X764351Y393701D01*
X764351Y404499D02*
X768849Y404499D01*
X768849Y393701D01*
X764351Y393701D01*
X764351Y397058D02*
X768849Y397058D01*
X768849Y400415D02*
X764351Y400415D01*
X764351Y403772D02*
X768849Y403772D01*
X754851Y414901D02*
X754851Y425699D01*
X759349Y425699D01*
X759349Y414901D01*
X754851Y414901D01*
X754851Y418258D02*
X759349Y418258D01*
X759349Y421615D02*
X754851Y421615D01*
X754851Y424972D02*
X759349Y424972D01*
X266499Y258649D02*
X255701Y258649D01*
X266499Y258649D02*
X266499Y254151D01*
X255701Y254151D01*
X255701Y258649D01*
X255701Y257508D02*
X266499Y257508D01*
X245299Y268149D02*
X234501Y268149D01*
X245299Y268149D02*
X245299Y263651D01*
X234501Y263651D01*
X234501Y268149D01*
X234501Y267008D02*
X245299Y267008D01*
X255701Y277649D02*
X266499Y277649D01*
X266499Y273151D01*
X255701Y273151D01*
X255701Y277649D01*
X255701Y276508D02*
X266499Y276508D01*
D10*
X611500Y508000D03*
X611500Y530000D03*
X432000Y714000D03*
X432000Y692000D03*
X405000Y314000D03*
X383000Y314000D03*
X699500Y438500D03*
X699500Y416500D03*
X764000Y355000D03*
X764000Y377000D03*
X645300Y545400D03*
X667300Y545400D03*
D26*
X394000Y694300D03*
X394000Y719700D03*
D27*
X280771Y321871D02*
X280771Y319129D01*
X269929Y319129D01*
X269929Y321871D01*
X280771Y321871D01*
X280771Y312371D02*
X280771Y309629D01*
X269929Y309629D01*
X269929Y312371D01*
X280771Y312371D01*
X280771Y302871D02*
X280771Y300129D01*
X269929Y300129D01*
X269929Y302871D01*
X280771Y302871D01*
X304071Y302871D02*
X304071Y300129D01*
X293229Y300129D01*
X293229Y302871D01*
X304071Y302871D01*
X304071Y319129D02*
X304071Y321871D01*
X304071Y319129D02*
X293229Y319129D01*
X293229Y321871D01*
X304071Y321871D01*
D28*
X618200Y122100D03*
D29*
X592800Y122100D03*
X567800Y122100D03*
D30*
X510000Y302000D03*
X487000Y277000D03*
X498000Y326000D03*
X467000Y275500D03*
X441000Y375000D03*
X555000Y391000D03*
X583000Y459000D03*
X446500Y696000D03*
X631000Y372000D03*
X448500Y386000D03*
X410000Y385000D03*
X362000Y524000D03*
X522000Y343000D03*
X591068Y261000D03*
X593500Y231000D03*
D31*
X662000Y273000D03*
X635000Y264000D03*
X570500Y540500D03*
X664000Y452000D03*
X719000Y398000D03*
D30*
X472000Y348000D03*
X442000Y339000D03*
D31*
X575500Y398500D03*
X560000Y375500D03*
D30*
X327000Y315000D03*
D31*
X423500Y401000D03*
D32*
X440000Y460000D03*
D31*
X437000Y600000D03*
D33*
X383000Y229000D03*
D30*
X554000Y412000D03*
D31*
X440514Y404068D03*
D30*
X284000Y380000D03*
D31*
X276500Y503000D03*
D30*
X539000Y567500D03*
X454500Y393000D03*
D31*
X630000Y426000D03*
D30*
X189000Y408000D03*
X178000Y395000D03*
X374000Y419000D03*
D34*
X495000Y611000D03*
D30*
X676000Y452500D03*
D31*
X326000Y593000D03*
D30*
X786500Y363000D03*
X225000Y774000D03*
D31*
X145300Y737600D03*
D30*
X795000Y414000D03*
X146000Y560000D03*
D35*
X149000Y590000D03*
X125942Y764000D03*
D30*
X200500Y706500D03*
X183000Y674500D03*
D36*
X321000Y624000D03*
M02*
