G04 EAGLE Gerber RS-274X export*
G75*
%MOMM*%
%FSLAX34Y34*%
%LPD*%
%INSolderpaste Bottom*%
%IPPOS*%
%AMOC8*
5,1,8,0,0,1.08239X$1,22.5*%
G01*
%ADD10R,1.100000X1.100000*%
%ADD11R,2.500000X2.900000*%
%ADD12R,0.200000X0.200000*%
%ADD13R,1.500000X3.100000*%
%ADD14R,0.700000X0.700000*%
%ADD15R,0.965200X0.254000*%
%ADD16R,0.254000X0.965200*%

G36*
X494516Y410360D02*
X494516Y410360D01*
X494518Y410359D01*
X494561Y410379D01*
X494605Y410398D01*
X494606Y410400D01*
X494608Y410401D01*
X494641Y410486D01*
X494641Y424657D01*
X494640Y424659D01*
X494641Y424661D01*
X494621Y424704D01*
X494602Y424748D01*
X494600Y424748D01*
X494599Y424750D01*
X494514Y424783D01*
X480343Y424783D01*
X480341Y424782D01*
X480339Y424783D01*
X480296Y424763D01*
X480252Y424745D01*
X480252Y424743D01*
X480250Y424742D01*
X480217Y424657D01*
X480217Y410486D01*
X480218Y410484D01*
X480217Y410482D01*
X480237Y410439D01*
X480255Y410395D01*
X480257Y410394D01*
X480258Y410392D01*
X480343Y410359D01*
X494514Y410359D01*
X494516Y410360D01*
G37*
G36*
X526859Y410360D02*
X526859Y410360D01*
X526861Y410359D01*
X526904Y410379D01*
X526948Y410398D01*
X526948Y410400D01*
X526950Y410401D01*
X526983Y410486D01*
X526983Y424657D01*
X526982Y424659D01*
X526983Y424661D01*
X526963Y424704D01*
X526945Y424748D01*
X526943Y424748D01*
X526942Y424750D01*
X526857Y424783D01*
X512686Y424783D01*
X512684Y424782D01*
X512682Y424783D01*
X512639Y424763D01*
X512595Y424745D01*
X512594Y424743D01*
X512592Y424742D01*
X512559Y424657D01*
X512559Y410486D01*
X512560Y410484D01*
X512559Y410482D01*
X512579Y410439D01*
X512598Y410395D01*
X512600Y410394D01*
X512601Y410392D01*
X512686Y410359D01*
X526857Y410359D01*
X526859Y410360D01*
G37*
G36*
X494516Y378018D02*
X494516Y378018D01*
X494518Y378017D01*
X494561Y378037D01*
X494605Y378055D01*
X494606Y378057D01*
X494608Y378058D01*
X494641Y378143D01*
X494641Y392314D01*
X494640Y392316D01*
X494641Y392318D01*
X494621Y392361D01*
X494602Y392405D01*
X494600Y392406D01*
X494599Y392408D01*
X494514Y392441D01*
X480343Y392441D01*
X480341Y392440D01*
X480339Y392441D01*
X480296Y392421D01*
X480252Y392402D01*
X480252Y392400D01*
X480250Y392399D01*
X480217Y392314D01*
X480217Y378143D01*
X480218Y378141D01*
X480217Y378139D01*
X480237Y378096D01*
X480255Y378052D01*
X480257Y378052D01*
X480258Y378050D01*
X480343Y378017D01*
X494514Y378017D01*
X494516Y378018D01*
G37*
G36*
X526859Y378018D02*
X526859Y378018D01*
X526861Y378017D01*
X526904Y378037D01*
X526948Y378055D01*
X526948Y378057D01*
X526950Y378058D01*
X526983Y378143D01*
X526983Y392314D01*
X526982Y392316D01*
X526983Y392318D01*
X526963Y392361D01*
X526945Y392405D01*
X526943Y392406D01*
X526942Y392408D01*
X526857Y392441D01*
X512686Y392441D01*
X512684Y392440D01*
X512682Y392441D01*
X512639Y392421D01*
X512595Y392402D01*
X512594Y392400D01*
X512592Y392399D01*
X512559Y392314D01*
X512559Y378143D01*
X512560Y378141D01*
X512559Y378139D01*
X512579Y378096D01*
X512598Y378052D01*
X512600Y378052D01*
X512601Y378050D01*
X512686Y378017D01*
X526857Y378017D01*
X526859Y378018D01*
G37*
G36*
X510688Y410360D02*
X510688Y410360D01*
X510690Y410359D01*
X510733Y410379D01*
X510776Y410398D01*
X510777Y410400D01*
X510779Y410401D01*
X510812Y410486D01*
X510812Y424657D01*
X510811Y424659D01*
X510812Y424661D01*
X510792Y424704D01*
X510774Y424748D01*
X510771Y424748D01*
X510771Y424750D01*
X510686Y424783D01*
X496514Y424783D01*
X496512Y424782D01*
X496510Y424783D01*
X496467Y424763D01*
X496424Y424745D01*
X496423Y424743D01*
X496421Y424742D01*
X496388Y424657D01*
X496388Y410486D01*
X496389Y410484D01*
X496388Y410482D01*
X496408Y410439D01*
X496427Y410395D01*
X496429Y410394D01*
X496429Y410392D01*
X496514Y410359D01*
X510686Y410359D01*
X510688Y410360D01*
G37*
G36*
X494516Y394189D02*
X494516Y394189D01*
X494518Y394188D01*
X494561Y394208D01*
X494605Y394227D01*
X494606Y394229D01*
X494608Y394229D01*
X494641Y394314D01*
X494641Y408486D01*
X494640Y408488D01*
X494641Y408490D01*
X494621Y408533D01*
X494602Y408576D01*
X494600Y408577D01*
X494599Y408579D01*
X494514Y408612D01*
X480343Y408612D01*
X480341Y408611D01*
X480339Y408612D01*
X480296Y408592D01*
X480252Y408574D01*
X480252Y408571D01*
X480250Y408571D01*
X480217Y408486D01*
X480217Y394314D01*
X480218Y394312D01*
X480217Y394310D01*
X480237Y394267D01*
X480255Y394224D01*
X480257Y394223D01*
X480258Y394221D01*
X480343Y394188D01*
X494514Y394188D01*
X494516Y394189D01*
G37*
G36*
X526859Y394189D02*
X526859Y394189D01*
X526861Y394188D01*
X526904Y394208D01*
X526948Y394227D01*
X526948Y394229D01*
X526950Y394229D01*
X526983Y394314D01*
X526983Y408486D01*
X526982Y408488D01*
X526983Y408490D01*
X526963Y408533D01*
X526945Y408576D01*
X526943Y408577D01*
X526942Y408579D01*
X526857Y408612D01*
X512686Y408612D01*
X512684Y408611D01*
X512682Y408612D01*
X512639Y408592D01*
X512595Y408574D01*
X512594Y408571D01*
X512592Y408571D01*
X512559Y408486D01*
X512559Y394314D01*
X512560Y394312D01*
X512559Y394310D01*
X512579Y394267D01*
X512598Y394224D01*
X512600Y394223D01*
X512601Y394221D01*
X512686Y394188D01*
X526857Y394188D01*
X526859Y394189D01*
G37*
G36*
X510688Y378018D02*
X510688Y378018D01*
X510690Y378017D01*
X510733Y378037D01*
X510776Y378055D01*
X510777Y378057D01*
X510779Y378058D01*
X510812Y378143D01*
X510812Y392314D01*
X510811Y392316D01*
X510812Y392318D01*
X510792Y392361D01*
X510774Y392405D01*
X510771Y392406D01*
X510771Y392408D01*
X510686Y392441D01*
X496514Y392441D01*
X496512Y392440D01*
X496510Y392441D01*
X496467Y392421D01*
X496424Y392402D01*
X496423Y392400D01*
X496421Y392399D01*
X496388Y392314D01*
X496388Y378143D01*
X496389Y378141D01*
X496388Y378139D01*
X496408Y378096D01*
X496427Y378052D01*
X496429Y378052D01*
X496429Y378050D01*
X496514Y378017D01*
X510686Y378017D01*
X510688Y378018D01*
G37*
G36*
X510688Y394189D02*
X510688Y394189D01*
X510690Y394188D01*
X510733Y394208D01*
X510776Y394227D01*
X510777Y394229D01*
X510779Y394229D01*
X510812Y394314D01*
X510812Y408486D01*
X510811Y408488D01*
X510812Y408490D01*
X510792Y408533D01*
X510774Y408576D01*
X510771Y408577D01*
X510771Y408579D01*
X510686Y408612D01*
X496514Y408612D01*
X496512Y408611D01*
X496510Y408612D01*
X496467Y408592D01*
X496424Y408574D01*
X496423Y408571D01*
X496421Y408571D01*
X496388Y408486D01*
X496388Y394314D01*
X496389Y394312D01*
X496388Y394310D01*
X496408Y394267D01*
X496427Y394224D01*
X496429Y394223D01*
X496429Y394221D01*
X496514Y394188D01*
X510686Y394188D01*
X510688Y394189D01*
G37*
D10*
X563000Y441000D03*
X585000Y441000D03*
D11*
X284900Y413700D03*
X284900Y318700D03*
D10*
X516000Y586000D03*
X538000Y586000D03*
X385000Y449000D03*
X385000Y427000D03*
X503000Y586000D03*
X481000Y586000D03*
X563000Y249000D03*
X585000Y249000D03*
X455000Y631500D03*
X455000Y609500D03*
D12*
X643000Y428000D03*
X637000Y428000D03*
X394500Y417500D03*
X388500Y417500D03*
X481000Y595000D03*
X481000Y601000D03*
X563000Y232000D03*
X563000Y238000D03*
D13*
X496100Y174900D03*
X461100Y174900D03*
X426100Y174900D03*
D10*
X523000Y247000D03*
X501000Y247000D03*
X465000Y246600D03*
X487000Y246600D03*
X502000Y228000D03*
X524000Y228000D03*
X430000Y247000D03*
X452000Y247000D03*
X391000Y385000D03*
X369000Y385000D03*
X451600Y264600D03*
X429600Y264600D03*
X634000Y248000D03*
X656000Y248000D03*
X598000Y248000D03*
X620000Y248000D03*
D14*
X718000Y386300D03*
X718000Y411700D03*
X651000Y399300D03*
X651000Y424700D03*
X585800Y608400D03*
X585800Y633800D03*
D10*
X467000Y229000D03*
X489000Y229000D03*
X453000Y229000D03*
X431000Y229000D03*
X452000Y476000D03*
X452000Y498000D03*
X592000Y401000D03*
X614000Y401000D03*
D15*
X537382Y426400D03*
X537382Y421400D03*
X537382Y416400D03*
X537382Y411400D03*
X537382Y406400D03*
X537382Y401400D03*
X537382Y396400D03*
X537382Y391400D03*
X537382Y386400D03*
X537382Y381400D03*
X537382Y376400D03*
D16*
X528600Y367618D03*
X523600Y367618D03*
X518600Y367618D03*
X513600Y367618D03*
X508600Y367618D03*
X503600Y367618D03*
X498600Y367618D03*
X493600Y367618D03*
X488600Y367618D03*
X483600Y367618D03*
X478600Y367618D03*
D15*
X469818Y376400D03*
X469818Y381400D03*
X469818Y386400D03*
X469818Y391400D03*
X469818Y396400D03*
X469818Y401400D03*
X469818Y406400D03*
X469818Y411400D03*
X469818Y416400D03*
X469818Y421400D03*
X469818Y426400D03*
D16*
X478600Y435182D03*
X483600Y435182D03*
X488600Y435182D03*
X493600Y435182D03*
X498600Y435182D03*
X503600Y435182D03*
X508600Y435182D03*
X513600Y435182D03*
X518600Y435182D03*
X523600Y435182D03*
X528600Y435182D03*
M02*
