G04 EAGLE Gerber RS-274X export*
G75*
%MOMM*%
%FSLAX34Y34*%
%LPD*%
%INSilkscreen Bottom*%
%IPPOS*%
%AMOC8*
5,1,8,0,0,1.08239X$1,22.5*%
G01*
%ADD10C,0.100000*%
%ADD11C,0.025400*%
%ADD12C,0.203200*%
%ADD13C,0.101600*%
%ADD14C,0.000000*%
%ADD15C,0.127000*%
%ADD16C,0.050800*%
%ADD17C,0.152400*%
%ADD18C,0.076200*%

G36*
X510507Y442423D02*
X510507Y442423D01*
X510509Y442422D01*
X510552Y442442D01*
X510596Y442460D01*
X510596Y442462D01*
X510598Y442463D01*
X510631Y442548D01*
X510631Y445088D01*
X510630Y445090D01*
X510631Y445092D01*
X510611Y445135D01*
X510593Y445179D01*
X510591Y445179D01*
X510590Y445181D01*
X510505Y445214D01*
X506695Y445214D01*
X506693Y445213D01*
X506691Y445214D01*
X506648Y445194D01*
X506604Y445176D01*
X506604Y445174D01*
X506602Y445173D01*
X506569Y445088D01*
X506569Y442548D01*
X506570Y442546D01*
X506569Y442544D01*
X506589Y442501D01*
X506607Y442457D01*
X506609Y442457D01*
X506610Y442455D01*
X506695Y442422D01*
X510505Y442422D01*
X510507Y442423D01*
G37*
G36*
X462454Y409370D02*
X462454Y409370D01*
X462456Y409369D01*
X462499Y409389D01*
X462543Y409407D01*
X462543Y409409D01*
X462545Y409410D01*
X462578Y409495D01*
X462578Y413305D01*
X462577Y413307D01*
X462578Y413309D01*
X462558Y413352D01*
X462540Y413396D01*
X462538Y413396D01*
X462537Y413398D01*
X462452Y413431D01*
X459912Y413431D01*
X459910Y413430D01*
X459908Y413431D01*
X459865Y413411D01*
X459821Y413393D01*
X459821Y413391D01*
X459819Y413390D01*
X459786Y413305D01*
X459786Y409495D01*
X459787Y409493D01*
X459786Y409491D01*
X459806Y409448D01*
X459824Y409404D01*
X459826Y409404D01*
X459827Y409402D01*
X459912Y409369D01*
X462452Y409369D01*
X462454Y409370D01*
G37*
G36*
X547290Y379370D02*
X547290Y379370D01*
X547292Y379369D01*
X547335Y379389D01*
X547379Y379407D01*
X547379Y379409D01*
X547381Y379410D01*
X547414Y379495D01*
X547414Y383305D01*
X547413Y383307D01*
X547414Y383309D01*
X547394Y383352D01*
X547376Y383396D01*
X547374Y383396D01*
X547373Y383398D01*
X547288Y383431D01*
X544748Y383431D01*
X544746Y383430D01*
X544744Y383431D01*
X544701Y383411D01*
X544657Y383393D01*
X544657Y383391D01*
X544655Y383390D01*
X544622Y383305D01*
X544622Y379495D01*
X544623Y379493D01*
X544622Y379491D01*
X544642Y379448D01*
X544660Y379404D01*
X544662Y379404D01*
X544663Y379402D01*
X544748Y379369D01*
X547288Y379369D01*
X547290Y379370D01*
G37*
G36*
X490507Y357587D02*
X490507Y357587D01*
X490509Y357586D01*
X490552Y357606D01*
X490596Y357624D01*
X490596Y357626D01*
X490598Y357627D01*
X490631Y357712D01*
X490631Y360252D01*
X490630Y360254D01*
X490631Y360256D01*
X490611Y360299D01*
X490593Y360343D01*
X490591Y360343D01*
X490590Y360345D01*
X490505Y360378D01*
X486695Y360378D01*
X486693Y360377D01*
X486691Y360378D01*
X486648Y360358D01*
X486604Y360340D01*
X486604Y360338D01*
X486602Y360337D01*
X486569Y360252D01*
X486569Y357712D01*
X486570Y357710D01*
X486569Y357708D01*
X486589Y357665D01*
X486607Y357621D01*
X486609Y357621D01*
X486610Y357619D01*
X486695Y357586D01*
X490505Y357586D01*
X490507Y357587D01*
G37*
D10*
X560000Y435000D02*
X588000Y435000D01*
X588000Y447000D01*
X560000Y447000D01*
X560000Y435000D01*
D11*
X579259Y447627D02*
X579758Y447627D01*
X579801Y447629D01*
X579845Y447635D01*
X579887Y447644D01*
X579929Y447657D01*
X579969Y447674D01*
X580008Y447694D01*
X580044Y447717D01*
X580079Y447744D01*
X580111Y447773D01*
X580140Y447805D01*
X580167Y447840D01*
X580190Y447877D01*
X580210Y447915D01*
X580227Y447955D01*
X580240Y447997D01*
X580249Y448039D01*
X580255Y448083D01*
X580257Y448126D01*
X580257Y449374D01*
X580255Y449417D01*
X580249Y449461D01*
X580240Y449503D01*
X580227Y449545D01*
X580210Y449585D01*
X580190Y449623D01*
X580167Y449660D01*
X580140Y449695D01*
X580111Y449727D01*
X580079Y449756D01*
X580044Y449783D01*
X580008Y449806D01*
X579969Y449826D01*
X579929Y449843D01*
X579887Y449856D01*
X579845Y449865D01*
X579802Y449871D01*
X579758Y449873D01*
X579259Y449873D01*
X578375Y449374D02*
X577751Y449873D01*
X577751Y447627D01*
X578375Y447627D02*
X577127Y447627D01*
D12*
X303400Y417700D02*
X303400Y314700D01*
X266400Y314700D01*
X266400Y417700D01*
X271400Y399200D02*
X267400Y398200D01*
X298400Y399200D02*
X302400Y398200D01*
D13*
X310808Y318801D02*
X310808Y316204D01*
X310810Y316105D01*
X310816Y316005D01*
X310825Y315906D01*
X310838Y315808D01*
X310855Y315710D01*
X310876Y315612D01*
X310901Y315516D01*
X310929Y315421D01*
X310961Y315327D01*
X310996Y315234D01*
X311035Y315142D01*
X311078Y315052D01*
X311123Y314964D01*
X311173Y314877D01*
X311225Y314793D01*
X311281Y314710D01*
X311339Y314630D01*
X311401Y314552D01*
X311466Y314477D01*
X311534Y314404D01*
X311604Y314334D01*
X311677Y314266D01*
X311752Y314201D01*
X311830Y314139D01*
X311910Y314081D01*
X311993Y314025D01*
X312077Y313973D01*
X312164Y313923D01*
X312252Y313878D01*
X312342Y313835D01*
X312434Y313796D01*
X312527Y313761D01*
X312621Y313729D01*
X312716Y313701D01*
X312812Y313676D01*
X312910Y313655D01*
X313008Y313638D01*
X313106Y313625D01*
X313205Y313616D01*
X313305Y313610D01*
X313404Y313608D01*
X319896Y313608D01*
X319995Y313610D01*
X320095Y313616D01*
X320194Y313625D01*
X320292Y313638D01*
X320390Y313655D01*
X320488Y313676D01*
X320584Y313701D01*
X320679Y313729D01*
X320773Y313761D01*
X320866Y313796D01*
X320958Y313835D01*
X321048Y313878D01*
X321136Y313923D01*
X321223Y313973D01*
X321307Y314025D01*
X321390Y314081D01*
X321470Y314139D01*
X321548Y314201D01*
X321623Y314266D01*
X321696Y314334D01*
X321766Y314404D01*
X321834Y314477D01*
X321899Y314552D01*
X321961Y314630D01*
X322019Y314710D01*
X322075Y314793D01*
X322127Y314877D01*
X322177Y314964D01*
X322222Y315052D01*
X322265Y315142D01*
X322304Y315234D01*
X322339Y315326D01*
X322371Y315421D01*
X322399Y315516D01*
X322424Y315612D01*
X322445Y315710D01*
X322462Y315808D01*
X322475Y315906D01*
X322484Y316005D01*
X322490Y316105D01*
X322492Y316204D01*
X322492Y318801D01*
X319896Y323166D02*
X322492Y326412D01*
X310808Y326412D01*
X310808Y329657D02*
X310808Y323166D01*
X310808Y334596D02*
X310808Y337842D01*
X310810Y337955D01*
X310816Y338068D01*
X310826Y338181D01*
X310840Y338294D01*
X310857Y338406D01*
X310879Y338517D01*
X310904Y338627D01*
X310934Y338737D01*
X310967Y338845D01*
X311004Y338952D01*
X311044Y339058D01*
X311089Y339162D01*
X311137Y339265D01*
X311188Y339366D01*
X311243Y339465D01*
X311301Y339562D01*
X311363Y339657D01*
X311428Y339750D01*
X311496Y339840D01*
X311567Y339928D01*
X311642Y340014D01*
X311719Y340097D01*
X311799Y340177D01*
X311882Y340254D01*
X311968Y340329D01*
X312056Y340400D01*
X312146Y340468D01*
X312239Y340533D01*
X312334Y340595D01*
X312431Y340653D01*
X312530Y340708D01*
X312631Y340759D01*
X312734Y340807D01*
X312838Y340852D01*
X312944Y340892D01*
X313051Y340929D01*
X313159Y340962D01*
X313269Y340992D01*
X313379Y341017D01*
X313490Y341039D01*
X313602Y341056D01*
X313715Y341070D01*
X313828Y341080D01*
X313941Y341086D01*
X314054Y341088D01*
X314167Y341086D01*
X314280Y341080D01*
X314393Y341070D01*
X314506Y341056D01*
X314618Y341039D01*
X314729Y341017D01*
X314839Y340992D01*
X314949Y340962D01*
X315057Y340929D01*
X315164Y340892D01*
X315270Y340852D01*
X315374Y340807D01*
X315477Y340759D01*
X315578Y340708D01*
X315677Y340653D01*
X315774Y340595D01*
X315869Y340533D01*
X315962Y340468D01*
X316052Y340400D01*
X316140Y340329D01*
X316226Y340254D01*
X316309Y340177D01*
X316389Y340097D01*
X316466Y340014D01*
X316541Y339928D01*
X316612Y339840D01*
X316680Y339750D01*
X316745Y339657D01*
X316807Y339562D01*
X316865Y339465D01*
X316920Y339366D01*
X316971Y339265D01*
X317019Y339162D01*
X317064Y339058D01*
X317104Y338952D01*
X317141Y338845D01*
X317174Y338737D01*
X317204Y338627D01*
X317229Y338517D01*
X317251Y338406D01*
X317268Y338294D01*
X317282Y338181D01*
X317292Y338068D01*
X317298Y337955D01*
X317300Y337842D01*
X322492Y338491D02*
X322492Y334596D01*
X322492Y338491D02*
X322490Y338592D01*
X322484Y338692D01*
X322474Y338792D01*
X322461Y338892D01*
X322443Y338991D01*
X322422Y339090D01*
X322397Y339187D01*
X322368Y339284D01*
X322335Y339379D01*
X322299Y339473D01*
X322259Y339565D01*
X322216Y339656D01*
X322169Y339745D01*
X322119Y339832D01*
X322065Y339918D01*
X322008Y340001D01*
X321948Y340081D01*
X321885Y340160D01*
X321818Y340236D01*
X321749Y340309D01*
X321677Y340379D01*
X321603Y340447D01*
X321526Y340512D01*
X321446Y340573D01*
X321364Y340632D01*
X321280Y340687D01*
X321194Y340739D01*
X321106Y340788D01*
X321016Y340833D01*
X320924Y340875D01*
X320831Y340913D01*
X320736Y340947D01*
X320641Y340978D01*
X320544Y341005D01*
X320446Y341028D01*
X320347Y341048D01*
X320247Y341063D01*
X320147Y341075D01*
X320047Y341083D01*
X319946Y341087D01*
X319846Y341087D01*
X319745Y341083D01*
X319645Y341075D01*
X319545Y341063D01*
X319445Y341048D01*
X319346Y341028D01*
X319248Y341005D01*
X319151Y340978D01*
X319056Y340947D01*
X318961Y340913D01*
X318868Y340875D01*
X318776Y340833D01*
X318686Y340788D01*
X318598Y340739D01*
X318512Y340687D01*
X318428Y340632D01*
X318346Y340573D01*
X318266Y340512D01*
X318189Y340447D01*
X318115Y340379D01*
X318043Y340309D01*
X317974Y340236D01*
X317907Y340160D01*
X317844Y340081D01*
X317784Y340001D01*
X317727Y339918D01*
X317673Y339832D01*
X317623Y339745D01*
X317576Y339656D01*
X317533Y339565D01*
X317493Y339473D01*
X317457Y339379D01*
X317424Y339284D01*
X317395Y339187D01*
X317370Y339090D01*
X317349Y338991D01*
X317331Y338892D01*
X317318Y338792D01*
X317308Y338692D01*
X317302Y338592D01*
X317300Y338491D01*
X317299Y338491D02*
X317299Y335894D01*
D10*
X513000Y580000D02*
X541000Y580000D01*
X541000Y592000D01*
X513000Y592000D01*
X513000Y580000D01*
D11*
X532259Y592627D02*
X532758Y592627D01*
X532801Y592629D01*
X532845Y592635D01*
X532887Y592644D01*
X532929Y592657D01*
X532969Y592674D01*
X533008Y592694D01*
X533044Y592717D01*
X533079Y592744D01*
X533111Y592773D01*
X533140Y592805D01*
X533167Y592840D01*
X533190Y592877D01*
X533210Y592915D01*
X533227Y592955D01*
X533240Y592997D01*
X533249Y593039D01*
X533255Y593083D01*
X533257Y593126D01*
X533257Y594374D01*
X533255Y594417D01*
X533249Y594461D01*
X533240Y594503D01*
X533227Y594545D01*
X533210Y594585D01*
X533190Y594623D01*
X533167Y594660D01*
X533140Y594695D01*
X533111Y594727D01*
X533079Y594756D01*
X533044Y594783D01*
X533008Y594806D01*
X532969Y594826D01*
X532929Y594843D01*
X532887Y594856D01*
X532845Y594865D01*
X532802Y594871D01*
X532758Y594873D01*
X532259Y594873D01*
X530689Y594874D02*
X530643Y594872D01*
X530596Y594866D01*
X530551Y594857D01*
X530507Y594844D01*
X530463Y594827D01*
X530422Y594806D01*
X530382Y594782D01*
X530344Y594755D01*
X530308Y594725D01*
X530276Y594693D01*
X530246Y594657D01*
X530219Y594619D01*
X530195Y594579D01*
X530174Y594538D01*
X530157Y594494D01*
X530144Y594450D01*
X530135Y594405D01*
X530129Y594358D01*
X530127Y594312D01*
X530689Y594873D02*
X530739Y594871D01*
X530789Y594866D01*
X530839Y594857D01*
X530888Y594845D01*
X530936Y594829D01*
X530982Y594811D01*
X531028Y594788D01*
X531071Y594763D01*
X531113Y594735D01*
X531153Y594704D01*
X531190Y594670D01*
X531225Y594634D01*
X531257Y594595D01*
X531287Y594555D01*
X531314Y594512D01*
X531337Y594467D01*
X531358Y594421D01*
X531375Y594374D01*
X530314Y593875D02*
X530283Y593907D01*
X530255Y593941D01*
X530229Y593977D01*
X530205Y594015D01*
X530185Y594054D01*
X530167Y594095D01*
X530153Y594137D01*
X530142Y594180D01*
X530134Y594224D01*
X530129Y594268D01*
X530127Y594312D01*
X530314Y593875D02*
X531375Y592627D01*
X530127Y592627D01*
D10*
X379000Y452000D02*
X379000Y424000D01*
X391000Y424000D01*
X391000Y452000D01*
X379000Y452000D01*
D11*
X391627Y432741D02*
X391627Y432242D01*
X391629Y432199D01*
X391635Y432155D01*
X391644Y432113D01*
X391657Y432071D01*
X391674Y432031D01*
X391694Y431993D01*
X391717Y431956D01*
X391744Y431921D01*
X391773Y431889D01*
X391805Y431860D01*
X391840Y431833D01*
X391877Y431810D01*
X391915Y431790D01*
X391955Y431773D01*
X391997Y431760D01*
X392039Y431751D01*
X392083Y431745D01*
X392126Y431743D01*
X393374Y431743D01*
X393417Y431745D01*
X393461Y431751D01*
X393503Y431760D01*
X393545Y431773D01*
X393585Y431790D01*
X393623Y431810D01*
X393660Y431833D01*
X393695Y431860D01*
X393727Y431889D01*
X393756Y431921D01*
X393783Y431956D01*
X393806Y431992D01*
X393826Y432031D01*
X393843Y432071D01*
X393856Y432113D01*
X393865Y432155D01*
X393871Y432198D01*
X393873Y432242D01*
X393873Y432741D01*
X391627Y433625D02*
X391627Y434249D01*
X391629Y434298D01*
X391635Y434347D01*
X391644Y434395D01*
X391658Y434442D01*
X391674Y434488D01*
X391695Y434532D01*
X391719Y434575D01*
X391746Y434616D01*
X391777Y434654D01*
X391810Y434690D01*
X391846Y434723D01*
X391884Y434754D01*
X391925Y434781D01*
X391968Y434805D01*
X392012Y434826D01*
X392058Y434842D01*
X392105Y434856D01*
X392153Y434865D01*
X392202Y434871D01*
X392251Y434873D01*
X392300Y434871D01*
X392349Y434865D01*
X392397Y434856D01*
X392444Y434842D01*
X392490Y434826D01*
X392534Y434805D01*
X392577Y434781D01*
X392618Y434754D01*
X392656Y434723D01*
X392692Y434690D01*
X392725Y434654D01*
X392756Y434616D01*
X392783Y434575D01*
X392807Y434532D01*
X392828Y434488D01*
X392844Y434442D01*
X392858Y434395D01*
X392867Y434347D01*
X392873Y434298D01*
X392875Y434249D01*
X393873Y434374D02*
X393873Y433625D01*
X393873Y434374D02*
X393871Y434417D01*
X393865Y434461D01*
X393856Y434503D01*
X393843Y434545D01*
X393826Y434585D01*
X393806Y434624D01*
X393783Y434660D01*
X393756Y434695D01*
X393727Y434727D01*
X393695Y434756D01*
X393660Y434783D01*
X393624Y434806D01*
X393585Y434826D01*
X393545Y434843D01*
X393503Y434856D01*
X393461Y434865D01*
X393417Y434871D01*
X393374Y434873D01*
X393331Y434871D01*
X393287Y434865D01*
X393245Y434856D01*
X393203Y434843D01*
X393163Y434826D01*
X393125Y434806D01*
X393088Y434783D01*
X393053Y434756D01*
X393021Y434727D01*
X392992Y434695D01*
X392965Y434660D01*
X392942Y434624D01*
X392922Y434585D01*
X392905Y434545D01*
X392892Y434503D01*
X392883Y434461D01*
X392877Y434417D01*
X392875Y434374D01*
X392875Y433875D01*
D10*
X478000Y592000D02*
X506000Y592000D01*
X478000Y592000D02*
X478000Y580000D01*
X506000Y580000D01*
X506000Y592000D01*
D11*
X488374Y577127D02*
X487875Y577127D01*
X488374Y577127D02*
X488417Y577129D01*
X488461Y577135D01*
X488503Y577144D01*
X488545Y577157D01*
X488585Y577174D01*
X488624Y577194D01*
X488660Y577217D01*
X488695Y577244D01*
X488727Y577273D01*
X488756Y577305D01*
X488783Y577340D01*
X488806Y577377D01*
X488826Y577415D01*
X488843Y577455D01*
X488856Y577497D01*
X488865Y577539D01*
X488871Y577583D01*
X488873Y577626D01*
X488873Y578874D01*
X488871Y578917D01*
X488865Y578961D01*
X488856Y579003D01*
X488843Y579045D01*
X488826Y579085D01*
X488806Y579123D01*
X488783Y579160D01*
X488756Y579195D01*
X488727Y579227D01*
X488695Y579256D01*
X488660Y579283D01*
X488624Y579306D01*
X488585Y579326D01*
X488545Y579343D01*
X488503Y579356D01*
X488461Y579365D01*
X488418Y579371D01*
X488374Y579373D01*
X487875Y579373D01*
X486492Y579373D02*
X486991Y577626D01*
X485743Y577626D01*
X486117Y578125D02*
X486117Y577127D01*
D10*
X560000Y243000D02*
X588000Y243000D01*
X588000Y255000D01*
X560000Y255000D01*
X560000Y243000D01*
D11*
X579259Y255627D02*
X579758Y255627D01*
X579801Y255629D01*
X579845Y255635D01*
X579887Y255644D01*
X579929Y255657D01*
X579969Y255674D01*
X580008Y255694D01*
X580044Y255717D01*
X580079Y255744D01*
X580111Y255773D01*
X580140Y255805D01*
X580167Y255840D01*
X580190Y255877D01*
X580210Y255915D01*
X580227Y255955D01*
X580240Y255997D01*
X580249Y256039D01*
X580255Y256083D01*
X580257Y256126D01*
X580257Y257374D01*
X580255Y257417D01*
X580249Y257461D01*
X580240Y257503D01*
X580227Y257545D01*
X580210Y257585D01*
X580190Y257623D01*
X580167Y257660D01*
X580140Y257695D01*
X580111Y257727D01*
X580079Y257756D01*
X580044Y257783D01*
X580008Y257806D01*
X579969Y257826D01*
X579929Y257843D01*
X579887Y257856D01*
X579845Y257865D01*
X579802Y257871D01*
X579758Y257873D01*
X579259Y257873D01*
X578375Y255627D02*
X577626Y255627D01*
X577583Y255629D01*
X577539Y255635D01*
X577497Y255644D01*
X577455Y255657D01*
X577415Y255674D01*
X577377Y255694D01*
X577340Y255717D01*
X577305Y255744D01*
X577273Y255773D01*
X577244Y255805D01*
X577217Y255840D01*
X577194Y255877D01*
X577174Y255915D01*
X577157Y255955D01*
X577144Y255997D01*
X577135Y256039D01*
X577129Y256083D01*
X577127Y256126D01*
X577127Y256376D01*
X577129Y256419D01*
X577135Y256463D01*
X577144Y256505D01*
X577157Y256547D01*
X577174Y256587D01*
X577194Y256626D01*
X577217Y256662D01*
X577244Y256697D01*
X577273Y256729D01*
X577305Y256758D01*
X577340Y256785D01*
X577377Y256808D01*
X577415Y256828D01*
X577455Y256845D01*
X577497Y256858D01*
X577539Y256867D01*
X577583Y256873D01*
X577626Y256875D01*
X578375Y256875D01*
X578375Y257873D01*
X577127Y257873D01*
D10*
X449000Y606500D02*
X449000Y634500D01*
X449000Y606500D02*
X461000Y606500D01*
X461000Y634500D01*
X449000Y634500D01*
D11*
X461627Y615241D02*
X461627Y614742D01*
X461629Y614699D01*
X461635Y614655D01*
X461644Y614613D01*
X461657Y614571D01*
X461674Y614531D01*
X461694Y614493D01*
X461717Y614456D01*
X461744Y614421D01*
X461773Y614389D01*
X461805Y614360D01*
X461840Y614333D01*
X461877Y614310D01*
X461915Y614290D01*
X461955Y614273D01*
X461997Y614260D01*
X462039Y614251D01*
X462083Y614245D01*
X462126Y614243D01*
X463374Y614243D01*
X463417Y614245D01*
X463461Y614251D01*
X463503Y614260D01*
X463545Y614273D01*
X463585Y614290D01*
X463623Y614310D01*
X463660Y614333D01*
X463695Y614360D01*
X463727Y614389D01*
X463756Y614421D01*
X463783Y614456D01*
X463806Y614492D01*
X463826Y614531D01*
X463843Y614571D01*
X463856Y614613D01*
X463865Y614655D01*
X463871Y614698D01*
X463873Y614742D01*
X463873Y615241D01*
X462625Y616624D02*
X462625Y617373D01*
X462625Y616624D02*
X462627Y616581D01*
X462633Y616537D01*
X462642Y616495D01*
X462655Y616453D01*
X462672Y616413D01*
X462692Y616375D01*
X462715Y616338D01*
X462742Y616303D01*
X462771Y616271D01*
X462803Y616242D01*
X462838Y616215D01*
X462875Y616192D01*
X462913Y616172D01*
X462953Y616155D01*
X462995Y616142D01*
X463037Y616133D01*
X463081Y616127D01*
X463124Y616125D01*
X463249Y616125D01*
X463298Y616127D01*
X463347Y616133D01*
X463395Y616142D01*
X463442Y616156D01*
X463488Y616172D01*
X463532Y616193D01*
X463575Y616217D01*
X463616Y616244D01*
X463654Y616275D01*
X463690Y616308D01*
X463723Y616344D01*
X463754Y616382D01*
X463781Y616423D01*
X463805Y616466D01*
X463826Y616510D01*
X463842Y616556D01*
X463856Y616603D01*
X463865Y616651D01*
X463871Y616700D01*
X463873Y616749D01*
X463871Y616798D01*
X463865Y616847D01*
X463856Y616895D01*
X463842Y616942D01*
X463826Y616988D01*
X463805Y617032D01*
X463781Y617075D01*
X463754Y617116D01*
X463723Y617154D01*
X463690Y617190D01*
X463654Y617223D01*
X463616Y617254D01*
X463575Y617281D01*
X463532Y617305D01*
X463488Y617326D01*
X463442Y617342D01*
X463395Y617356D01*
X463347Y617365D01*
X463298Y617371D01*
X463249Y617373D01*
X462625Y617373D01*
X462562Y617371D01*
X462500Y617365D01*
X462438Y617355D01*
X462377Y617342D01*
X462317Y617324D01*
X462258Y617303D01*
X462200Y617278D01*
X462144Y617250D01*
X462090Y617218D01*
X462038Y617182D01*
X461989Y617144D01*
X461942Y617103D01*
X461898Y617058D01*
X461856Y617011D01*
X461818Y616962D01*
X461782Y616910D01*
X461750Y616856D01*
X461722Y616800D01*
X461697Y616742D01*
X461676Y616683D01*
X461658Y616623D01*
X461645Y616562D01*
X461635Y616500D01*
X461629Y616438D01*
X461627Y616375D01*
D10*
X638000Y429000D02*
X642000Y429000D01*
X638000Y429000D02*
X638000Y427000D01*
X642000Y427000D01*
X642000Y429000D01*
D14*
X642500Y426500D02*
X642500Y425500D01*
X642500Y426500D02*
X642056Y426500D01*
X642056Y426056D02*
X642500Y426056D01*
X641714Y426056D02*
X641437Y426056D01*
X641405Y426054D01*
X641373Y426049D01*
X641342Y426039D01*
X641312Y426026D01*
X641284Y426010D01*
X641258Y425991D01*
X641235Y425969D01*
X641214Y425944D01*
X641196Y425917D01*
X641182Y425888D01*
X641171Y425858D01*
X641163Y425826D01*
X641159Y425794D01*
X641159Y425762D01*
X641163Y425730D01*
X641171Y425698D01*
X641182Y425668D01*
X641196Y425639D01*
X641214Y425612D01*
X641235Y425587D01*
X641258Y425565D01*
X641284Y425546D01*
X641312Y425530D01*
X641342Y425517D01*
X641373Y425507D01*
X641405Y425502D01*
X641437Y425500D01*
X641714Y425500D01*
X641714Y426500D01*
X641437Y426500D01*
X641408Y426498D01*
X641380Y426492D01*
X641352Y426483D01*
X641326Y426470D01*
X641302Y426454D01*
X641280Y426435D01*
X641261Y426413D01*
X641245Y426389D01*
X641232Y426363D01*
X641223Y426335D01*
X641217Y426307D01*
X641215Y426278D01*
X641217Y426249D01*
X641223Y426221D01*
X641232Y426193D01*
X641245Y426167D01*
X641261Y426143D01*
X641280Y426121D01*
X641302Y426102D01*
X641326Y426086D01*
X641352Y426073D01*
X641380Y426064D01*
X641408Y426058D01*
X641437Y426056D01*
X640851Y426278D02*
X640573Y426500D01*
X640573Y425500D01*
X640851Y425500D02*
X640295Y425500D01*
D10*
X393500Y418500D02*
X389500Y418500D01*
X389500Y416500D01*
X393500Y416500D01*
X393500Y418500D01*
D14*
X394000Y416000D02*
X394000Y415000D01*
X394000Y416000D02*
X393556Y416000D01*
X393556Y415556D02*
X394000Y415556D01*
X393214Y415556D02*
X392937Y415556D01*
X392905Y415554D01*
X392873Y415549D01*
X392842Y415539D01*
X392812Y415526D01*
X392784Y415510D01*
X392758Y415491D01*
X392735Y415469D01*
X392714Y415444D01*
X392696Y415417D01*
X392682Y415388D01*
X392671Y415358D01*
X392663Y415326D01*
X392659Y415294D01*
X392659Y415262D01*
X392663Y415230D01*
X392671Y415198D01*
X392682Y415168D01*
X392696Y415139D01*
X392714Y415112D01*
X392735Y415087D01*
X392758Y415065D01*
X392784Y415046D01*
X392812Y415030D01*
X392842Y415017D01*
X392873Y415007D01*
X392905Y415002D01*
X392937Y415000D01*
X393214Y415000D01*
X393214Y416000D01*
X392937Y416000D01*
X392908Y415998D01*
X392880Y415992D01*
X392852Y415983D01*
X392826Y415970D01*
X392802Y415954D01*
X392780Y415935D01*
X392761Y415913D01*
X392745Y415889D01*
X392732Y415863D01*
X392723Y415835D01*
X392717Y415807D01*
X392715Y415778D01*
X392717Y415749D01*
X392723Y415721D01*
X392732Y415693D01*
X392745Y415667D01*
X392761Y415643D01*
X392780Y415621D01*
X392802Y415602D01*
X392826Y415586D01*
X392852Y415573D01*
X392880Y415564D01*
X392908Y415558D01*
X392937Y415556D01*
X392351Y415000D02*
X392073Y415000D01*
X392041Y415002D01*
X392009Y415007D01*
X391978Y415017D01*
X391948Y415030D01*
X391920Y415046D01*
X391894Y415065D01*
X391871Y415087D01*
X391850Y415112D01*
X391832Y415139D01*
X391818Y415168D01*
X391807Y415198D01*
X391799Y415230D01*
X391795Y415262D01*
X391795Y415294D01*
X391799Y415326D01*
X391807Y415358D01*
X391818Y415388D01*
X391832Y415417D01*
X391850Y415444D01*
X391871Y415469D01*
X391894Y415491D01*
X391920Y415510D01*
X391948Y415526D01*
X391978Y415539D01*
X392009Y415549D01*
X392041Y415554D01*
X392073Y415556D01*
X392018Y416000D02*
X392351Y416000D01*
X392018Y416000D02*
X391989Y415998D01*
X391961Y415992D01*
X391933Y415983D01*
X391907Y415970D01*
X391883Y415954D01*
X391861Y415935D01*
X391842Y415913D01*
X391826Y415889D01*
X391813Y415863D01*
X391804Y415835D01*
X391798Y415807D01*
X391796Y415778D01*
X391798Y415749D01*
X391804Y415721D01*
X391813Y415693D01*
X391826Y415667D01*
X391842Y415643D01*
X391861Y415621D01*
X391883Y415602D01*
X391907Y415586D01*
X391933Y415573D01*
X391961Y415564D01*
X391989Y415558D01*
X392018Y415556D01*
X392240Y415556D01*
D10*
X482000Y596000D02*
X482000Y600000D01*
X480000Y600000D01*
X480000Y596000D01*
X482000Y596000D01*
D14*
X479500Y595500D02*
X478500Y595500D01*
X479500Y595500D02*
X479500Y595944D01*
X479056Y595944D02*
X479056Y595500D01*
X479056Y596286D02*
X479056Y596564D01*
X479054Y596596D01*
X479049Y596628D01*
X479039Y596659D01*
X479026Y596689D01*
X479010Y596717D01*
X478991Y596743D01*
X478969Y596766D01*
X478944Y596787D01*
X478917Y596805D01*
X478888Y596819D01*
X478858Y596830D01*
X478826Y596838D01*
X478794Y596842D01*
X478762Y596842D01*
X478730Y596838D01*
X478698Y596830D01*
X478668Y596819D01*
X478639Y596805D01*
X478612Y596787D01*
X478587Y596766D01*
X478565Y596743D01*
X478546Y596717D01*
X478530Y596689D01*
X478517Y596659D01*
X478507Y596628D01*
X478502Y596596D01*
X478500Y596564D01*
X478500Y596286D01*
X479500Y596286D01*
X479500Y596564D01*
X479498Y596593D01*
X479492Y596621D01*
X479483Y596649D01*
X479470Y596675D01*
X479454Y596699D01*
X479435Y596721D01*
X479413Y596740D01*
X479389Y596756D01*
X479363Y596769D01*
X479335Y596778D01*
X479307Y596784D01*
X479278Y596786D01*
X479249Y596784D01*
X479221Y596778D01*
X479193Y596769D01*
X479167Y596756D01*
X479143Y596740D01*
X479121Y596721D01*
X479102Y596699D01*
X479086Y596675D01*
X479073Y596649D01*
X479064Y596621D01*
X479058Y596593D01*
X479056Y596564D01*
X478722Y597149D02*
X479500Y597371D01*
X478722Y597149D02*
X478722Y597705D01*
X478944Y597538D02*
X478500Y597538D01*
D10*
X564000Y237000D02*
X564000Y233000D01*
X564000Y237000D02*
X562000Y237000D01*
X562000Y233000D01*
X564000Y233000D01*
D14*
X561500Y232500D02*
X560500Y232500D01*
X561500Y232500D02*
X561500Y232944D01*
X561056Y232944D02*
X561056Y232500D01*
X561056Y233286D02*
X561056Y233564D01*
X561054Y233596D01*
X561049Y233628D01*
X561039Y233659D01*
X561026Y233689D01*
X561010Y233717D01*
X560991Y233743D01*
X560969Y233766D01*
X560944Y233787D01*
X560917Y233805D01*
X560888Y233819D01*
X560858Y233830D01*
X560826Y233838D01*
X560794Y233842D01*
X560762Y233842D01*
X560730Y233838D01*
X560698Y233830D01*
X560668Y233819D01*
X560639Y233805D01*
X560612Y233787D01*
X560587Y233766D01*
X560565Y233743D01*
X560546Y233717D01*
X560530Y233689D01*
X560517Y233659D01*
X560507Y233628D01*
X560502Y233596D01*
X560500Y233564D01*
X560500Y233286D01*
X561500Y233286D01*
X561500Y233564D01*
X561498Y233593D01*
X561492Y233621D01*
X561483Y233649D01*
X561470Y233675D01*
X561454Y233699D01*
X561435Y233721D01*
X561413Y233740D01*
X561389Y233756D01*
X561363Y233769D01*
X561335Y233778D01*
X561307Y233784D01*
X561278Y233786D01*
X561249Y233784D01*
X561221Y233778D01*
X561193Y233769D01*
X561167Y233756D01*
X561143Y233740D01*
X561121Y233721D01*
X561102Y233699D01*
X561086Y233675D01*
X561073Y233649D01*
X561064Y233621D01*
X561058Y233593D01*
X561056Y233564D01*
X560500Y234149D02*
X560500Y234482D01*
X560502Y234511D01*
X560508Y234539D01*
X560517Y234567D01*
X560530Y234593D01*
X560546Y234617D01*
X560565Y234639D01*
X560587Y234658D01*
X560611Y234674D01*
X560637Y234687D01*
X560665Y234696D01*
X560693Y234702D01*
X560722Y234704D01*
X560722Y234705D02*
X560833Y234705D01*
X560833Y234704D02*
X560862Y234702D01*
X560890Y234696D01*
X560918Y234687D01*
X560944Y234674D01*
X560968Y234658D01*
X560990Y234639D01*
X561009Y234617D01*
X561025Y234593D01*
X561038Y234567D01*
X561047Y234539D01*
X561053Y234511D01*
X561055Y234482D01*
X561056Y234482D02*
X561056Y234149D01*
X561500Y234149D01*
X561500Y234705D01*
D15*
X495100Y157900D02*
X426100Y157900D01*
X426100Y96900D01*
X496100Y96900D01*
X496100Y157900D01*
D16*
X424846Y135651D02*
X421352Y135651D01*
X421289Y135649D01*
X421227Y135643D01*
X421165Y135633D01*
X421104Y135620D01*
X421044Y135602D01*
X420985Y135581D01*
X420927Y135556D01*
X420871Y135528D01*
X420817Y135496D01*
X420765Y135460D01*
X420716Y135422D01*
X420669Y135381D01*
X420625Y135336D01*
X420583Y135289D01*
X420545Y135240D01*
X420509Y135188D01*
X420477Y135134D01*
X420449Y135078D01*
X420424Y135020D01*
X420403Y134961D01*
X420385Y134901D01*
X420372Y134840D01*
X420362Y134778D01*
X420356Y134716D01*
X420354Y134653D01*
X420354Y134154D01*
X423848Y137785D02*
X424846Y139033D01*
X420354Y139033D01*
X420354Y137785D02*
X420354Y140281D01*
D15*
X120300Y536600D02*
X120300Y788600D01*
X259300Y789600D01*
X259300Y536600D01*
X121300Y536600D01*
D10*
X498000Y253000D02*
X526000Y253000D01*
X498000Y253000D02*
X498000Y241000D01*
X526000Y241000D01*
X526000Y253000D01*
D11*
X508873Y240373D02*
X508873Y238127D01*
X508873Y240373D02*
X508249Y240373D01*
X508200Y240371D01*
X508151Y240365D01*
X508103Y240356D01*
X508056Y240342D01*
X508010Y240326D01*
X507966Y240305D01*
X507923Y240281D01*
X507882Y240254D01*
X507844Y240223D01*
X507808Y240190D01*
X507775Y240154D01*
X507744Y240116D01*
X507717Y240075D01*
X507693Y240032D01*
X507672Y239988D01*
X507656Y239942D01*
X507642Y239895D01*
X507633Y239847D01*
X507627Y239798D01*
X507625Y239749D01*
X507627Y239700D01*
X507633Y239651D01*
X507642Y239603D01*
X507656Y239556D01*
X507672Y239510D01*
X507693Y239466D01*
X507717Y239423D01*
X507744Y239382D01*
X507775Y239344D01*
X507808Y239308D01*
X507844Y239275D01*
X507882Y239244D01*
X507923Y239217D01*
X507966Y239193D01*
X508010Y239172D01*
X508056Y239156D01*
X508103Y239142D01*
X508151Y239133D01*
X508200Y239127D01*
X508249Y239125D01*
X508873Y239125D01*
X508124Y239125D02*
X507625Y238127D01*
X506639Y239874D02*
X506016Y240373D01*
X506016Y238127D01*
X506639Y238127D02*
X505392Y238127D01*
D10*
X490000Y240600D02*
X462000Y240600D01*
X490000Y240600D02*
X490000Y252600D01*
X462000Y252600D01*
X462000Y240600D01*
D11*
X482608Y253227D02*
X482608Y255473D01*
X481984Y255473D01*
X481935Y255471D01*
X481886Y255465D01*
X481838Y255456D01*
X481791Y255442D01*
X481745Y255426D01*
X481701Y255405D01*
X481658Y255381D01*
X481617Y255354D01*
X481579Y255323D01*
X481543Y255290D01*
X481510Y255254D01*
X481479Y255216D01*
X481452Y255175D01*
X481428Y255132D01*
X481407Y255088D01*
X481391Y255042D01*
X481377Y254995D01*
X481368Y254947D01*
X481362Y254898D01*
X481360Y254849D01*
X481362Y254800D01*
X481368Y254751D01*
X481377Y254703D01*
X481391Y254656D01*
X481407Y254610D01*
X481428Y254566D01*
X481452Y254523D01*
X481479Y254482D01*
X481510Y254444D01*
X481543Y254408D01*
X481579Y254375D01*
X481617Y254344D01*
X481658Y254317D01*
X481701Y254293D01*
X481745Y254272D01*
X481791Y254256D01*
X481838Y254242D01*
X481886Y254233D01*
X481935Y254227D01*
X481984Y254225D01*
X482608Y254225D01*
X481860Y254225D02*
X481361Y253227D01*
X479127Y254912D02*
X479129Y254958D01*
X479135Y255005D01*
X479144Y255050D01*
X479157Y255094D01*
X479174Y255138D01*
X479195Y255179D01*
X479219Y255219D01*
X479246Y255257D01*
X479276Y255293D01*
X479308Y255325D01*
X479344Y255355D01*
X479382Y255382D01*
X479422Y255406D01*
X479463Y255427D01*
X479507Y255444D01*
X479551Y255457D01*
X479596Y255466D01*
X479643Y255472D01*
X479689Y255474D01*
X479689Y255473D02*
X479739Y255471D01*
X479789Y255466D01*
X479839Y255457D01*
X479888Y255445D01*
X479936Y255429D01*
X479982Y255411D01*
X480028Y255388D01*
X480071Y255363D01*
X480113Y255335D01*
X480153Y255304D01*
X480190Y255270D01*
X480225Y255234D01*
X480257Y255195D01*
X480287Y255155D01*
X480314Y255112D01*
X480337Y255067D01*
X480358Y255021D01*
X480375Y254974D01*
X479314Y254475D02*
X479283Y254507D01*
X479255Y254541D01*
X479229Y254577D01*
X479205Y254615D01*
X479185Y254654D01*
X479167Y254695D01*
X479153Y254737D01*
X479142Y254780D01*
X479134Y254824D01*
X479129Y254868D01*
X479127Y254912D01*
X479314Y254475D02*
X480375Y253227D01*
X479127Y253227D01*
D10*
X499000Y222000D02*
X527000Y222000D01*
X527000Y234000D01*
X499000Y234000D01*
X499000Y222000D01*
D11*
X519608Y234627D02*
X519608Y236873D01*
X518984Y236873D01*
X518935Y236871D01*
X518886Y236865D01*
X518838Y236856D01*
X518791Y236842D01*
X518745Y236826D01*
X518701Y236805D01*
X518658Y236781D01*
X518617Y236754D01*
X518579Y236723D01*
X518543Y236690D01*
X518510Y236654D01*
X518479Y236616D01*
X518452Y236575D01*
X518428Y236532D01*
X518407Y236488D01*
X518391Y236442D01*
X518377Y236395D01*
X518368Y236347D01*
X518362Y236298D01*
X518360Y236249D01*
X518362Y236200D01*
X518368Y236151D01*
X518377Y236103D01*
X518391Y236056D01*
X518407Y236010D01*
X518428Y235966D01*
X518452Y235923D01*
X518479Y235882D01*
X518510Y235844D01*
X518543Y235808D01*
X518579Y235775D01*
X518617Y235744D01*
X518658Y235717D01*
X518701Y235693D01*
X518745Y235672D01*
X518791Y235656D01*
X518838Y235642D01*
X518886Y235633D01*
X518935Y235627D01*
X518984Y235625D01*
X519608Y235625D01*
X518860Y235625D02*
X518361Y234627D01*
X517375Y234627D02*
X516751Y234627D01*
X516702Y234629D01*
X516653Y234635D01*
X516605Y234644D01*
X516558Y234658D01*
X516512Y234674D01*
X516468Y234695D01*
X516425Y234719D01*
X516384Y234746D01*
X516346Y234777D01*
X516310Y234810D01*
X516277Y234846D01*
X516246Y234884D01*
X516219Y234925D01*
X516195Y234968D01*
X516174Y235012D01*
X516158Y235058D01*
X516144Y235105D01*
X516135Y235153D01*
X516129Y235202D01*
X516127Y235251D01*
X516129Y235300D01*
X516135Y235349D01*
X516144Y235397D01*
X516158Y235444D01*
X516174Y235490D01*
X516195Y235534D01*
X516219Y235577D01*
X516246Y235618D01*
X516277Y235656D01*
X516310Y235692D01*
X516346Y235725D01*
X516384Y235756D01*
X516425Y235783D01*
X516468Y235807D01*
X516512Y235828D01*
X516558Y235844D01*
X516605Y235858D01*
X516653Y235867D01*
X516702Y235873D01*
X516751Y235875D01*
X516626Y236873D02*
X517375Y236873D01*
X516626Y236873D02*
X516583Y236871D01*
X516539Y236865D01*
X516497Y236856D01*
X516455Y236843D01*
X516415Y236826D01*
X516377Y236806D01*
X516340Y236783D01*
X516305Y236756D01*
X516273Y236727D01*
X516244Y236695D01*
X516217Y236660D01*
X516194Y236624D01*
X516174Y236585D01*
X516157Y236545D01*
X516144Y236503D01*
X516135Y236461D01*
X516129Y236417D01*
X516127Y236374D01*
X516129Y236331D01*
X516135Y236287D01*
X516144Y236245D01*
X516157Y236203D01*
X516174Y236163D01*
X516194Y236125D01*
X516217Y236088D01*
X516244Y236053D01*
X516273Y236021D01*
X516305Y235992D01*
X516340Y235965D01*
X516377Y235942D01*
X516415Y235922D01*
X516455Y235905D01*
X516497Y235892D01*
X516539Y235883D01*
X516583Y235877D01*
X516626Y235875D01*
X517125Y235875D01*
D10*
X455000Y241000D02*
X427000Y241000D01*
X455000Y241000D02*
X455000Y253000D01*
X427000Y253000D01*
X427000Y241000D01*
D11*
X447608Y253627D02*
X447608Y255873D01*
X446984Y255873D01*
X446935Y255871D01*
X446886Y255865D01*
X446838Y255856D01*
X446791Y255842D01*
X446745Y255826D01*
X446701Y255805D01*
X446658Y255781D01*
X446617Y255754D01*
X446579Y255723D01*
X446543Y255690D01*
X446510Y255654D01*
X446479Y255616D01*
X446452Y255575D01*
X446428Y255532D01*
X446407Y255488D01*
X446391Y255442D01*
X446377Y255395D01*
X446368Y255347D01*
X446362Y255298D01*
X446360Y255249D01*
X446362Y255200D01*
X446368Y255151D01*
X446377Y255103D01*
X446391Y255056D01*
X446407Y255010D01*
X446428Y254966D01*
X446452Y254923D01*
X446479Y254882D01*
X446510Y254844D01*
X446543Y254808D01*
X446579Y254775D01*
X446617Y254744D01*
X446658Y254717D01*
X446701Y254693D01*
X446745Y254672D01*
X446791Y254656D01*
X446838Y254642D01*
X446886Y254633D01*
X446935Y254627D01*
X446984Y254625D01*
X447608Y254625D01*
X446860Y254625D02*
X446361Y253627D01*
X445375Y254126D02*
X444876Y255873D01*
X445375Y254126D02*
X444127Y254126D01*
X444501Y254625D02*
X444501Y253627D01*
D10*
X394000Y391000D02*
X366000Y391000D01*
X366000Y379000D01*
X394000Y379000D01*
X394000Y391000D01*
D11*
X376873Y378373D02*
X376873Y376127D01*
X376873Y378373D02*
X376249Y378373D01*
X376200Y378371D01*
X376151Y378365D01*
X376103Y378356D01*
X376056Y378342D01*
X376010Y378326D01*
X375966Y378305D01*
X375923Y378281D01*
X375882Y378254D01*
X375844Y378223D01*
X375808Y378190D01*
X375775Y378154D01*
X375744Y378116D01*
X375717Y378075D01*
X375693Y378032D01*
X375672Y377988D01*
X375656Y377942D01*
X375642Y377895D01*
X375633Y377847D01*
X375627Y377798D01*
X375625Y377749D01*
X375627Y377700D01*
X375633Y377651D01*
X375642Y377603D01*
X375656Y377556D01*
X375672Y377510D01*
X375693Y377466D01*
X375717Y377423D01*
X375744Y377382D01*
X375775Y377344D01*
X375808Y377308D01*
X375844Y377275D01*
X375882Y377244D01*
X375923Y377217D01*
X375966Y377193D01*
X376010Y377172D01*
X376056Y377156D01*
X376103Y377142D01*
X376151Y377133D01*
X376200Y377127D01*
X376249Y377125D01*
X376873Y377125D01*
X376124Y377125D02*
X375625Y376127D01*
X374639Y376127D02*
X373891Y376127D01*
X373848Y376129D01*
X373804Y376135D01*
X373762Y376144D01*
X373720Y376157D01*
X373680Y376174D01*
X373642Y376194D01*
X373605Y376217D01*
X373570Y376244D01*
X373538Y376273D01*
X373509Y376305D01*
X373482Y376340D01*
X373459Y376377D01*
X373439Y376415D01*
X373422Y376455D01*
X373409Y376497D01*
X373400Y376539D01*
X373394Y376583D01*
X373392Y376626D01*
X373392Y376876D01*
X373394Y376919D01*
X373400Y376963D01*
X373409Y377005D01*
X373422Y377047D01*
X373439Y377087D01*
X373459Y377126D01*
X373482Y377162D01*
X373509Y377197D01*
X373538Y377229D01*
X373570Y377258D01*
X373605Y377285D01*
X373642Y377308D01*
X373680Y377328D01*
X373720Y377345D01*
X373762Y377358D01*
X373804Y377367D01*
X373848Y377373D01*
X373891Y377375D01*
X374639Y377375D01*
X374639Y378373D01*
X373392Y378373D01*
D10*
X426600Y270600D02*
X454600Y270600D01*
X426600Y270600D02*
X426600Y258600D01*
X454600Y258600D01*
X454600Y270600D01*
D11*
X437473Y257973D02*
X437473Y255727D01*
X437473Y257973D02*
X436849Y257973D01*
X436800Y257971D01*
X436751Y257965D01*
X436703Y257956D01*
X436656Y257942D01*
X436610Y257926D01*
X436566Y257905D01*
X436523Y257881D01*
X436482Y257854D01*
X436444Y257823D01*
X436408Y257790D01*
X436375Y257754D01*
X436344Y257716D01*
X436317Y257675D01*
X436293Y257632D01*
X436272Y257588D01*
X436256Y257542D01*
X436242Y257495D01*
X436233Y257447D01*
X436227Y257398D01*
X436225Y257349D01*
X436227Y257300D01*
X436233Y257251D01*
X436242Y257203D01*
X436256Y257156D01*
X436272Y257110D01*
X436293Y257066D01*
X436317Y257023D01*
X436344Y256982D01*
X436375Y256944D01*
X436408Y256908D01*
X436444Y256875D01*
X436482Y256844D01*
X436523Y256817D01*
X436566Y256793D01*
X436610Y256772D01*
X436656Y256756D01*
X436703Y256742D01*
X436751Y256733D01*
X436800Y256727D01*
X436849Y256725D01*
X437473Y256725D01*
X436724Y256725D02*
X436225Y255727D01*
X435239Y256975D02*
X434491Y256975D01*
X434448Y256973D01*
X434404Y256967D01*
X434362Y256958D01*
X434320Y256945D01*
X434280Y256928D01*
X434242Y256908D01*
X434205Y256885D01*
X434170Y256858D01*
X434138Y256829D01*
X434109Y256797D01*
X434082Y256762D01*
X434059Y256726D01*
X434039Y256687D01*
X434022Y256647D01*
X434009Y256605D01*
X434000Y256563D01*
X433994Y256520D01*
X433992Y256476D01*
X433992Y256351D01*
X433994Y256302D01*
X434000Y256253D01*
X434009Y256205D01*
X434023Y256158D01*
X434039Y256112D01*
X434060Y256068D01*
X434084Y256025D01*
X434111Y255984D01*
X434142Y255946D01*
X434175Y255910D01*
X434211Y255877D01*
X434249Y255846D01*
X434290Y255819D01*
X434333Y255795D01*
X434377Y255774D01*
X434423Y255758D01*
X434470Y255744D01*
X434518Y255735D01*
X434567Y255729D01*
X434616Y255727D01*
X434665Y255729D01*
X434714Y255735D01*
X434762Y255744D01*
X434809Y255758D01*
X434855Y255774D01*
X434899Y255795D01*
X434942Y255819D01*
X434983Y255846D01*
X435021Y255877D01*
X435057Y255910D01*
X435090Y255946D01*
X435121Y255984D01*
X435148Y256025D01*
X435172Y256068D01*
X435193Y256112D01*
X435209Y256158D01*
X435223Y256205D01*
X435232Y256253D01*
X435238Y256302D01*
X435240Y256351D01*
X435239Y256351D02*
X435239Y256975D01*
X435237Y257038D01*
X435231Y257100D01*
X435221Y257162D01*
X435208Y257223D01*
X435190Y257283D01*
X435169Y257342D01*
X435144Y257400D01*
X435116Y257456D01*
X435084Y257510D01*
X435048Y257562D01*
X435010Y257611D01*
X434969Y257658D01*
X434924Y257702D01*
X434877Y257744D01*
X434828Y257782D01*
X434776Y257818D01*
X434722Y257850D01*
X434666Y257878D01*
X434608Y257903D01*
X434549Y257924D01*
X434489Y257942D01*
X434428Y257955D01*
X434366Y257965D01*
X434304Y257971D01*
X434241Y257973D01*
D10*
X631000Y242000D02*
X659000Y242000D01*
X659000Y254000D01*
X631000Y254000D01*
X631000Y242000D01*
D11*
X651608Y254627D02*
X651608Y256873D01*
X650984Y256873D01*
X650935Y256871D01*
X650886Y256865D01*
X650838Y256856D01*
X650791Y256842D01*
X650745Y256826D01*
X650701Y256805D01*
X650658Y256781D01*
X650617Y256754D01*
X650579Y256723D01*
X650543Y256690D01*
X650510Y256654D01*
X650479Y256616D01*
X650452Y256575D01*
X650428Y256532D01*
X650407Y256488D01*
X650391Y256442D01*
X650377Y256395D01*
X650368Y256347D01*
X650362Y256298D01*
X650360Y256249D01*
X650362Y256200D01*
X650368Y256151D01*
X650377Y256103D01*
X650391Y256056D01*
X650407Y256010D01*
X650428Y255966D01*
X650452Y255923D01*
X650479Y255882D01*
X650510Y255844D01*
X650543Y255808D01*
X650579Y255775D01*
X650617Y255744D01*
X650658Y255717D01*
X650701Y255693D01*
X650745Y255672D01*
X650791Y255656D01*
X650838Y255642D01*
X650886Y255633D01*
X650935Y255627D01*
X650984Y255625D01*
X651608Y255625D01*
X650860Y255625D02*
X650361Y254627D01*
X649375Y256623D02*
X649375Y256873D01*
X648127Y256873D01*
X648751Y254627D01*
D10*
X623000Y242000D02*
X595000Y242000D01*
X623000Y242000D02*
X623000Y254000D01*
X595000Y254000D01*
X595000Y242000D01*
D11*
X615608Y254627D02*
X615608Y256873D01*
X614984Y256873D01*
X614935Y256871D01*
X614886Y256865D01*
X614838Y256856D01*
X614791Y256842D01*
X614745Y256826D01*
X614701Y256805D01*
X614658Y256781D01*
X614617Y256754D01*
X614579Y256723D01*
X614543Y256690D01*
X614510Y256654D01*
X614479Y256616D01*
X614452Y256575D01*
X614428Y256532D01*
X614407Y256488D01*
X614391Y256442D01*
X614377Y256395D01*
X614368Y256347D01*
X614362Y256298D01*
X614360Y256249D01*
X614362Y256200D01*
X614368Y256151D01*
X614377Y256103D01*
X614391Y256056D01*
X614407Y256010D01*
X614428Y255966D01*
X614452Y255923D01*
X614479Y255882D01*
X614510Y255844D01*
X614543Y255808D01*
X614579Y255775D01*
X614617Y255744D01*
X614658Y255717D01*
X614701Y255693D01*
X614745Y255672D01*
X614791Y255656D01*
X614838Y255642D01*
X614886Y255633D01*
X614935Y255627D01*
X614984Y255625D01*
X615608Y255625D01*
X614860Y255625D02*
X614361Y254627D01*
X613375Y255251D02*
X613373Y255300D01*
X613367Y255349D01*
X613358Y255397D01*
X613344Y255444D01*
X613328Y255490D01*
X613307Y255534D01*
X613283Y255577D01*
X613256Y255618D01*
X613225Y255656D01*
X613192Y255692D01*
X613156Y255725D01*
X613118Y255756D01*
X613077Y255783D01*
X613034Y255807D01*
X612990Y255828D01*
X612944Y255844D01*
X612897Y255858D01*
X612849Y255867D01*
X612800Y255873D01*
X612751Y255875D01*
X612702Y255873D01*
X612653Y255867D01*
X612605Y255858D01*
X612558Y255844D01*
X612512Y255828D01*
X612468Y255807D01*
X612425Y255783D01*
X612384Y255756D01*
X612346Y255725D01*
X612310Y255692D01*
X612277Y255656D01*
X612246Y255618D01*
X612219Y255577D01*
X612195Y255534D01*
X612174Y255490D01*
X612158Y255444D01*
X612144Y255397D01*
X612135Y255349D01*
X612129Y255300D01*
X612127Y255251D01*
X612129Y255202D01*
X612135Y255153D01*
X612144Y255105D01*
X612158Y255058D01*
X612174Y255012D01*
X612195Y254968D01*
X612219Y254925D01*
X612246Y254884D01*
X612277Y254846D01*
X612310Y254810D01*
X612346Y254777D01*
X612384Y254746D01*
X612425Y254719D01*
X612468Y254695D01*
X612512Y254674D01*
X612558Y254658D01*
X612605Y254644D01*
X612653Y254635D01*
X612702Y254629D01*
X612751Y254627D01*
X612800Y254629D01*
X612849Y254635D01*
X612897Y254644D01*
X612944Y254658D01*
X612990Y254674D01*
X613034Y254695D01*
X613077Y254719D01*
X613118Y254746D01*
X613156Y254777D01*
X613192Y254810D01*
X613225Y254846D01*
X613256Y254884D01*
X613283Y254925D01*
X613307Y254968D01*
X613328Y255012D01*
X613344Y255058D01*
X613358Y255105D01*
X613367Y255153D01*
X613373Y255202D01*
X613375Y255251D01*
X613250Y256374D02*
X613248Y256417D01*
X613242Y256461D01*
X613233Y256503D01*
X613220Y256545D01*
X613203Y256585D01*
X613183Y256624D01*
X613160Y256660D01*
X613133Y256695D01*
X613104Y256727D01*
X613072Y256756D01*
X613037Y256783D01*
X613001Y256806D01*
X612962Y256826D01*
X612922Y256843D01*
X612880Y256856D01*
X612838Y256865D01*
X612794Y256871D01*
X612751Y256873D01*
X612708Y256871D01*
X612664Y256865D01*
X612622Y256856D01*
X612580Y256843D01*
X612540Y256826D01*
X612502Y256806D01*
X612465Y256783D01*
X612430Y256756D01*
X612398Y256727D01*
X612369Y256695D01*
X612342Y256660D01*
X612319Y256624D01*
X612299Y256585D01*
X612282Y256545D01*
X612269Y256503D01*
X612260Y256461D01*
X612254Y256417D01*
X612252Y256374D01*
X612254Y256331D01*
X612260Y256287D01*
X612269Y256245D01*
X612282Y256203D01*
X612299Y256163D01*
X612319Y256125D01*
X612342Y256088D01*
X612369Y256053D01*
X612398Y256021D01*
X612430Y255992D01*
X612465Y255965D01*
X612502Y255942D01*
X612540Y255922D01*
X612580Y255905D01*
X612622Y255892D01*
X612664Y255883D01*
X612708Y255877D01*
X612751Y255875D01*
X612794Y255877D01*
X612838Y255883D01*
X612880Y255892D01*
X612922Y255905D01*
X612962Y255922D01*
X613001Y255942D01*
X613037Y255965D01*
X613072Y255992D01*
X613104Y256021D01*
X613133Y256053D01*
X613160Y256088D01*
X613183Y256125D01*
X613203Y256163D01*
X613220Y256203D01*
X613233Y256245D01*
X613242Y256287D01*
X613248Y256331D01*
X613250Y256374D01*
D15*
X725000Y373600D02*
X725000Y424400D01*
X711000Y424500D01*
X711000Y373500D01*
X724800Y373500D01*
D11*
X726127Y413776D02*
X726129Y413820D01*
X726135Y413863D01*
X726144Y413905D01*
X726157Y413947D01*
X726174Y413987D01*
X726194Y414026D01*
X726217Y414062D01*
X726244Y414097D01*
X726273Y414129D01*
X726305Y414158D01*
X726340Y414185D01*
X726377Y414208D01*
X726415Y414228D01*
X726455Y414245D01*
X726497Y414258D01*
X726539Y414267D01*
X726583Y414273D01*
X726626Y414275D01*
X726127Y413776D02*
X726129Y413712D01*
X726135Y413648D01*
X726144Y413585D01*
X726158Y413522D01*
X726175Y413461D01*
X726196Y413400D01*
X726221Y413341D01*
X726249Y413284D01*
X726281Y413228D01*
X726316Y413174D01*
X726354Y413123D01*
X726395Y413074D01*
X726439Y413028D01*
X727874Y413090D02*
X727917Y413092D01*
X727961Y413098D01*
X728003Y413107D01*
X728045Y413120D01*
X728085Y413137D01*
X728124Y413157D01*
X728160Y413180D01*
X728195Y413207D01*
X728227Y413236D01*
X728256Y413268D01*
X728283Y413303D01*
X728306Y413340D01*
X728326Y413378D01*
X728343Y413418D01*
X728356Y413460D01*
X728365Y413502D01*
X728371Y413546D01*
X728373Y413589D01*
X728371Y413649D01*
X728365Y413709D01*
X728356Y413769D01*
X728342Y413827D01*
X728325Y413885D01*
X728304Y413942D01*
X728280Y413997D01*
X728252Y414050D01*
X728220Y414101D01*
X728186Y414151D01*
X727437Y413339D02*
X727461Y413302D01*
X727488Y413267D01*
X727518Y413235D01*
X727550Y413206D01*
X727585Y413179D01*
X727622Y413156D01*
X727661Y413136D01*
X727702Y413119D01*
X727744Y413106D01*
X727787Y413097D01*
X727830Y413091D01*
X727874Y413089D01*
X727063Y414025D02*
X727039Y414062D01*
X727012Y414097D01*
X726982Y414129D01*
X726950Y414158D01*
X726915Y414185D01*
X726878Y414208D01*
X726839Y414228D01*
X726798Y414245D01*
X726756Y414258D01*
X726713Y414267D01*
X726670Y414273D01*
X726626Y414275D01*
X727063Y414025D02*
X727437Y413339D01*
X726626Y415710D02*
X728373Y415710D01*
X726626Y415710D02*
X726583Y415708D01*
X726539Y415702D01*
X726497Y415693D01*
X726455Y415680D01*
X726415Y415663D01*
X726377Y415643D01*
X726340Y415620D01*
X726305Y415593D01*
X726273Y415564D01*
X726244Y415532D01*
X726217Y415497D01*
X726194Y415461D01*
X726174Y415422D01*
X726157Y415382D01*
X726144Y415340D01*
X726135Y415298D01*
X726129Y415254D01*
X726127Y415211D01*
X726127Y414961D01*
X727874Y416777D02*
X728373Y417401D01*
X726127Y417401D01*
X726127Y416777D02*
X726127Y418025D01*
D15*
X658000Y437400D02*
X658000Y386600D01*
X658000Y437400D02*
X644000Y437500D01*
X644000Y386500D01*
X657800Y386500D01*
D11*
X659127Y426776D02*
X659129Y426820D01*
X659135Y426863D01*
X659144Y426905D01*
X659157Y426947D01*
X659174Y426987D01*
X659194Y427026D01*
X659217Y427062D01*
X659244Y427097D01*
X659273Y427129D01*
X659305Y427158D01*
X659340Y427185D01*
X659377Y427208D01*
X659415Y427228D01*
X659455Y427245D01*
X659497Y427258D01*
X659539Y427267D01*
X659583Y427273D01*
X659626Y427275D01*
X659127Y426776D02*
X659129Y426712D01*
X659135Y426648D01*
X659144Y426585D01*
X659158Y426522D01*
X659175Y426461D01*
X659196Y426400D01*
X659221Y426341D01*
X659249Y426284D01*
X659281Y426228D01*
X659316Y426174D01*
X659354Y426123D01*
X659395Y426074D01*
X659439Y426028D01*
X660874Y426090D02*
X660917Y426092D01*
X660961Y426098D01*
X661003Y426107D01*
X661045Y426120D01*
X661085Y426137D01*
X661124Y426157D01*
X661160Y426180D01*
X661195Y426207D01*
X661227Y426236D01*
X661256Y426268D01*
X661283Y426303D01*
X661306Y426340D01*
X661326Y426378D01*
X661343Y426418D01*
X661356Y426460D01*
X661365Y426502D01*
X661371Y426546D01*
X661373Y426589D01*
X661371Y426649D01*
X661365Y426709D01*
X661356Y426769D01*
X661342Y426827D01*
X661325Y426885D01*
X661304Y426942D01*
X661280Y426997D01*
X661252Y427050D01*
X661220Y427101D01*
X661186Y427151D01*
X660437Y426339D02*
X660461Y426302D01*
X660488Y426267D01*
X660518Y426235D01*
X660550Y426206D01*
X660585Y426179D01*
X660622Y426156D01*
X660661Y426136D01*
X660702Y426119D01*
X660744Y426106D01*
X660787Y426097D01*
X660830Y426091D01*
X660874Y426089D01*
X660063Y427025D02*
X660039Y427062D01*
X660012Y427097D01*
X659982Y427129D01*
X659950Y427158D01*
X659915Y427185D01*
X659878Y427208D01*
X659839Y427228D01*
X659798Y427245D01*
X659756Y427258D01*
X659713Y427267D01*
X659670Y427273D01*
X659626Y427275D01*
X660063Y427025D02*
X660437Y426339D01*
X659626Y428710D02*
X661373Y428710D01*
X659626Y428710D02*
X659583Y428708D01*
X659539Y428702D01*
X659497Y428693D01*
X659455Y428680D01*
X659415Y428663D01*
X659377Y428643D01*
X659340Y428620D01*
X659305Y428593D01*
X659273Y428564D01*
X659244Y428532D01*
X659217Y428497D01*
X659194Y428461D01*
X659174Y428422D01*
X659157Y428382D01*
X659144Y428340D01*
X659135Y428298D01*
X659129Y428254D01*
X659127Y428211D01*
X659127Y427961D01*
X659127Y429777D02*
X659127Y430401D01*
X659129Y430450D01*
X659135Y430499D01*
X659144Y430547D01*
X659158Y430594D01*
X659174Y430640D01*
X659195Y430684D01*
X659219Y430727D01*
X659246Y430768D01*
X659277Y430806D01*
X659310Y430842D01*
X659346Y430875D01*
X659384Y430906D01*
X659425Y430933D01*
X659468Y430957D01*
X659512Y430978D01*
X659558Y430994D01*
X659605Y431008D01*
X659653Y431017D01*
X659702Y431023D01*
X659751Y431025D01*
X659800Y431023D01*
X659849Y431017D01*
X659897Y431008D01*
X659944Y430994D01*
X659990Y430978D01*
X660034Y430957D01*
X660077Y430933D01*
X660118Y430906D01*
X660156Y430875D01*
X660192Y430842D01*
X660225Y430806D01*
X660256Y430768D01*
X660283Y430727D01*
X660307Y430684D01*
X660328Y430640D01*
X660344Y430594D01*
X660358Y430547D01*
X660367Y430499D01*
X660373Y430450D01*
X660375Y430401D01*
X661373Y430526D02*
X661373Y429777D01*
X661373Y430526D02*
X661371Y430569D01*
X661365Y430613D01*
X661356Y430655D01*
X661343Y430697D01*
X661326Y430737D01*
X661306Y430776D01*
X661283Y430812D01*
X661256Y430847D01*
X661227Y430879D01*
X661195Y430908D01*
X661160Y430935D01*
X661124Y430958D01*
X661085Y430978D01*
X661045Y430995D01*
X661003Y431008D01*
X660961Y431017D01*
X660917Y431023D01*
X660874Y431025D01*
X660831Y431023D01*
X660787Y431017D01*
X660745Y431008D01*
X660703Y430995D01*
X660663Y430978D01*
X660625Y430958D01*
X660588Y430935D01*
X660553Y430908D01*
X660521Y430879D01*
X660492Y430847D01*
X660465Y430812D01*
X660442Y430776D01*
X660422Y430737D01*
X660405Y430697D01*
X660392Y430655D01*
X660383Y430613D01*
X660377Y430569D01*
X660375Y430526D01*
X660375Y430027D01*
D15*
X592800Y595700D02*
X592800Y646500D01*
X578800Y646600D01*
X578800Y595600D01*
X592600Y595600D01*
D11*
X593927Y635876D02*
X593929Y635920D01*
X593935Y635963D01*
X593944Y636005D01*
X593957Y636047D01*
X593974Y636087D01*
X593994Y636126D01*
X594017Y636162D01*
X594044Y636197D01*
X594073Y636229D01*
X594105Y636258D01*
X594140Y636285D01*
X594177Y636308D01*
X594215Y636328D01*
X594255Y636345D01*
X594297Y636358D01*
X594339Y636367D01*
X594383Y636373D01*
X594426Y636375D01*
X593927Y635876D02*
X593929Y635812D01*
X593935Y635748D01*
X593944Y635685D01*
X593958Y635622D01*
X593975Y635561D01*
X593996Y635500D01*
X594021Y635441D01*
X594049Y635384D01*
X594081Y635328D01*
X594116Y635274D01*
X594154Y635223D01*
X594195Y635174D01*
X594239Y635128D01*
X595674Y635190D02*
X595717Y635192D01*
X595761Y635198D01*
X595803Y635207D01*
X595845Y635220D01*
X595885Y635237D01*
X595924Y635257D01*
X595960Y635280D01*
X595995Y635307D01*
X596027Y635336D01*
X596056Y635368D01*
X596083Y635403D01*
X596106Y635440D01*
X596126Y635478D01*
X596143Y635518D01*
X596156Y635560D01*
X596165Y635602D01*
X596171Y635646D01*
X596173Y635689D01*
X596171Y635749D01*
X596165Y635809D01*
X596156Y635869D01*
X596142Y635927D01*
X596125Y635985D01*
X596104Y636042D01*
X596080Y636097D01*
X596052Y636150D01*
X596020Y636201D01*
X595986Y636251D01*
X595237Y635439D02*
X595261Y635402D01*
X595288Y635367D01*
X595318Y635335D01*
X595350Y635306D01*
X595385Y635279D01*
X595422Y635256D01*
X595461Y635236D01*
X595502Y635219D01*
X595544Y635206D01*
X595587Y635197D01*
X595630Y635191D01*
X595674Y635189D01*
X594863Y636125D02*
X594839Y636162D01*
X594812Y636197D01*
X594782Y636229D01*
X594750Y636258D01*
X594715Y636285D01*
X594678Y636308D01*
X594639Y636328D01*
X594598Y636345D01*
X594556Y636358D01*
X594513Y636367D01*
X594470Y636373D01*
X594426Y636375D01*
X594863Y636125D02*
X595237Y635439D01*
X594426Y637810D02*
X596173Y637810D01*
X594426Y637810D02*
X594383Y637808D01*
X594339Y637802D01*
X594297Y637793D01*
X594255Y637780D01*
X594215Y637763D01*
X594177Y637743D01*
X594140Y637720D01*
X594105Y637693D01*
X594073Y637664D01*
X594044Y637632D01*
X594017Y637597D01*
X593994Y637561D01*
X593974Y637522D01*
X593957Y637482D01*
X593944Y637440D01*
X593935Y637398D01*
X593929Y637354D01*
X593927Y637311D01*
X593927Y637061D01*
X594426Y638877D02*
X596173Y639376D01*
X594426Y638877D02*
X594426Y640125D01*
X594925Y639750D02*
X593927Y639750D01*
D10*
X492000Y223000D02*
X464000Y223000D01*
X492000Y223000D02*
X492000Y235000D01*
X464000Y235000D01*
X464000Y223000D01*
D11*
X486650Y236251D02*
X486650Y237873D01*
X486650Y236251D02*
X486648Y236202D01*
X486642Y236153D01*
X486633Y236105D01*
X486619Y236058D01*
X486603Y236012D01*
X486582Y235968D01*
X486558Y235925D01*
X486531Y235884D01*
X486500Y235846D01*
X486467Y235810D01*
X486431Y235777D01*
X486393Y235746D01*
X486352Y235719D01*
X486309Y235695D01*
X486265Y235674D01*
X486219Y235658D01*
X486172Y235644D01*
X486124Y235635D01*
X486075Y235629D01*
X486026Y235627D01*
X485977Y235629D01*
X485928Y235635D01*
X485880Y235644D01*
X485833Y235658D01*
X485787Y235674D01*
X485743Y235695D01*
X485700Y235719D01*
X485659Y235746D01*
X485621Y235777D01*
X485585Y235810D01*
X485552Y235846D01*
X485521Y235884D01*
X485494Y235925D01*
X485470Y235968D01*
X485449Y236012D01*
X485433Y236058D01*
X485419Y236105D01*
X485410Y236153D01*
X485404Y236202D01*
X485402Y236251D01*
X485402Y237873D01*
X483851Y237873D02*
X483851Y235627D01*
X483851Y236750D02*
X484163Y236937D01*
X484194Y236958D01*
X484223Y236982D01*
X484249Y237009D01*
X484273Y237038D01*
X484294Y237070D01*
X484311Y237103D01*
X484325Y237138D01*
X484335Y237174D01*
X484341Y237211D01*
X484344Y237249D01*
X484343Y237286D01*
X484338Y237324D01*
X484329Y237360D01*
X484317Y237396D01*
X484301Y237430D01*
X484282Y237462D01*
X484260Y237493D01*
X484235Y237521D01*
X484207Y237546D01*
X484177Y237568D01*
X484144Y237587D01*
X484110Y237603D01*
X484075Y237615D01*
X484038Y237624D01*
X483979Y237633D01*
X483920Y237638D01*
X483860Y237640D01*
X483801Y237638D01*
X483742Y237633D01*
X483683Y237624D01*
X483625Y237612D01*
X483568Y237596D01*
X483512Y237577D01*
X483457Y237554D01*
X483403Y237528D01*
X483351Y237499D01*
X483851Y236750D02*
X483539Y236563D01*
X483508Y236542D01*
X483479Y236518D01*
X483452Y236491D01*
X483429Y236462D01*
X483408Y236430D01*
X483391Y236397D01*
X483377Y236362D01*
X483367Y236326D01*
X483361Y236289D01*
X483358Y236251D01*
X483359Y236214D01*
X483364Y236176D01*
X483373Y236140D01*
X483385Y236104D01*
X483401Y236070D01*
X483420Y236038D01*
X483442Y236007D01*
X483467Y235979D01*
X483495Y235954D01*
X483525Y235932D01*
X483558Y235913D01*
X483592Y235897D01*
X483627Y235885D01*
X483664Y235876D01*
X483663Y235877D02*
X483722Y235868D01*
X483781Y235863D01*
X483841Y235861D01*
X483900Y235863D01*
X483959Y235868D01*
X484018Y235877D01*
X484076Y235889D01*
X484133Y235905D01*
X484189Y235924D01*
X484244Y235947D01*
X484298Y235973D01*
X484349Y236002D01*
X482375Y237374D02*
X481751Y237873D01*
X481751Y235627D01*
X482375Y235627D02*
X481127Y235627D01*
D10*
X456000Y235000D02*
X428000Y235000D01*
X428000Y223000D01*
X456000Y223000D01*
X456000Y235000D01*
D11*
X438873Y222373D02*
X438873Y220751D01*
X438871Y220702D01*
X438865Y220653D01*
X438856Y220605D01*
X438842Y220558D01*
X438826Y220512D01*
X438805Y220468D01*
X438781Y220425D01*
X438754Y220384D01*
X438723Y220346D01*
X438690Y220310D01*
X438654Y220277D01*
X438616Y220246D01*
X438575Y220219D01*
X438532Y220195D01*
X438488Y220174D01*
X438442Y220158D01*
X438395Y220144D01*
X438347Y220135D01*
X438298Y220129D01*
X438249Y220127D01*
X438200Y220129D01*
X438151Y220135D01*
X438103Y220144D01*
X438056Y220158D01*
X438010Y220174D01*
X437966Y220195D01*
X437923Y220219D01*
X437882Y220246D01*
X437844Y220277D01*
X437808Y220310D01*
X437775Y220346D01*
X437744Y220384D01*
X437717Y220425D01*
X437693Y220468D01*
X437672Y220512D01*
X437656Y220558D01*
X437642Y220605D01*
X437633Y220653D01*
X437627Y220702D01*
X437625Y220751D01*
X437625Y222373D01*
X436074Y222373D02*
X436074Y220127D01*
X436074Y221250D02*
X436386Y221437D01*
X436417Y221458D01*
X436446Y221482D01*
X436472Y221509D01*
X436496Y221538D01*
X436517Y221570D01*
X436534Y221603D01*
X436548Y221638D01*
X436558Y221674D01*
X436564Y221711D01*
X436567Y221749D01*
X436566Y221786D01*
X436561Y221824D01*
X436552Y221860D01*
X436540Y221896D01*
X436524Y221930D01*
X436505Y221962D01*
X436483Y221993D01*
X436458Y222021D01*
X436430Y222046D01*
X436400Y222068D01*
X436367Y222087D01*
X436333Y222103D01*
X436298Y222115D01*
X436261Y222124D01*
X436262Y222124D02*
X436203Y222133D01*
X436144Y222138D01*
X436084Y222140D01*
X436025Y222138D01*
X435966Y222133D01*
X435907Y222124D01*
X435849Y222112D01*
X435792Y222096D01*
X435736Y222077D01*
X435681Y222054D01*
X435627Y222028D01*
X435575Y221999D01*
X436074Y221250D02*
X435762Y221063D01*
X435731Y221042D01*
X435702Y221018D01*
X435675Y220991D01*
X435652Y220962D01*
X435631Y220930D01*
X435614Y220897D01*
X435600Y220862D01*
X435590Y220826D01*
X435584Y220789D01*
X435581Y220751D01*
X435582Y220714D01*
X435587Y220676D01*
X435596Y220640D01*
X435608Y220604D01*
X435624Y220570D01*
X435643Y220538D01*
X435665Y220507D01*
X435690Y220479D01*
X435718Y220454D01*
X435748Y220432D01*
X435781Y220413D01*
X435815Y220397D01*
X435850Y220385D01*
X435887Y220376D01*
X435887Y220377D02*
X435946Y220368D01*
X436005Y220363D01*
X436065Y220361D01*
X436124Y220363D01*
X436183Y220368D01*
X436242Y220377D01*
X436300Y220389D01*
X436357Y220405D01*
X436413Y220424D01*
X436468Y220447D01*
X436522Y220473D01*
X436573Y220502D01*
X433912Y222374D02*
X433866Y222372D01*
X433819Y222366D01*
X433774Y222357D01*
X433730Y222344D01*
X433686Y222327D01*
X433645Y222306D01*
X433605Y222282D01*
X433567Y222255D01*
X433531Y222225D01*
X433499Y222193D01*
X433469Y222157D01*
X433442Y222119D01*
X433418Y222079D01*
X433397Y222038D01*
X433380Y221994D01*
X433367Y221950D01*
X433358Y221905D01*
X433352Y221858D01*
X433350Y221812D01*
X433912Y222373D02*
X433962Y222371D01*
X434012Y222366D01*
X434062Y222357D01*
X434111Y222345D01*
X434159Y222329D01*
X434205Y222311D01*
X434251Y222288D01*
X434294Y222263D01*
X434336Y222235D01*
X434376Y222204D01*
X434413Y222170D01*
X434448Y222134D01*
X434480Y222095D01*
X434510Y222055D01*
X434537Y222012D01*
X434560Y221967D01*
X434581Y221921D01*
X434598Y221874D01*
X433537Y221375D02*
X433506Y221407D01*
X433478Y221441D01*
X433452Y221477D01*
X433428Y221515D01*
X433408Y221554D01*
X433390Y221595D01*
X433376Y221637D01*
X433365Y221680D01*
X433357Y221724D01*
X433352Y221768D01*
X433350Y221812D01*
X433537Y221375D02*
X434598Y220127D01*
X433350Y220127D01*
D10*
X458000Y473000D02*
X458000Y501000D01*
X446000Y501000D01*
X446000Y473000D01*
X458000Y473000D01*
D11*
X445373Y490127D02*
X443751Y490127D01*
X443702Y490129D01*
X443653Y490135D01*
X443605Y490144D01*
X443558Y490158D01*
X443512Y490174D01*
X443468Y490195D01*
X443425Y490219D01*
X443384Y490246D01*
X443346Y490277D01*
X443310Y490310D01*
X443277Y490346D01*
X443246Y490384D01*
X443219Y490425D01*
X443195Y490468D01*
X443174Y490512D01*
X443158Y490558D01*
X443144Y490605D01*
X443135Y490653D01*
X443129Y490702D01*
X443127Y490751D01*
X443129Y490800D01*
X443135Y490849D01*
X443144Y490897D01*
X443158Y490944D01*
X443174Y490990D01*
X443195Y491034D01*
X443219Y491077D01*
X443246Y491118D01*
X443277Y491156D01*
X443310Y491192D01*
X443346Y491225D01*
X443384Y491256D01*
X443425Y491283D01*
X443468Y491307D01*
X443512Y491328D01*
X443558Y491344D01*
X443605Y491358D01*
X443653Y491367D01*
X443702Y491373D01*
X443751Y491375D01*
X445373Y491375D01*
X445373Y492926D02*
X443127Y492926D01*
X444250Y492926D02*
X444437Y492614D01*
X444458Y492583D01*
X444482Y492554D01*
X444509Y492528D01*
X444538Y492504D01*
X444570Y492483D01*
X444603Y492466D01*
X444638Y492452D01*
X444674Y492442D01*
X444711Y492436D01*
X444749Y492433D01*
X444786Y492434D01*
X444824Y492439D01*
X444860Y492448D01*
X444896Y492460D01*
X444930Y492476D01*
X444962Y492495D01*
X444993Y492517D01*
X445021Y492542D01*
X445046Y492570D01*
X445068Y492600D01*
X445087Y492633D01*
X445103Y492667D01*
X445115Y492702D01*
X445124Y492739D01*
X445124Y492738D02*
X445133Y492797D01*
X445138Y492856D01*
X445140Y492916D01*
X445138Y492975D01*
X445133Y493034D01*
X445124Y493093D01*
X445112Y493151D01*
X445096Y493208D01*
X445077Y493265D01*
X445054Y493319D01*
X445028Y493373D01*
X444999Y493425D01*
X444250Y492926D02*
X444063Y493238D01*
X444042Y493269D01*
X444018Y493298D01*
X443991Y493325D01*
X443962Y493348D01*
X443930Y493369D01*
X443897Y493386D01*
X443862Y493400D01*
X443826Y493410D01*
X443789Y493416D01*
X443751Y493419D01*
X443714Y493418D01*
X443676Y493413D01*
X443640Y493404D01*
X443604Y493392D01*
X443570Y493376D01*
X443538Y493357D01*
X443507Y493335D01*
X443479Y493310D01*
X443454Y493282D01*
X443432Y493252D01*
X443413Y493219D01*
X443397Y493185D01*
X443385Y493150D01*
X443376Y493113D01*
X443377Y493113D02*
X443368Y493054D01*
X443363Y492995D01*
X443361Y492935D01*
X443363Y492876D01*
X443368Y492817D01*
X443377Y492758D01*
X443389Y492700D01*
X443405Y492643D01*
X443424Y492587D01*
X443447Y492532D01*
X443473Y492478D01*
X443502Y492427D01*
X443127Y494402D02*
X443127Y495026D01*
X443129Y495075D01*
X443135Y495124D01*
X443144Y495172D01*
X443158Y495219D01*
X443174Y495265D01*
X443195Y495309D01*
X443219Y495352D01*
X443246Y495393D01*
X443277Y495431D01*
X443310Y495467D01*
X443346Y495500D01*
X443384Y495531D01*
X443425Y495558D01*
X443468Y495582D01*
X443512Y495603D01*
X443558Y495619D01*
X443605Y495633D01*
X443653Y495642D01*
X443702Y495648D01*
X443751Y495650D01*
X443800Y495648D01*
X443849Y495642D01*
X443897Y495633D01*
X443944Y495619D01*
X443990Y495603D01*
X444034Y495582D01*
X444077Y495558D01*
X444118Y495531D01*
X444156Y495500D01*
X444192Y495467D01*
X444225Y495431D01*
X444256Y495393D01*
X444283Y495352D01*
X444307Y495309D01*
X444328Y495265D01*
X444344Y495219D01*
X444358Y495172D01*
X444367Y495124D01*
X444373Y495075D01*
X444375Y495026D01*
X445373Y495151D02*
X445373Y494402D01*
X445373Y495151D02*
X445371Y495194D01*
X445365Y495238D01*
X445356Y495280D01*
X445343Y495322D01*
X445326Y495362D01*
X445306Y495401D01*
X445283Y495437D01*
X445256Y495472D01*
X445227Y495504D01*
X445195Y495533D01*
X445160Y495560D01*
X445124Y495583D01*
X445085Y495603D01*
X445045Y495620D01*
X445003Y495633D01*
X444961Y495642D01*
X444917Y495648D01*
X444874Y495650D01*
X444831Y495648D01*
X444787Y495642D01*
X444745Y495633D01*
X444703Y495620D01*
X444663Y495603D01*
X444625Y495583D01*
X444588Y495560D01*
X444553Y495533D01*
X444521Y495504D01*
X444492Y495472D01*
X444465Y495437D01*
X444442Y495401D01*
X444422Y495362D01*
X444405Y495322D01*
X444392Y495280D01*
X444383Y495238D01*
X444377Y495194D01*
X444375Y495151D01*
X444375Y494652D01*
D10*
X589000Y395000D02*
X617000Y395000D01*
X617000Y407000D01*
X589000Y407000D01*
X589000Y395000D01*
D11*
X611650Y408251D02*
X611650Y409873D01*
X611650Y408251D02*
X611648Y408202D01*
X611642Y408153D01*
X611633Y408105D01*
X611619Y408058D01*
X611603Y408012D01*
X611582Y407968D01*
X611558Y407925D01*
X611531Y407884D01*
X611500Y407846D01*
X611467Y407810D01*
X611431Y407777D01*
X611393Y407746D01*
X611352Y407719D01*
X611309Y407695D01*
X611265Y407674D01*
X611219Y407658D01*
X611172Y407644D01*
X611124Y407635D01*
X611075Y407629D01*
X611026Y407627D01*
X610977Y407629D01*
X610928Y407635D01*
X610880Y407644D01*
X610833Y407658D01*
X610787Y407674D01*
X610743Y407695D01*
X610700Y407719D01*
X610659Y407746D01*
X610621Y407777D01*
X610585Y407810D01*
X610552Y407846D01*
X610521Y407884D01*
X610494Y407925D01*
X610470Y407968D01*
X610449Y408012D01*
X610433Y408058D01*
X610419Y408105D01*
X610410Y408153D01*
X610404Y408202D01*
X610402Y408251D01*
X610402Y409873D01*
X608851Y409873D02*
X608851Y407627D01*
X608851Y408750D02*
X609163Y408937D01*
X609194Y408958D01*
X609223Y408982D01*
X609249Y409009D01*
X609273Y409038D01*
X609294Y409070D01*
X609311Y409103D01*
X609325Y409138D01*
X609335Y409174D01*
X609341Y409211D01*
X609344Y409249D01*
X609343Y409286D01*
X609338Y409324D01*
X609329Y409360D01*
X609317Y409396D01*
X609301Y409430D01*
X609282Y409462D01*
X609260Y409493D01*
X609235Y409521D01*
X609207Y409546D01*
X609177Y409568D01*
X609144Y409587D01*
X609110Y409603D01*
X609075Y409615D01*
X609038Y409624D01*
X608979Y409633D01*
X608920Y409638D01*
X608860Y409640D01*
X608801Y409638D01*
X608742Y409633D01*
X608683Y409624D01*
X608625Y409612D01*
X608568Y409596D01*
X608512Y409577D01*
X608457Y409554D01*
X608403Y409528D01*
X608351Y409499D01*
X608851Y408750D02*
X608539Y408563D01*
X608508Y408542D01*
X608479Y408518D01*
X608452Y408491D01*
X608429Y408462D01*
X608408Y408430D01*
X608391Y408397D01*
X608377Y408362D01*
X608367Y408326D01*
X608361Y408289D01*
X608358Y408251D01*
X608359Y408214D01*
X608364Y408176D01*
X608373Y408140D01*
X608385Y408104D01*
X608401Y408070D01*
X608420Y408038D01*
X608442Y408007D01*
X608467Y407979D01*
X608495Y407954D01*
X608525Y407932D01*
X608558Y407913D01*
X608592Y407897D01*
X608627Y407885D01*
X608664Y407876D01*
X608663Y407877D02*
X608722Y407868D01*
X608781Y407863D01*
X608841Y407861D01*
X608900Y407863D01*
X608959Y407868D01*
X609018Y407877D01*
X609076Y407889D01*
X609133Y407905D01*
X609189Y407924D01*
X609244Y407947D01*
X609298Y407973D01*
X609349Y408002D01*
X607375Y408126D02*
X606876Y409873D01*
X607375Y408126D02*
X606127Y408126D01*
X606501Y408625D02*
X606501Y407627D01*
D17*
X540430Y364570D02*
X533318Y364570D01*
X466770Y364570D02*
X466770Y371682D01*
X466770Y438230D02*
X473882Y438230D01*
X540430Y438230D02*
X540430Y431118D01*
X540430Y371682D02*
X540430Y364570D01*
X473882Y364570D02*
X466770Y364570D01*
X466770Y431118D02*
X466770Y438230D01*
X533318Y438230D02*
X540430Y438230D01*
D18*
X550371Y431485D02*
X550371Y427506D01*
X548050Y424521D01*
X550371Y427506D02*
X552693Y424521D01*
X550371Y427506D02*
X546724Y428832D01*
X550371Y427506D02*
X554019Y428832D01*
X520491Y407369D02*
X520491Y395431D01*
X516512Y400737D02*
X520491Y407369D01*
X516512Y400737D02*
X512532Y407369D01*
X512532Y395431D01*
X507918Y395431D02*
X503939Y407369D01*
X499959Y395431D01*
X500954Y398416D02*
X506923Y398416D01*
X496488Y395431D02*
X488529Y407369D01*
X496488Y407369D02*
X488529Y395431D01*
X481742Y400737D02*
X477763Y400737D01*
X481742Y400737D02*
X481844Y400739D01*
X481945Y400745D01*
X482046Y400755D01*
X482147Y400768D01*
X482247Y400786D01*
X482346Y400807D01*
X482445Y400832D01*
X482542Y400861D01*
X482639Y400893D01*
X482734Y400929D01*
X482827Y400969D01*
X482919Y401012D01*
X483009Y401059D01*
X483098Y401110D01*
X483184Y401163D01*
X483268Y401220D01*
X483350Y401280D01*
X483430Y401343D01*
X483507Y401409D01*
X483582Y401478D01*
X483654Y401550D01*
X483723Y401625D01*
X483789Y401702D01*
X483852Y401782D01*
X483912Y401864D01*
X483969Y401948D01*
X484022Y402034D01*
X484073Y402123D01*
X484120Y402213D01*
X484163Y402305D01*
X484203Y402398D01*
X484239Y402493D01*
X484271Y402590D01*
X484300Y402687D01*
X484325Y402786D01*
X484346Y402885D01*
X484364Y402985D01*
X484377Y403086D01*
X484387Y403187D01*
X484393Y403288D01*
X484395Y403390D01*
X484395Y404053D01*
X484393Y404167D01*
X484387Y404282D01*
X484377Y404396D01*
X484363Y404509D01*
X484346Y404623D01*
X484324Y404735D01*
X484299Y404847D01*
X484269Y404957D01*
X484236Y405067D01*
X484199Y405175D01*
X484159Y405282D01*
X484114Y405388D01*
X484067Y405492D01*
X484015Y405594D01*
X483960Y405694D01*
X483902Y405793D01*
X483840Y405889D01*
X483775Y405984D01*
X483707Y406075D01*
X483635Y406165D01*
X483561Y406252D01*
X483484Y406336D01*
X483403Y406418D01*
X483320Y406497D01*
X483235Y406573D01*
X483146Y406646D01*
X483056Y406715D01*
X482963Y406782D01*
X482867Y406845D01*
X482770Y406905D01*
X482670Y406962D01*
X482569Y407015D01*
X482466Y407065D01*
X482361Y407111D01*
X482255Y407154D01*
X482147Y407192D01*
X482038Y407227D01*
X481928Y407258D01*
X481817Y407286D01*
X481705Y407309D01*
X481592Y407329D01*
X481479Y407345D01*
X481365Y407357D01*
X481251Y407365D01*
X481136Y407369D01*
X481022Y407369D01*
X480907Y407365D01*
X480793Y407357D01*
X480679Y407345D01*
X480566Y407329D01*
X480453Y407309D01*
X480341Y407286D01*
X480230Y407258D01*
X480120Y407227D01*
X480011Y407192D01*
X479903Y407154D01*
X479797Y407111D01*
X479692Y407065D01*
X479589Y407015D01*
X479488Y406962D01*
X479388Y406905D01*
X479291Y406845D01*
X479195Y406782D01*
X479102Y406715D01*
X479012Y406646D01*
X478923Y406573D01*
X478838Y406497D01*
X478755Y406418D01*
X478674Y406336D01*
X478597Y406252D01*
X478523Y406165D01*
X478451Y406075D01*
X478383Y405984D01*
X478318Y405889D01*
X478256Y405793D01*
X478198Y405694D01*
X478143Y405594D01*
X478091Y405492D01*
X478044Y405388D01*
X477999Y405282D01*
X477959Y405175D01*
X477922Y405067D01*
X477889Y404957D01*
X477859Y404847D01*
X477834Y404735D01*
X477812Y404623D01*
X477795Y404509D01*
X477781Y404396D01*
X477771Y404282D01*
X477765Y404167D01*
X477763Y404053D01*
X477763Y400737D01*
X477762Y400737D02*
X477764Y400593D01*
X477770Y400450D01*
X477780Y400306D01*
X477793Y400163D01*
X477811Y400021D01*
X477832Y399879D01*
X477857Y399737D01*
X477886Y399596D01*
X477919Y399456D01*
X477955Y399317D01*
X477996Y399180D01*
X478040Y399043D01*
X478087Y398907D01*
X478139Y398773D01*
X478194Y398640D01*
X478252Y398509D01*
X478315Y398379D01*
X478380Y398252D01*
X478449Y398126D01*
X478522Y398001D01*
X478597Y397879D01*
X478676Y397759D01*
X478759Y397641D01*
X478844Y397526D01*
X478932Y397413D01*
X479024Y397302D01*
X479118Y397194D01*
X479216Y397088D01*
X479316Y396985D01*
X479419Y396885D01*
X479525Y396787D01*
X479633Y396693D01*
X479744Y396601D01*
X479857Y396513D01*
X479973Y396428D01*
X480090Y396345D01*
X480210Y396266D01*
X480332Y396191D01*
X480457Y396118D01*
X480583Y396049D01*
X480711Y395983D01*
X480840Y395921D01*
X480971Y395863D01*
X481104Y395808D01*
X481238Y395756D01*
X481374Y395709D01*
X481511Y395665D01*
X481649Y395624D01*
X481787Y395588D01*
X481927Y395555D01*
X482068Y395526D01*
X482210Y395501D01*
X482352Y395480D01*
X482494Y395462D01*
X482637Y395449D01*
X482781Y395439D01*
X482924Y395433D01*
X483068Y395431D01*
X472965Y406043D02*
X472965Y407369D01*
X466333Y407369D01*
X469649Y395431D01*
X461535Y398084D02*
X458882Y407369D01*
X461535Y398084D02*
X454903Y398084D01*
X456892Y400737D02*
X456892Y395431D01*
X450105Y398084D02*
X447452Y407369D01*
X450105Y398084D02*
X443473Y398084D01*
X445462Y400737D02*
X445462Y395431D01*
M02*
