G04 EAGLE Gerber RS-274X export*
G75*
%MOMM*%
%FSLAX34Y34*%
%LPD*%
%INSoldermask Bottom*%
%IPPOS*%
%AMOC8*
5,1,8,0,0,1.08239X$1,22.5*%
G01*
%ADD10R,1.303200X1.303200*%
%ADD11R,2.703200X3.103200*%
%ADD12C,1.524000*%
%ADD13R,0.403200X0.403200*%
%ADD14R,1.703200X3.303200*%
%ADD15R,3.309200X3.309200*%
%ADD16C,3.309200*%
%ADD17C,3.053200*%
%ADD18R,0.903200X0.903200*%
%ADD19R,1.168400X0.457200*%
%ADD20R,0.457200X1.168400*%
%ADD21R,5.054600X5.054600*%
%ADD22R,1.211200X1.211200*%
%ADD23C,1.211200*%
%ADD24C,0.959600*%
%ADD25C,1.109600*%
%ADD26C,1.209600*%
%ADD27C,1.703200*%
%ADD28C,1.159600*%
%ADD29C,1.009600*%
%ADD30C,1.409600*%


D10*
X563000Y441000D03*
X585000Y441000D03*
D11*
X284900Y413700D03*
X284900Y318700D03*
D10*
X516000Y586000D03*
X538000Y586000D03*
X385000Y449000D03*
X385000Y427000D03*
X503000Y586000D03*
X481000Y586000D03*
X563000Y249000D03*
X585000Y249000D03*
X455000Y631500D03*
X455000Y609500D03*
D12*
X309804Y265000D02*
X296596Y265000D01*
X398196Y265000D02*
X411404Y265000D01*
X257804Y707600D02*
X244596Y707600D01*
X346196Y707600D02*
X359404Y707600D01*
X258304Y730600D02*
X245096Y730600D01*
X346696Y730600D02*
X359904Y730600D01*
X259804Y753600D02*
X246596Y753600D01*
X348196Y753600D02*
X361404Y753600D01*
D13*
X643000Y428000D03*
X637000Y428000D03*
X394500Y417500D03*
X388500Y417500D03*
X481000Y595000D03*
X481000Y601000D03*
X563000Y232000D03*
X563000Y238000D03*
D14*
X496100Y174900D03*
X461100Y174900D03*
X426100Y174900D03*
D15*
X127300Y142400D03*
D16*
X207800Y122400D03*
X151800Y122400D03*
D17*
X138300Y184900D03*
X227300Y184900D03*
X227300Y98900D03*
D10*
X523000Y247000D03*
X501000Y247000D03*
X465000Y246600D03*
X487000Y246600D03*
X502000Y228000D03*
X524000Y228000D03*
X430000Y247000D03*
X452000Y247000D03*
X391000Y385000D03*
X369000Y385000D03*
X451600Y264600D03*
X429600Y264600D03*
X634000Y248000D03*
X656000Y248000D03*
X598000Y248000D03*
X620000Y248000D03*
D18*
X718000Y386300D03*
X718000Y411700D03*
X651000Y399300D03*
X651000Y424700D03*
X585800Y608400D03*
X585800Y633800D03*
D10*
X467000Y229000D03*
X489000Y229000D03*
X453000Y229000D03*
X431000Y229000D03*
X452000Y476000D03*
X452000Y498000D03*
X592000Y401000D03*
X614000Y401000D03*
D19*
X537382Y426400D03*
X537382Y421400D03*
X537382Y416400D03*
X537382Y411400D03*
X537382Y406400D03*
X537382Y401400D03*
X537382Y396400D03*
X537382Y391400D03*
X537382Y386400D03*
X537382Y381400D03*
X537382Y376400D03*
D20*
X528600Y367618D03*
X523600Y367618D03*
X518600Y367618D03*
X513600Y367618D03*
X508600Y367618D03*
X503600Y367618D03*
X498600Y367618D03*
X493600Y367618D03*
X488600Y367618D03*
X483600Y367618D03*
X478600Y367618D03*
D19*
X469818Y376400D03*
X469818Y381400D03*
X469818Y386400D03*
X469818Y391400D03*
X469818Y396400D03*
X469818Y401400D03*
X469818Y406400D03*
X469818Y411400D03*
X469818Y416400D03*
X469818Y421400D03*
X469818Y426400D03*
D20*
X478600Y435182D03*
X483600Y435182D03*
X488600Y435182D03*
X493600Y435182D03*
X498600Y435182D03*
X503600Y435182D03*
X508600Y435182D03*
X513600Y435182D03*
X518600Y435182D03*
X523600Y435182D03*
X528600Y435182D03*
D21*
X503600Y401400D03*
D22*
X618200Y122100D03*
D23*
X592800Y122100D03*
X567800Y122100D03*
D24*
X510000Y302000D03*
X487000Y277000D03*
X498000Y326000D03*
X467000Y275500D03*
X441000Y375000D03*
X555000Y391000D03*
X583000Y459000D03*
X446500Y696000D03*
X631000Y372000D03*
X448500Y386000D03*
X410000Y385000D03*
X362000Y524000D03*
X522000Y343000D03*
X591068Y261000D03*
X593500Y231000D03*
D25*
X662000Y273000D03*
X635000Y264000D03*
X570500Y540500D03*
X664000Y452000D03*
X719000Y398000D03*
D24*
X472000Y348000D03*
X442000Y339000D03*
D25*
X575500Y398500D03*
X560000Y375500D03*
D24*
X327000Y315000D03*
D25*
X423500Y401000D03*
D26*
X440000Y460000D03*
D25*
X437000Y600000D03*
D27*
X383000Y229000D03*
D24*
X554000Y412000D03*
D25*
X440514Y404068D03*
D24*
X284000Y380000D03*
D25*
X276500Y503000D03*
D24*
X539000Y567500D03*
X454500Y393000D03*
D25*
X630000Y426000D03*
D24*
X189000Y408000D03*
X178000Y395000D03*
X374000Y419000D03*
D28*
X495000Y611000D03*
D24*
X676000Y452500D03*
D25*
X326000Y593000D03*
D24*
X786500Y363000D03*
X225000Y774000D03*
D25*
X145300Y737600D03*
D24*
X795000Y414000D03*
X146000Y560000D03*
D29*
X149000Y590000D03*
X125942Y764000D03*
D24*
X200500Y706500D03*
X183000Y674500D03*
D30*
X321000Y624000D03*
M02*
