G04 EAGLE Gerber RS-274X export*
G75*
%MOMM*%
%FSLAX34Y34*%
%LPD*%
%INSolderpaste Top*%
%IPPOS*%
%AMOC8*
5,1,8,0,0,1.08239X$1,22.5*%
G01*
%ADD10R,1.100000X1.100000*%
%ADD11R,0.250000X0.130000*%
%ADD12R,0.250000X0.150000*%
%ADD13R,0.160000X0.150000*%
%ADD14R,0.200000X0.200000*%
%ADD15R,2.540000X1.270000*%
%ADD16R,1.650000X3.430000*%
%ADD17R,1.270000X2.540000*%
%ADD18R,3.430000X1.650000*%
%ADD19R,2.920000X1.270000*%
%ADD20R,0.825000X1.715000*%
%ADD21C,0.150000*%
%ADD22R,0.700000X0.700000*%
%ADD23C,0.307400*%


D10*
X544000Y601000D03*
X566000Y601000D03*
X543500Y617500D03*
X565500Y617500D03*
X415000Y715000D03*
X415000Y693000D03*
X160900Y394000D03*
X160900Y372000D03*
X537100Y523900D03*
X537100Y545900D03*
X664400Y124700D03*
X664400Y102700D03*
D11*
X86700Y221700D03*
D12*
X86700Y216470D03*
D13*
X83100Y219300D03*
D14*
X542800Y561500D03*
X542800Y555500D03*
D15*
X160800Y442700D03*
X160800Y412700D03*
D16*
X128800Y479700D03*
X128800Y375700D03*
D17*
X733500Y137800D03*
X763500Y137800D03*
D18*
X696500Y105800D03*
X800500Y105800D03*
D17*
X335800Y140800D03*
X365800Y140800D03*
D18*
X298800Y108800D03*
X402800Y108800D03*
D19*
X144300Y572600D03*
X144300Y602600D03*
X144300Y632600D03*
X144300Y662600D03*
X144300Y692600D03*
X144300Y722600D03*
X144300Y752600D03*
X190300Y752600D03*
X190300Y722600D03*
X190300Y692600D03*
X190300Y662600D03*
X190300Y632600D03*
X191300Y602600D03*
X191300Y572600D03*
D20*
X246100Y552600D03*
X246100Y772600D03*
D21*
X707850Y538600D02*
X707850Y527800D01*
X707850Y538600D02*
X712350Y538600D01*
X712350Y527800D01*
X707850Y527800D01*
X707850Y529225D02*
X712350Y529225D01*
X712350Y530650D02*
X707850Y530650D01*
X707850Y532075D02*
X712350Y532075D01*
X712350Y533500D02*
X707850Y533500D01*
X707850Y534925D02*
X712350Y534925D01*
X712350Y536350D02*
X707850Y536350D01*
X707850Y537775D02*
X712350Y537775D01*
X698350Y517400D02*
X698350Y506600D01*
X698350Y517400D02*
X702850Y517400D01*
X702850Y506600D01*
X698350Y506600D01*
X698350Y508025D02*
X702850Y508025D01*
X702850Y509450D02*
X698350Y509450D01*
X698350Y510875D02*
X702850Y510875D01*
X702850Y512300D02*
X698350Y512300D01*
X698350Y513725D02*
X702850Y513725D01*
X702850Y515150D02*
X698350Y515150D01*
X698350Y516575D02*
X702850Y516575D01*
X688850Y527800D02*
X688850Y538600D01*
X693350Y538600D01*
X693350Y527800D01*
X688850Y527800D01*
X688850Y529225D02*
X693350Y529225D01*
X693350Y530650D02*
X688850Y530650D01*
X688850Y532075D02*
X693350Y532075D01*
X693350Y533500D02*
X688850Y533500D01*
X688850Y534925D02*
X693350Y534925D01*
X693350Y536350D02*
X688850Y536350D01*
X688850Y537775D02*
X693350Y537775D01*
X786850Y479400D02*
X786850Y468600D01*
X786850Y479400D02*
X791350Y479400D01*
X791350Y468600D01*
X786850Y468600D01*
X786850Y470025D02*
X791350Y470025D01*
X791350Y471450D02*
X786850Y471450D01*
X786850Y472875D02*
X791350Y472875D01*
X791350Y474300D02*
X786850Y474300D01*
X786850Y475725D02*
X791350Y475725D01*
X791350Y477150D02*
X786850Y477150D01*
X786850Y478575D02*
X791350Y478575D01*
X777350Y458200D02*
X777350Y447400D01*
X777350Y458200D02*
X781850Y458200D01*
X781850Y447400D01*
X777350Y447400D01*
X777350Y448825D02*
X781850Y448825D01*
X781850Y450250D02*
X777350Y450250D01*
X777350Y451675D02*
X781850Y451675D01*
X781850Y453100D02*
X777350Y453100D01*
X777350Y454525D02*
X781850Y454525D01*
X781850Y455950D02*
X777350Y455950D01*
X777350Y457375D02*
X781850Y457375D01*
X767850Y468600D02*
X767850Y479400D01*
X772350Y479400D01*
X772350Y468600D01*
X767850Y468600D01*
X767850Y470025D02*
X772350Y470025D01*
X772350Y471450D02*
X767850Y471450D01*
X767850Y472875D02*
X772350Y472875D01*
X772350Y474300D02*
X767850Y474300D01*
X767850Y475725D02*
X772350Y475725D01*
X772350Y477150D02*
X767850Y477150D01*
X767850Y478575D02*
X772350Y478575D01*
X773850Y425700D02*
X773850Y414900D01*
X773850Y425700D02*
X778350Y425700D01*
X778350Y414900D01*
X773850Y414900D01*
X773850Y416325D02*
X778350Y416325D01*
X778350Y417750D02*
X773850Y417750D01*
X773850Y419175D02*
X778350Y419175D01*
X778350Y420600D02*
X773850Y420600D01*
X773850Y422025D02*
X778350Y422025D01*
X778350Y423450D02*
X773850Y423450D01*
X773850Y424875D02*
X778350Y424875D01*
X764350Y404500D02*
X764350Y393700D01*
X764350Y404500D02*
X768850Y404500D01*
X768850Y393700D01*
X764350Y393700D01*
X764350Y395125D02*
X768850Y395125D01*
X768850Y396550D02*
X764350Y396550D01*
X764350Y397975D02*
X768850Y397975D01*
X768850Y399400D02*
X764350Y399400D01*
X764350Y400825D02*
X768850Y400825D01*
X768850Y402250D02*
X764350Y402250D01*
X764350Y403675D02*
X768850Y403675D01*
X754850Y414900D02*
X754850Y425700D01*
X759350Y425700D01*
X759350Y414900D01*
X754850Y414900D01*
X754850Y416325D02*
X759350Y416325D01*
X759350Y417750D02*
X754850Y417750D01*
X754850Y419175D02*
X759350Y419175D01*
X759350Y420600D02*
X754850Y420600D01*
X754850Y422025D02*
X759350Y422025D01*
X759350Y423450D02*
X754850Y423450D01*
X754850Y424875D02*
X759350Y424875D01*
X266500Y258650D02*
X255700Y258650D01*
X266500Y258650D02*
X266500Y254150D01*
X255700Y254150D01*
X255700Y258650D01*
X255700Y255575D02*
X266500Y255575D01*
X266500Y257000D02*
X255700Y257000D01*
X255700Y258425D02*
X266500Y258425D01*
X245300Y268150D02*
X234500Y268150D01*
X245300Y268150D02*
X245300Y263650D01*
X234500Y263650D01*
X234500Y268150D01*
X234500Y265075D02*
X245300Y265075D01*
X245300Y266500D02*
X234500Y266500D01*
X234500Y267925D02*
X245300Y267925D01*
X255700Y277650D02*
X266500Y277650D01*
X266500Y273150D01*
X255700Y273150D01*
X255700Y277650D01*
X255700Y274575D02*
X266500Y274575D01*
X266500Y276000D02*
X255700Y276000D01*
X255700Y277425D02*
X266500Y277425D01*
D10*
X611500Y508000D03*
X611500Y530000D03*
X432000Y714000D03*
X432000Y692000D03*
X405000Y314000D03*
X383000Y314000D03*
X699500Y438500D03*
X699500Y416500D03*
X764000Y355000D03*
X764000Y377000D03*
X645300Y545400D03*
X667300Y545400D03*
D22*
X394000Y694300D03*
X394000Y719700D03*
D23*
X280763Y321863D02*
X280763Y319137D01*
X269937Y319137D01*
X269937Y321863D01*
X280763Y321863D01*
X280763Y312363D02*
X280763Y309637D01*
X269937Y309637D01*
X269937Y312363D01*
X280763Y312363D01*
X280763Y302863D02*
X280763Y300137D01*
X269937Y300137D01*
X269937Y302863D01*
X280763Y302863D01*
X304063Y302863D02*
X304063Y300137D01*
X293237Y300137D01*
X293237Y302863D01*
X304063Y302863D01*
X304063Y319137D02*
X304063Y321863D01*
X304063Y319137D02*
X293237Y319137D01*
X293237Y321863D01*
X304063Y321863D01*
M02*
